<?xml version="1.0" encoding="UTF-8"?>
<svg version="1.1" xmlns="http://www.w3.org/2000/svg" width="183" height="112">
<path d="M0 0 C60.39 0 120.78 0 183 0 C183 36.96 183 73.92 183 112 C122.61 112 62.22 112 0 112 C0 75.04 0 38.08 0 0 Z " fill="#F9EDDF" transform="translate(0,0)"/>
<path d="M0 0 C1.48512085 -0.00193359 1.48512085 -0.00193359 3.00024414 -0.00390625 C11.22567159 0.11406908 17.84176747 1.57653437 25.625 4.375 C25.625 8.665 25.625 12.955 25.625 17.375 C-34.765 17.375 -95.155 17.375 -157.375 17.375 C-157.375 12.425 -157.375 7.475 -157.375 2.375 C-146.48929883 2.76845908 -136.614873 5.09556662 -126.08691406 7.71533203 C-121.78246927 8.76238009 -117.45830975 9.70582619 -113.125 10.625 C-112.37589355 10.78782471 -111.62678711 10.95064941 -110.85498047 11.1184082 C-84.6221499 16.64249901 -59.93100135 12.11171091 -34.53710938 5.24414062 C-22.99456055 2.15165296 -11.9756882 -0.01641489 0 0 Z " fill="#FAEEE2" transform="translate(157.375,94.625)"/>
<path d="M0 0 C4.82857003 2.77790189 8.27416103 5.82991534 11.375 10.4375 C11.973125 11.241875 12.57125 12.04625 13.1875 12.875 C14.81133069 16.37905569 14.9494723 19.59994288 15.375 23.4375 C11.14503782 24.42408122 6.91324939 25.40230373 2.6796875 26.37329102 C1.24395499 26.70376036 -0.19128244 27.03638921 -1.62597656 27.37133789 C-13.09878718 30.04752698 -23.94809667 31.62023883 -35.75 31.5 C-36.61109375 31.49548828 -37.4721875 31.49097656 -38.359375 31.48632812 C-40.44794785 31.47472494 -42.53648407 31.4567984 -44.625 31.4375 C-45.58106947 22.44336494 -43.71188693 15.92189511 -38.625 8.4375 C-28.5269575 -2.94109137 -13.93417451 -6.50609397 0 0 Z " fill="#F2C486" transform="translate(107.625,73.5625)"/>
<path d="M0 0 C0 0.66 0 1.32 0 2 C-1.58357459 1.68872484 -3.16684993 1.37592711 -4.75 1.0625 C-5.63171875 0.88847656 -6.5134375 0.71445313 -7.421875 0.53515625 C-8.91261109 0.22571558 -10.39927482 -0.1109445 -11.86621094 -0.51855469 C-31.28473031 -4.89994144 -52.26258594 1.72766579 -70.875 6.625 C-99.89149474 14.24642109 -126.63316745 13.12120509 -155.45336914 5.20605469 C-164.54300148 2.74458565 -173.67448642 1.24050006 -183 0 C-183 -0.66 -183 -1.32 -183 -2 C-169.14775479 -1.49444361 -155.61721218 1.34187098 -142.3125 5.125 C-115.66895607 12.41752172 -90.56103039 8.3257912 -64.25 1.9375 C-42.37670748 -3.37254919 -21.92142549 -7.43999896 0 0 Z " fill="#E5C291" transform="translate(183,97)"/>
<path d="M0 0 C-4.13383315 2.88802042 -8.16159456 3.90564557 -13.0625 4.6875 C-14.21951416 4.87856323 -14.21951416 4.87856323 -15.39990234 5.07348633 C-24.57670497 6.44256905 -33.74894565 6.26072909 -43 6 C-43 5.67 -43 5.34 -43 5 C-41.38544922 4.81824219 -41.38544922 4.81824219 -39.73828125 4.6328125 C-22.67666556 2.77934724 -22.67666556 2.77934724 -5.90234375 -0.73046875 C-3.68373538 -1.04480957 -2.12205167 -0.66639039 0 0 Z " fill="#F7E8D5" transform="translate(108,101)"/>
<path d="M0 0 C6.625 -0.125 6.625 -0.125 10 1 C10.33 3.64 10.66 6.28 11 9 C7.75 9.75 7.75 9.75 4 10 C1.5625 8.4375 1.5625 8.4375 0 6 C-0.25 2.75 -0.25 2.75 0 0 Z " fill="#F6D3A2" transform="translate(112,88)"/>
<path d="M0 0 C-0.639375 0.391875 -1.27875 0.78375 -1.9375 1.1875 C-4.24843586 2.83490816 -4.24843586 2.83490816 -4.4375 5.5625 C-4.623125 6.366875 -4.80875 7.17125 -5 8 C-7.68490027 9.59642719 -9.21434929 10.12740282 -12.3125 9.625 C-12.869375 9.41875 -13.42625 9.2125 -14 9 C-14.33 9.66 -14.66 10.32 -15 11 C-14.34 11 -13.68 11 -13 11 C-13 11.66 -13 12.32 -13 13 C-14.65 13.33 -16.3 13.66 -18 14 C-17.53377427 9.47207891 -16.12386697 7.72019513 -12.6875 4.8125 C-11.90761719 4.13832031 -11.12773438 3.46414062 -10.32421875 2.76953125 C-6.65129177 -0.02683165 -4.52137055 -1.6147752 0 0 Z " fill="#EFBA76" transform="translate(86,73)"/>
<path d="M0 0 C4.51591742 3.13605376 6.6536612 6.1268348 9 11 C8.67 11.66 8.34 12.32 8 13 C7.67 12.67 7.34 12.34 7 12 C4.97174509 11.80683287 2.94276079 11.61674212 0.91015625 11.4765625 C-1 11 -1 11 -3 8 C-2.01 7.34 -1.02 6.68 0 6 C-0.99 5.34 -1.98 4.68 -3 4 C-3 3.34 -3 2.68 -3 2 C-2.01 1.34 -1.02 0.68 0 0 Z " fill="#F4CC93" transform="translate(112,77)"/>
<path d="M0 0 C8.44430279 0.51755404 16.68086307 1.4560881 25 3 C25 3.66 25 4.32 25 5 C16.58432901 4.4237919 8.32051741 3.38227951 0 2 C0 1.34 0 0.68 0 0 Z " fill="#E3BC88" transform="translate(0,95)"/>
<path d="M0 0 C1.76462683 3.08809695 2 4.23312136 2 8 C-0.31 8.33 -2.62 8.66 -5 9 C-5.66 8.01 -6.32 7.02 -7 6 C-6.21625 5.566875 -5.4325 5.13375 -4.625 4.6875 C-1.78301625 3.10779753 -1.78301625 3.10779753 0 0 Z " fill="#F8DCB6" transform="translate(121,89)"/>
<path d="M0 0 C1.71884387 4.7745663 0.63071185 10.28905464 -1 15 C-1.99 15.495 -1.99 15.495 -3 16 C-3.32712342 9.86946489 -3.39366878 5.37330889 0 0 Z " fill="#EDBA78" transform="translate(66,88)"/>
<path d="M0 0 C0.66 0.99 1.32 1.98 2 3 C1.01 3.33 0.02 3.66 -1 4 C-2.11680706 6.84979639 -2.11680706 6.84979639 -3 10 C-3.63815344 11.34721283 -4.29325371 12.68747118 -5 14 C-5.66 13.67 -6.32 13.34 -7 13 C-3.535 6.565 -3.535 6.565 0 0 Z " fill="#F2CFA1" transform="translate(115,56)"/>
<path d="M0 0 C-2.91708924 1.98362069 -4.12380904 1.9876191 -7.75 1.625 C-8.8225 1.41875 -9.895 1.2125 -11 1 C-11 0.67 -11 0.34 -11 0 C-7.01803543 -1.05404945 -4.01804691 -0.84098656 0 0 Z " fill="#E4C191" transform="translate(103,105)"/>
</svg>
