<?xml version="1.0" encoding="UTF-8" standalone="no"?>
<svg
   version="1.1"
   width="1022.663"
   height="371.70563"
   style="clip-rule:evenodd;fill-rule:evenodd;image-rendering:optimizeQuality;shape-rendering:geometricPrecision;text-rendering:geometricPrecision"
   id="svg59"
   sodipodi:docname="IMG_0057 new.svg"
   inkscape:version="1.4.4 (dcaf3e7, 2026-05-05)"
   xmlns:inkscape="http://www.inkscape.org/namespaces/inkscape"
   xmlns:sodipodi="http://sodipodi.sourceforge.net/DTD/sodipodi-0.dtd"
   xmlns="http://www.w3.org/2000/svg"
   xmlns:svg="http://www.w3.org/2000/svg">
  <defs
     id="defs59" />
  <sodipodi:namedview
     id="namedview59"
     pagecolor="#ffffff"
     bordercolor="#000000"
     borderopacity="0.25"
     inkscape:showpageshadow="2"
     inkscape:pageopacity="0.0"
     inkscape:pagecheckerboard="0"
     inkscape:deskcolor="#d1d1d1"
     inkscape:zoom="1.4390823"
     inkscape:cx="478.42991"
     inkscape:cy="212.28807"
     inkscape:window-width="2400"
     inkscape:window-height="1261"
     inkscape:window-x="2391"
     inkscape:window-y="-9"
     inkscape:window-maximized="1"
     inkscape:current-layer="svg59" />
  <g
     id="g2"
     transform="translate(-153.32821,0.25853199)">
    <path
       fill="#f5f3f0"
       stroke="#f5f3f0"
       stroke-width="0.5"
       d="m 485.58,240 c 0.85,-2.93 2.67,-3.77 5.47,-2.51 1.6,2.27 1.25,4.22 -1.04,5.86 -1.26,0.94 -2.37,0.81 -3.35,-0.38 -0.51,-0.93 -0.87,-1.92 -1.08,-2.97 z m 217.7,10.77 c 1.44,-3.61 2.87,-7.21 4.3,-10.82 0.16,-0.34 0.42,-0.52 0.79,-0.55 1.67,3.56 3.15,7.22 4.45,10.96 -0.3,0.47 -0.73,0.68 -1.29,0.65 -2.76,0.01 -5.51,-0.07 -8.25,-0.24 z m 234.52,-0.71 c 1.16,-3.11 2.38,-6.2 3.64,-9.27 0.83,-1.06 1.46,-0.91 1.89,0.46 1.21,3.02 2.35,6.06 3.43,9.11 -0.27,0.45 -0.68,0.67 -1.23,0.64 -2.33,0.08 -4.66,0.05 -6.98,-0.09 -0.41,-0.15 -0.66,-0.44 -0.75,-0.85 z"
       id="path2" />
  </g>
  <g
     id="g3"
     transform="translate(-153.32821,0.25853199)">
    <path
       fill="#f4f0e9"
       stroke="#f4f0e9"
       stroke-width="0.5"
       d="m 539.5,245.78 c 0.08,-2.1 0.1,-4.21 0.06,-6.31 -0.08,-1.45 0.59,-2.16 2,-2.14 2.33,-0.17 4.58,0.19 6.73,1.07 2.29,1.88 2.73,4.14 1.32,6.78 -0.98,1.42 -2.33,2.13 -4.06,2.12 -1.35,0.02 -2.71,0.02 -4.06,0 -1.13,0.04 -1.79,-0.47 -1.99,-1.52 z m -109.31,5.03 c 1.36,-3.71 2.73,-7.41 4.12,-11.13 0.23,-0.32 0.51,-0.4 0.87,-0.22 1.44,3.67 2.94,7.32 4.48,10.96 -0.28,0.37 -0.66,0.57 -1.14,0.59 -2.78,0.03 -5.56,-0.03 -8.33,-0.2 z"
       id="path3" />
  </g>
  <g
     id="g4"
     transform="translate(-153.32821,0.25853199)">
    <path
       fill="#f6f3ee"
       stroke="#f6f3ee"
       stroke-width="0.5"
       d="m 972,244 c -0.02,-1.83 0.01,-3.65 0.06,-5.48 0.04,-0.52 0.28,-0.89 0.72,-1.13 2.41,-0.26 4.8,-0.18 7.18,0.24 3.07,1.37 3.96,3.6 2.65,6.7 -0.81,1.15 -1.91,1.92 -3.3,2.3 -2.19,0.27 -4.38,0.3 -6.58,0.09 -0.67,-0.77 -0.91,-1.68 -0.73,-2.72 z"
       id="path4" />
  </g>
  <g
     id="g5"
     transform="translate(-153.32821,0.25853199)">
    <path
       fill="#f1ede5"
       d="m 1017.02,245.66 c -3.46,0.31 -6.92,0.38 -10.39,0.19 -0.52,-0.26 -0.79,-0.68 -0.83,-1.26 0.05,-2.04 0.09,-4.07 0.12,-6.11 0.04,-0.54 0.31,-0.92 0.81,-1.12 3.61,0 7.21,-0.05 10.81,-0.15 1.48,-0.61 1.59,-1.46 0.34,-2.54 0.27,-0.67 0.75,-0.93 1.43,-0.77 0.77,1.12 1.03,2.37 0.8,3.74 -0.79,0.52 -1.43,1.2 -1.93,2.03 -1.16,0.37 -2.37,0.45 -3.61,0.25 -1.04,-0.27 -2.09,-0.56 -3.12,-0.86 -0.98,-0.05 -1.96,-0.11 -2.94,-0.16 -0.58,-0.02 -1.01,0.22 -1.3,0.7 -0.23,1.24 -0.24,2.47 -0.03,3.71 0.16,0.16 0.31,0.32 0.47,0.47 2.6,0.15 5.2,0.25 7.81,0.29 0.81,0.27 1.33,0.8 1.56,1.59 z"
       id="path5" />
  </g>
  <g
     id="g7"
     transform="translate(-153.32821,0.25853199)">
    <path
       fill="#d5b98b"
       d="m 408.28,336.01 c 0,-0.33 0.15,-0.57 0.45,-0.74 0.56,-0.2 1.15,-0.28 1.75,-0.25 35.35,0.07 70.69,0.05 106.04,-0.06 1,-0.01 1.51,0.46 1.52,1.42 -0.38,0.49 -0.88,0.72 -1.51,0.67 -35.35,-0.06 -70.7,-0.07 -106.05,-0.03 -0.61,0.04 -1.21,-0.04 -1.79,-0.24 -0.3,-0.17 -0.44,-0.43 -0.41,-0.77 z M 748.62,336 c 0.43,-0.67 1.05,-1.01 1.86,-1 35.35,0.04 70.7,0.05 106.04,0.03 0.58,-0.01 1.12,0.1 1.65,0.32 0.31,0.22 0.43,0.52 0.34,0.9 -0.54,0.54 -1.2,0.78 -1.99,0.7 -35.35,0.01 -70.7,0.05 -106.05,0.12 -0.84,0 -1.45,-0.35 -1.85,-1.07 z"
       id="path7" />
  </g>
  <g
     id="g8"
     transform="translate(-153.32821,0.25853199)">
    <path
       fill="#d4b380"
       stroke="#d4b380"
       stroke-width="0.5"
       d="m 532.23,336 c 0.54,-3.29 2.46,-4.75 5.74,-4.38 2.24,0.77 3.41,2.34 3.52,4.71 -0.44,2.88 -2.09,4.38 -4.96,4.52 -2.58,-0.6 -4.01,-2.22 -4.3,-4.85 z m 192.99,0.93 c -0.09,-3.03 1.34,-4.84 4.28,-5.41 3.45,0.48 4.97,2.45 4.54,5.91 -1.33,3.19 -3.54,4.06 -6.63,2.62 -1.06,-0.8 -1.8,-1.84 -2.19,-3.12 z"
       id="path8" />
  </g>
  <g
     id="g9"
     transform="translate(-153.32821,0.25853199)">
    <path
       fill="#f6f2ed"
       stroke="#f6f2ed"
       stroke-width="0.5"
       d="m 672.22,239.96 c -0.19,-0.96 0.01,-1.8 0.59,-2.52 2.61,-0.39 5.16,-0.19 7.66,0.59 3.27,2.26 3.68,4.97 1.24,8.12 -2.29,1.08 -4.7,1.47 -7.24,1.18 -0.94,0.09 -1.66,-0.24 -2.16,-0.99 0.02,-2.13 -0.01,-4.25 -0.09,-6.38 z m 65.64,0.04 c -0.18,-1.07 0.11,-1.96 0.89,-2.65 2.34,-0.14 4.67,-0.02 6.98,0.34 3.6,1.72 4.32,4.25 2.16,7.59 -0.57,0.5 -1.2,0.9 -1.89,1.19 -2.41,0.45 -4.84,0.53 -7.28,0.25 -0.48,-0.26 -0.74,-0.66 -0.78,-1.21 -0.05,-1.84 -0.08,-3.67 -0.08,-5.51 z"
       id="path9" />
  </g>
  <g
     id="g10"
     transform="translate(-153.32821,0.25853199)">
    <path
       fill="#a0adc2"
       stroke="#a0adc2"
       stroke-width="0.5"
       d="m 796.18,60.16 c 0.36,1.21 0.85,2.39 1.46,3.53 0.33,1.39 0.16,2.73 -0.49,4 -1.12,0.96 -2.35,1.78 -3.69,2.45 -3.04,0.34 -5.05,-0.98 -6.02,-3.95 0.51,-0.16 0.94,-0.42 1.3,-0.8 0.47,-1.34 1.4,-2.12 2.77,-2.34 0.36,-0.95 0.75,-1.86 1.18,-2.75 1,-0.12 1.95,-0.41 2.84,-0.86 0.28,0.19 0.49,0.43 0.65,0.72 z"
       id="path10" />
  </g>
  <g
     id="g11"
     transform="translate(-153.32821,0.25853199)">
    <path
       fill="#98a5bd"
       stroke="#98a5bd"
       stroke-width="0.5"
       d="m 792.89,50.12 c -1.43,0.49 -2.91,0.73 -4.43,0.72 -1.35,-0.15 -2.64,-0.47 -3.86,-0.97 -0.15,0.22 -0.3,0.43 -0.45,0.64 0,1.29 -0.12,2.56 -0.34,3.82 -0.15,0.45 -0.44,0.75 -0.88,0.91 -0.79,0.2 -1.54,0.5 -2.24,0.91 -0.69,1.03 -0.44,1.72 0.76,2.06 2.99,-0.11 4.5,1.32 4.55,4.29 0.31,0.61 0.81,0.86 1.49,0.73 0.56,-0.57 0.98,-1.24 1.26,-2 0.89,-0.35 1.64,-0.91 2.23,-1.66 1.08,-0.23 2.07,-0.62 2.98,-1.19 -0.42,-1.71 -0.97,-3.4 -1.66,-5.05 0.01,-0.68 0.27,-1.26 0.77,-1.75 0.15,-0.51 0.08,-1 -0.18,-1.46 0.84,0.11 1.66,0.01 2.44,-0.29 0.4,-0.32 0.56,-0.72 0.51,-1.22 2.18,-0.49 4.27,-0.21 6.25,0.85 0.38,0.29 0.63,0.67 0.77,1.13 0.6,1.59 0.99,3.23 1.17,4.92 -0.26,1.57 -1.11,2.72 -2.56,3.45 -1.65,0.85 -3.42,1.25 -5.29,1.2 -0.16,-0.29 -0.37,-0.53 -0.65,-0.72 -0.89,0.45 -1.84,0.74 -2.84,0.86 -0.43,0.89 -0.82,1.8 -1.18,2.75 -1.37,0.22 -2.3,1 -2.77,2.34 -0.36,0.38 -0.79,0.64 -1.3,0.8 -0.24,-0.4 -0.59,-0.62 -1.06,-0.67 -0.99,0.75 -1.99,1.52 -2.99,2.3 -2.71,1.19 -5.05,0.65 -7.04,-1.63 -1.13,-2.11 -1.06,-4.19 0.22,-6.24 0.63,-0.86 1.31,-1.67 2.04,-2.43 -0.24,-0.53 -0.51,-1.05 -0.82,-1.55 0.17,-0.37 0.44,-0.66 0.81,-0.86 0.84,-0.07 1.61,-0.3 2.32,-0.69 0.49,-1.11 1.11,-2.13 1.86,-3.07 0.06,-0.46 -0.05,-0.86 -0.34,-1.22 -0.57,-0.65 -1.08,-1.34 -1.53,-2.08 2.11,0.22 4.25,0.5 6.41,0.85 0.76,-0.54 1.48,-1.13 2.17,-1.75 0.44,0.11 0.83,0.31 1.18,0.6 0.61,-0.23 1.2,-0.51 1.77,-0.84 0.42,1.01 0.56,2.09 0.45,3.21 z"
       id="path11" />
  </g>
  <g
     id="g12"
     transform="translate(-153.32821,0.25853199)">
    <path
       fill="#7d8796"
       d="m 792.89,50.12 c 0.26,0.46 0.33,0.95 0.18,1.46 -0.5,0.49 -0.76,1.07 -0.77,1.75 0.69,1.65 1.24,3.34 1.66,5.05 -0.91,0.57 -1.9,0.96 -2.98,1.19 -0.59,0.75 -1.34,1.31 -2.23,1.66 -0.28,0.76 -0.7,1.43 -1.26,2 -0.68,0.13 -1.18,-0.12 -1.49,-0.73 -0.05,-2.97 -1.56,-4.4 -4.55,-4.29 -1.2,-0.34 -1.45,-1.03 -0.76,-2.06 0.7,-0.41 1.45,-0.71 2.24,-0.91 0.44,-0.16 0.73,-0.46 0.88,-0.91 0.22,-1.26 0.34,-2.53 0.34,-3.82 0.15,-0.21 0.3,-0.42 0.45,-0.64 1.22,0.5 2.51,0.82 3.86,0.97 1.52,0.01 3,-0.23 4.43,-0.72 z m -7.99,4.85 c -0.27,2.13 0.59,3.47 2.6,4.03 1.84,0.1 2.98,-0.75 3.45,-2.52 0,-2.98 -1.46,-4.13 -4.39,-3.44 -0.81,0.42 -1.36,1.06 -1.66,1.93 z"
       id="path12" />
  </g>
  <g
     id="g13"
     transform="translate(-153.32821,0.25853199)">
    <path
       fill="#9fabc2"
       stroke="#9fabc2"
       stroke-width="0.5"
       d="m 795.84,48.61 c 0.05,0.5 -0.11,0.9 -0.51,1.22 -0.78,0.3 -1.6,0.4 -2.44,0.29 0.11,-1.12 -0.03,-2.2 -0.45,-3.21 -0.57,0.33 -1.16,0.61 -1.77,0.84 -0.35,-0.29 -0.74,-0.49 -1.18,-0.6 -0.69,0.62 -1.41,1.21 -2.17,1.75 -2.16,-0.35 -4.3,-0.63 -6.41,-0.85 0.45,0.74 0.96,1.43 1.53,2.08 0.29,0.36 0.4,0.76 0.34,1.22 -0.75,0.94 -1.37,1.96 -1.86,3.07 -0.71,0.39 -1.48,0.62 -2.32,0.69 -0.37,0.2 -0.64,0.49 -0.81,0.86 -0.69,0.16 -1.33,0.03 -1.92,-0.39 -2.55,-2.16 -2.94,-4.67 -1.18,-7.52 0.76,-0.98 1.73,-1.62 2.93,-1.94 1.93,-0.02 3.81,0.22 5.65,0.72 0.58,-1.69 1.34,-3.31 2.28,-4.86 2.35,-2.31 4.7,-2.33 7.05,-0.08 1.47,1.89 2.03,4.02 1.69,6.4 0.43,0.44 0.94,0.54 1.55,0.31 z"
       id="path13" />
  </g>
  <g
     id="g14"
     transform="translate(-153.32821,0.25853199)">
    <path
       fill="#d9b989"
       stroke="#d9b989"
       stroke-width="0.5"
       d="m 651.06,321.92 c -0.64,-0.2 -1.12,-0.04 -1.45,0.49 0.38,0.79 0.74,1.57 1.11,2.36 0.09,0.49 -0.05,0.9 -0.43,1.23 -0.9,-0.28 -1.79,-0.62 -2.67,-1.01 -0.46,0.1 -0.72,0.38 -0.77,0.84 -2.97,-2.33 -5.89,-4.72 -8.76,-7.17 -0.32,-0.21 -0.61,-0.18 -0.87,0.1 -0.05,0.46 0.08,0.86 0.41,1.19 1,0.98 2,1.95 3,2.92 3.16,2.5 6.25,5.08 9.27,7.73 -0.4,0.41 -0.84,0.76 -1.33,1.05 -2.07,-0.86 -4.17,-1.63 -6.31,-2.3 -1.06,-1.13 -2.3,-1.43 -3.72,-0.89 -3.19,-3.2 -5.75,-6.83 -7.69,-10.92 -0.69,-1.63 -1.17,-3.33 -1.43,-5.08 0,-0.77 0.35,-1.29 1.06,-1.57 1.71,0.16 3.4,0.46 5.08,0.9 6.32,1.62 11.49,5 15.5,10.13 z m -41.71,27.12 c -0.13,0.44 -0.4,0.77 -0.82,0.98 -3.83,1.65 -7.72,3.17 -11.66,4.54 -1.07,0.86 -0.89,1.32 0.56,1.36 2.27,-0.34 4.44,-0.99 6.52,-1.97 0.83,1.11 1.92,1.88 3.29,2.3 -3.83,2.31 -7.98,3.46 -12.46,3.43 0.51,-0.86 1.18,-1.57 2,-2.13 -1.5,-0.01 -2.98,-0.11 -4.46,-0.3 -0.13,-0.43 0,-0.78 0.39,-1.03 0.73,-0.15 1.39,-0.41 2,-0.79 -0.11,-0.28 -0.22,-0.56 -0.31,-0.84 1.76,-2.28 3.96,-4.02 6.59,-5.23 2.14,-0.86 4.34,-1.48 6.61,-1.88 0.82,0.25 1.4,0.77 1.75,1.56 z"
       id="path14" />
  </g>
  <g
     id="g15"
     transform="translate(-153.32821,0.25853199)">
    <path
       fill="#e2b964"
       stroke="#e2b964"
       stroke-width="0.5"
       d="m 784.9,54.97 c 1.45,-2.55 3.31,-2.88 5.58,-1.01 0.83,1.58 0.65,3.03 -0.55,4.36 -1.53,1.01 -2.99,0.91 -4.35,-0.3 -0.52,-0.95 -0.74,-1.97 -0.68,-3.05 z"
       id="path15" />
  </g>
  <g
     id="g16"
     transform="translate(-153.32821,0.25853199)">
    <path
       fill="#d3b07d"
       d="m 641.03,342.87 c -0.15,0.34 -0.39,0.59 -0.74,0.73 -1.6,0.19 -3.21,0.27 -4.83,0.26 -1.93,0.43 -1.96,0.89 -0.07,1.4 2.39,0.05 4.76,-0.04 7.14,-0.27 0.45,0.12 0.61,0.41 0.47,0.85 -5.91,0.31 -11.82,0.21 -17.71,-0.29 -3.75,-0.03 -7.13,1.06 -10.14,3.28 -1.61,1.65 -3.19,3.32 -4.74,5.02 -0.99,0.9 -2.04,1.7 -3.17,2.4 -1.37,-0.42 -2.46,-1.19 -3.29,-2.3 1.58,-0.99 3.2,-1.89 4.88,-2.68 0.63,-0.56 1.22,-1.16 1.78,-1.8 -0.4,-0.18 -0.82,-0.32 -1.26,-0.43 -0.35,-0.79 -0.93,-1.31 -1.75,-1.56 -2.27,0.4 -4.47,1.02 -6.61,1.88 -2.63,1.21 -4.83,2.95 -6.59,5.23 0.09,0.28 0.2,0.56 0.31,0.84 -0.61,0.38 -1.27,0.64 -2,0.79 -0.39,0.25 -0.52,0.6 -0.39,1.03 1.48,0.19 2.96,0.29 4.46,0.3 -0.82,0.56 -1.49,1.27 -2,2.13 -1.29,-0.09 -2.58,-0.18 -3.87,-0.28 -0.81,-0.37 -1.15,-1 -1.01,-1.9 2.77,-5.24 7.01,-8.69 12.73,-10.34 4.25,-1.08 8.56,-1.67 12.95,-1.75 0.6,-0.11 1.04,-0.44 1.32,-0.96 -0.12,-0.16 -0.25,-0.33 -0.37,-0.49 -7.57,-1.6 -14.99,-3.78 -22.24,-6.52 -2.91,-0.68 -5.84,-0.87 -8.81,-0.57 -1.4,0.59 -2.78,1.21 -4.15,1.86 -6.23,2.39 -12.17,1.82 -17.83,-1.73 -0.3,-0.37 -0.37,-0.78 -0.21,-1.23 0.4,-0.58 0.91,-1.04 1.52,-1.39 0.09,0.9 0.4,1.69 0.95,2.39 1.38,-0.01 2.68,0.31 3.91,0.94 1.94,0.13 3.89,0.24 5.83,0.32 1.26,-0.29 2.53,-0.46 3.83,-0.51 0.65,-0.13 1.1,-0.51 1.34,-1.12 -0.78,-0.46 -1.62,-0.53 -2.5,-0.22 -0.4,-0.12 -0.8,-0.25 -1.21,-0.37 0,-0.35 -0.18,-0.58 -0.53,-0.68 -1.17,0.04 -2.27,-0.18 -3.28,-0.68 0.78,-0.19 1.59,-0.25 2.42,-0.18 0.48,-0.07 0.86,-0.28 1.15,-0.66 -1.35,-0.52 -2.76,-0.76 -4.24,-0.72 -2.13,0.62 -4.26,1.26 -6.38,1.91 -0.5,0.06 -0.93,-0.08 -1.29,-0.42 2.92,-1.98 6.15,-2.88 9.69,-2.69 1.68,-0.04 3.33,0.12 4.96,0.5 2.67,0.96 5.35,1.84 8.06,2.63 0.62,0.14 1.25,0.16 1.88,0.05 0.41,-0.54 0.3,-0.98 -0.33,-1.34 -2.28,-1 -4.51,-2.11 -6.68,-3.32 -2.11,-1.66 -4.2,-3.35 -6.27,-5.06 -3.49,-1.6 -6.57,-3.78 -9.22,-6.56 -2.4,-2.61 -4.02,-5.64 -4.84,-9.1 -0.32,-0.99 -0.36,-1.97 -0.12,-2.97 0.38,-0.52 0.89,-0.71 1.52,-0.58 5.33,1.28 9.32,4.32 11.96,9.1 1.33,2.87 2.45,5.81 3.35,8.83 3.38,3.01 7.03,5.63 10.97,7.87 1.04,0.4 1.43,0.06 1.19,-1.01 -1.47,-2.2 -2.9,-4.43 -4.3,-6.68 -1.83,-2.76 -2.11,-5.65 -0.85,-8.68 1.71,-2.48 3.51,-2.49 5.39,-0.04 1.84,2.14 3,4.6 3.49,7.36 -0.16,2.91 -0.32,5.81 -0.46,8.7 0.97,1.72 2.34,3.03 4.12,3.92 2.67,1.43 5.45,2.57 8.35,3.42 4.9,1.27 9.85,2.3 14.85,3.1 3.01,0.26 6,0.62 8.98,1.08 3.51,0.03 7.02,0.02 10.53,-0.04 z m -74.85,-31.73 c 1.68,2.63 3.64,5.02 5.88,7.17 1.46,0.85 1.82,0.54 1.08,-0.93 -1.66,-2.37 -3.58,-4.48 -5.77,-6.35 -0.42,-0.18 -0.82,-0.14 -1.19,0.11 z m 20.95,5.9 c -0.03,2.79 0.75,5.32 2.34,7.58 0.24,-0.34 0.34,-0.72 0.29,-1.15 -0.18,-1.45 -0.29,-2.91 -0.35,-4.37 -0.37,-1.15 -1.05,-2.05 -2.02,-2.72 -0.23,0.15 -0.32,0.37 -0.26,0.66 z"
       id="path16" />
  </g>
  <g
     id="g17"
     transform="translate(-153.32821,0.25853199)">
    <path
       fill="#eddfc3"
       d="m 587.13,317.04 c -0.06,-0.29 0.03,-0.51 0.26,-0.66 0.97,0.67 1.65,1.57 2.02,2.72 0.06,1.46 0.17,2.92 0.35,4.37 0.05,0.43 -0.05,0.81 -0.29,1.15 -1.59,-2.26 -2.37,-4.79 -2.34,-7.58 z"
       id="path17" />
  </g>
  <g
     id="g18"
     transform="translate(-153.32821,0.25853199)">
    <path
       fill="#f5ecd4"
       d="m 566.18,311.14 c 0.37,-0.25 0.77,-0.29 1.19,-0.11 2.52,2.12 4.61,4.6 6.26,7.43 -0.09,0.11 -0.18,0.23 -0.27,0.34 -1.13,-0.3 -2.07,-0.92 -2.81,-1.85 -1.52,-1.89 -2.98,-3.83 -4.37,-5.81 z"
       id="path18" />
  </g>
  <g
     id="g19"
     transform="translate(-153.32821,0.25853199)">
    <path
       fill="#dfc49c"
       d="m 576.96,335.81 c -1.51,0.1 -3.02,0.13 -4.53,0.09 -0.11,0.15 -0.22,0.3 -0.33,0.45 0.94,0.82 2.05,1.12 3.32,0.91 1.07,-0.02 1.99,-0.38 2.75,-1.08 0.88,-0.31 1.72,-0.24 2.5,0.22 -0.24,0.61 -0.69,0.99 -1.34,1.12 -1.3,0.05 -2.57,0.22 -3.83,0.51 -1.94,-0.08 -3.89,-0.19 -5.83,-0.32 -1.23,-0.63 -2.53,-0.95 -3.91,-0.94 -0.55,-0.7 -0.86,-1.49 -0.95,-2.39 0.36,0.34 0.79,0.48 1.29,0.42 2.12,-0.65 4.25,-1.29 6.38,-1.91 1.48,-0.04 2.89,0.2 4.24,0.72 -0.29,0.38 -0.67,0.59 -1.15,0.66 -0.83,-0.07 -1.64,-0.01 -2.42,0.18 1.01,0.5 2.11,0.72 3.28,0.68 0.35,0.1 0.53,0.33 0.53,0.68 z"
       id="path19" />
  </g>
  <g
     id="g20"
     transform="translate(-153.32821,0.25853199)">
    <path
       fill="#d0ac75"
       d="m 651.06,321.92 c 1.54,2.42 2.81,4.99 3.8,7.7 1.52,2.41 3.68,3.95 6.48,4.64 6.52,2.41 13.24,3.3 20.16,2.66 7.3,-1.41 14.36,-3.61 21.18,-6.59 1.22,-0.47 1.82,-0.1 1.8,1.11 -0.37,0.81 -0.99,1.38 -1.85,1.7 -7.49,3.38 -15.27,5.89 -23.31,7.54 -5.03,1.99 -9.36,4.99 -13,9.01 -0.88,2.12 -1.78,4.24 -2.69,6.36 -2.14,4.24 -5.34,7.39 -9.62,9.45 -2.23,0.7 -4.44,1.43 -6.65,2.21 -0.49,0.11 -0.9,-0.02 -1.24,-0.39 -0.41,-0.92 -0.43,-1.85 -0.06,-2.79 1.75,-5.86 5.22,-10.38 10.39,-13.59 2.64,-1.34 5.34,-2.55 8.1,-3.62 1.58,-1.21 3.21,-2.35 4.89,-3.42 0.67,-0.83 0.51,-1.26 -0.49,-1.29 -3.59,0.94 -7.23,1.6 -10.92,1.98 -5.01,0.33 -10.03,0.75 -15.03,1.25 0.14,-0.44 -0.02,-0.73 -0.47,-0.85 -2.38,0.23 -4.75,0.32 -7.14,0.27 -1.89,-0.51 -1.86,-0.97 0.07,-1.4 1.62,0.01 3.23,-0.07 4.83,-0.26 0.35,-0.14 0.59,-0.39 0.74,-0.73 2.49,-0.08 4.98,-0.14 7.47,-0.18 7.39,-0.89 14.77,-1.85 22.14,-2.87 1.21,-0.12 1.39,-0.59 0.54,-1.4 -2.46,0.17 -4.88,-0.06 -7.26,-0.69 -2.89,-1.04 -5.77,-2.11 -8.64,-3.23 -3.01,-0.28 -5.99,-0.71 -8.95,-1.3 -2.94,-1.02 -5.54,-2.6 -7.79,-4.74 1.42,-0.54 2.66,-0.24 3.72,0.89 2.14,0.67 4.24,1.44 6.31,2.3 0.49,-0.29 0.93,-0.64 1.33,-1.05 0.38,0.17 0.71,0.11 0.99,-0.17 -0.13,-0.73 -0.46,-1.36 -0.98,-1.9 -1.17,-0.74 -2.19,-1.64 -3.06,-2.7 0.05,-0.46 0.31,-0.74 0.77,-0.84 0.88,0.39 1.77,0.73 2.67,1.01 0.38,-0.33 0.52,-0.74 0.43,-1.23 -0.37,-0.79 -0.73,-1.57 -1.11,-2.36 0.33,-0.53 0.81,-0.69 1.45,-0.49 z m 0.81,40.48 c 2.96,-2.7 5.8,-5.51 8.52,-8.45 0.23,-0.34 0.21,-0.64 -0.06,-0.93 -0.5,0.04 -0.94,0.23 -1.32,0.55 -1.09,0.83 -2.08,1.76 -2.97,2.79 -0.55,-0.37 -0.7,-0.87 -0.47,-1.49 0.66,-0.4 1.2,-0.92 1.61,-1.55 -0.32,-0.49 -0.76,-0.58 -1.32,-0.29 -2.68,1.81 -4.81,4.13 -6.41,6.95 -0.55,1.12 -0.76,2.3 -0.63,3.54 0.17,0.16 0.34,0.32 0.51,0.48 1.14,-0.12 1.99,-0.65 2.54,-1.6 z"
       id="path20" />
  </g>
  <g
     id="g21"
     transform="translate(-153.32821,0.25853199)">
    <path
       fill="#f7f0dc"
       d="m 651.87,362.4 c -0.39,-0.13 -0.58,-0.4 -0.56,-0.82 0.07,-0.47 0.27,-0.88 0.59,-1.24 1.31,-1.4 2.69,-2.73 4.14,-3.98 0.89,-1.03 1.88,-1.96 2.97,-2.79 0.38,-0.32 0.82,-0.51 1.32,-0.55 0.27,0.29 0.29,0.59 0.06,0.93 -2.72,2.94 -5.56,5.75 -8.52,8.45 z"
       id="path21" />
  </g>
  <g
     id="g22"
     transform="translate(-153.32821,0.25853199)">
    <path
       fill="#dbbe91"
       d="m 656.04,356.36 c -1.45,1.25 -2.83,2.58 -4.14,3.98 -0.32,0.36 -0.52,0.77 -0.59,1.24 -0.02,0.42 0.17,0.69 0.56,0.82 -0.55,0.95 -1.4,1.48 -2.54,1.6 -0.17,-0.16 -0.34,-0.32 -0.51,-0.48 -0.13,-1.24 0.08,-2.42 0.63,-3.54 1.6,-2.82 3.73,-5.14 6.41,-6.95 0.56,-0.29 1,-0.2 1.32,0.29 -0.41,0.63 -0.95,1.15 -1.61,1.55 -0.23,0.62 -0.08,1.12 0.47,1.49 z"
       id="path22" />
  </g>
  <g
     id="g23"
     transform="translate(-153.32821,0.25853199)">
    <path
       fill="#f3ead9"
       d="m 576.96,335.81 c 0.41,0.12 0.81,0.25 1.21,0.37 -0.76,0.7 -1.68,1.06 -2.75,1.08 -1.27,0.21 -2.38,-0.09 -3.32,-0.91 0.11,-0.15 0.22,-0.3 0.33,-0.45 1.51,0.04 3.02,0.01 4.53,-0.09 z"
       id="path23" />
  </g>
  <g
     id="g24"
     transform="translate(-153.32821,0.25853199)">
    <path
       fill="#5a4a35"
       stroke="#5a4a35"
       stroke-width="0.5"
       d="m 879.31,157.86 c -0.12,-0.64 0.02,-1.2 0.41,-1.7 2.77,-0.44 5.54,-0.97 8.29,-1.59 2.25,-0.96 3.59,-2.65 4.04,-5.07 0.27,-2 0.48,-4 0.64,-6 -0.1,-33.27 -0.14,-66.54 -0.13,-99.8 -0.05,-2.43 -0.75,-4.63 -2.09,-6.61 -0.96,-0.73 -2.02,-1.27 -3.18,-1.62 -1.84,-0.3 -3.68,-0.56 -5.53,-0.79 -0.63,-0.52 -0.82,-1.18 -0.58,-1.97 0.79,-0.71 1.72,-1.14 2.8,-1.28 6.56,-1.39 13.09,-2.96 19.57,-4.69 1.28,0.44 1.76,1.36 1.45,2.75 -0.08,39.66 0.01,79.32 0.28,118.98 0.18,3.39 1.91,5.51 5.17,6.36 2.3,0.53 4.62,0.91 6.95,1.13 1.01,0.99 0.99,1.93 -0.07,2.84 -4.27,0.19 -8.54,0.14 -12.8,-0.16 -7.69,0.03 -15.37,0.12 -23.05,0.28 -0.99,0.13 -1.71,-0.23 -2.17,-1.06 z M 253.7,36.29 c -0.54,-0.09 -1,0.04 -1.4,0.39 0.11,0.36 0.37,0.5 0.76,0.41 -0.4,0.78 -0.89,1.49 -1.46,2.13 -0.53,-0.07 -0.97,0.09 -1.32,0.46 0.1,0.36 0.34,0.49 0.73,0.37 -1.11,1.74 -2.25,3.47 -3.41,5.18 -0.53,-0.07 -0.97,0.09 -1.33,0.46 0.12,0.37 0.37,0.5 0.77,0.38 -0.43,0.75 -0.88,1.48 -1.37,2.18 -0.54,-0.07 -1.01,0.07 -1.4,0.44 0.12,0.37 0.38,0.5 0.79,0.4 -0.44,0.75 -0.92,1.47 -1.45,2.16 -0.51,-0.09 -0.95,0.05 -1.32,0.41 0.1,0.35 0.34,0.48 0.73,0.39 -0.41,0.79 -0.9,1.51 -1.47,2.16 -0.53,-0.07 -0.96,0.1 -1.28,0.51 0.1,0.37 0.35,0.48 0.73,0.32 -0.44,0.75 -0.93,1.48 -1.47,2.17 -0.53,-0.09 -0.99,0.06 -1.36,0.45 0.13,0.37 0.4,0.49 0.81,0.37 -2.57,4.19 -5.33,8.27 -8.26,12.24 -0.56,-0.09 -1.04,0.06 -1.44,0.44 0.13,0.39 0.4,0.52 0.82,0.42 -17.91,26.9 -35.7,53.87 -53.4,80.92 -0.5,0.59 -0.53,1.16 -0.08,1.73 13.96,0.05 27.92,0.1 41.88,0.13 3.93,-0.16 7.86,-0.29 11.79,-0.4 3.08,-0.27 6.1,-0.84 9.06,-1.7 3.78,-1.15 7.05,-3.12 9.84,-5.91 4.47,-5.43 7.81,-11.5 10.03,-18.19 0.28,-0.52 0.71,-0.85 1.3,-0.97 1.29,-0.17 1.99,0.38 2.1,1.63 -1.95,9.95 -3.95,19.88 -6,29.79 -0.57,0.6 -1.27,0.85 -2.11,0.73 -31.98,0 -63.96,-0.01 -95.95,-0.02 -1.27,-0.21 -1.76,-0.96 -1.48,-2.24 0.66,-1.36 1.44,-2.64 2.37,-3.84 0.52,0.05 0.96,-0.11 1.31,-0.49 -0.12,-0.36 -0.38,-0.48 -0.78,-0.36 0.41,-0.76 0.87,-1.49 1.37,-2.2 0.52,0.06 0.97,-0.09 1.33,-0.46 -0.1,-0.35 -0.35,-0.48 -0.74,-0.37 1.75,-2.76 3.55,-5.49 5.39,-8.19 0.52,0.07 0.97,-0.07 1.36,-0.42 -0.12,-0.35 -0.37,-0.49 -0.77,-0.41 0.41,-0.75 0.86,-1.46 1.36,-2.15 0.53,0.13 0.98,0.01 1.35,-0.36 -0.05,-0.41 -0.29,-0.58 -0.73,-0.51 4.75,-7.43 9.61,-14.79 14.58,-22.08 0.5,0.06 0.92,-0.1 1.24,-0.47 -0.09,-0.35 -0.33,-0.46 -0.69,-0.34 0.43,-0.76 0.91,-1.49 1.43,-2.19 0.53,0.05 0.96,-0.11 1.3,-0.5 -0.11,-0.36 -0.36,-0.46 -0.75,-0.32 0.43,-0.77 0.92,-1.5 1.47,-2.18 0.78,0.08 1.19,-0.24 1.23,-0.95 -0.16,-0.04 -0.32,-0.07 -0.47,-0.11 5.03,-7.67 10.08,-15.33 15.15,-22.98 0.53,0.05 0.97,-0.12 1.33,-0.51 -0.12,-0.35 -0.37,-0.46 -0.76,-0.31 0.39,-0.78 0.86,-1.5 1.4,-2.17 0.54,0.06 0.99,-0.11 1.35,-0.5 -0.11,-0.37 -0.37,-0.48 -0.77,-0.35 0.43,-0.74 0.9,-1.46 1.4,-2.15 0.51,0.06 0.95,-0.09 1.31,-0.44 -0.1,-0.35 -0.34,-0.49 -0.71,-0.42 3.13,-4.71 6.25,-9.44 9.34,-14.18 0.53,0.07 0.99,-0.07 1.39,-0.41 -0.11,-0.35 -0.36,-0.49 -0.75,-0.42 5.01,-7.81 10.17,-15.52 15.48,-23.13 0.51,0.07 0.95,-0.07 1.33,-0.4 -0.12,-0.35 -0.37,-0.49 -0.76,-0.44 0.51,-0.63 0.75,-1.35 0.7,-2.16 -0.34,-0.33 -0.74,-0.46 -1.22,-0.39 -10.65,-0.06 -21.3,-0.07 -31.95,-0.03 -3.17,0.01 -6.33,0.14 -9.48,0.4 -1.15,-0.39 -2.33,-0.63 -3.56,-0.72 -0.12,-0.16 -0.24,-0.31 -0.37,-0.47 0.32,-0.46 0.76,-0.71 1.33,-0.75 15.07,-0.1 30.14,-0.16 45.21,-0.2 1.29,0.42 2.59,0.81 3.89,1.16 0.6,0.42 1.22,0.78 1.87,1.09 0.71,-0.64 1.48,-1.19 2.31,-1.65 0.77,0.14 1.54,0.22 2.31,0.23 0.61,-0.19 1.14,-0.52 1.57,-0.98 -1.33,-0.41 -2.7,-0.61 -4.12,-0.59 -9.98,0.15 -19.97,0.29 -29.95,0.43 -6,-0.26 -12,-0.43 -18.01,-0.52 -3.34,0.14 -6.67,0.34 -10,0.58 -1.67,-0.14 -3.34,-0.33 -5,-0.56 -0.89,-0.1 -1.66,0.13 -2.29,0.7 0.3,0.46 0.73,0.72 1.3,0.77 0.71,-0.01 1.42,0.07 2.11,0.22 -0.57,0.19 -1.06,0.5 -1.46,0.94 0.77,0.31 1.58,0.5 2.44,0.56 0.48,0.27 0.63,0.65 0.44,1.16 -6.31,1.87 -10.76,5.84 -13.36,11.92 -1.37,3.34 -2.8,6.64 -4.29,9.9 -0.68,0.56 -1.45,0.69 -2.31,0.39 -0.4,-0.38 -0.56,-0.84 -0.49,-1.39 1.27,-8.79 2.41,-17.6 3.42,-26.44 0.07,-0.52 0.33,-0.92 0.79,-1.18 4.21,0.37 8.45,0.58 12.7,0.63 24.33,-0.02 48.66,-0.09 72.99,-0.23 1.84,-0.03 2.59,0.85 2.25,2.62 -0.26,0.69 -0.61,1.33 -1.04,1.93 z m 419.37,-4.5 c -0.16,1.1 0.23,1.92 1.17,2.48 -3.22,0.75 -6.49,1.37 -9.8,1.86 -4.56,1.45 -6.23,4.51 -5.02,9.17 1.47,4.64 3.15,9.2 5.03,13.69 11.26,27.66 22.7,55.23 34.31,82.72 0.42,0.09 0.73,-0.06 0.93,-0.45 8.52,-21.53 17.07,-43.05 25.67,-64.56 2.63,-6.93 5.3,-13.84 8.02,-20.73 1.02,-2.77 1.87,-5.6 2.54,-8.48 0.35,-1.66 0.42,-3.32 0.22,-5 -0.52,-3.01 -2.21,-5.04 -5.1,-6.08 -3.06,-0.81 -6.16,-1.37 -9.29,-1.68 -0.17,-0.17 -0.33,-0.33 -0.5,-0.5 -0.43,-1.82 0.31,-2.65 2.23,-2.48 12.01,0.21 24.03,0.19 36.04,-0.04 0.65,-0.03 1.27,0.09 1.86,0.36 0.79,0.92 0.74,1.8 -0.15,2.64 -2.46,0.44 -4.87,1.06 -7.24,1.87 -3.99,1.55 -6.9,4.25 -8.76,8.09 -4.64,9.61 -8.92,19.38 -12.84,29.31 -11.58,28.11 -23.02,56.28 -34.33,84.5 -0.91,1.89 -2.42,2.62 -4.53,2.19 -1.45,0.09 -2.41,-0.55 -2.9,-1.91 -12.33,-29.6 -24.64,-59.21 -36.91,-88.82 -3.81,-8.88 -7.7,-17.72 -11.67,-26.53 -1.82,-3.66 -4.67,-6.12 -8.56,-7.36 -2.24,-0.53 -4.5,-0.96 -6.77,-1.29 -0.44,-0.32 -0.69,-0.75 -0.73,-1.29 0.21,-1.39 1.04,-1.94 2.49,-1.68 14.89,0.19 29.75,0.19 44.59,0 z M 415.68,48.25 c -2.09,-0.46 -2.89,0.36 -2.41,2.49 -3.66,1.85 -6.88,1.29 -9.69,-1.69 -2.25,-3.31 -2.18,-6.56 0.2,-9.77 3.22,-2.91 6.65,-3.16 10.27,-0.76 2.94,2.83 3.49,6.08 1.63,9.73 z M 300.73,154.71 c 0.15,-0.7 0.32,-1.4 0.52,-2.09 0.78,-0.72 1.52,-1.48 2.21,-2.31 0.83,0.37 1.51,0.92 2.06,1.66 0.2,0.51 0.16,1 -0.09,1.5 0.57,0.34 1.19,0.43 1.85,0.27 0.35,-0.43 0.74,-0.79 1.16,-1.1 0.92,0.69 1.92,1.17 3.03,1.44 0.45,-0.1 0.71,-0.38 0.77,-0.83 4.31,2.95 9.06,4.19 14.26,3.73 8.86,-0.95 15,-5.56 18.41,-13.82 1.71,-3.57 2.85,-7.3 3.43,-11.2 0.95,-5.34 1.24,-10.71 0.86,-16.11 -0.22,-8.78 -2.66,-16.87 -7.34,-24.28 -2.64,-4.11 -6.14,-7.27 -10.48,-9.47 -6.76,-2.77 -13.33,-2.38 -19.72,1.16 -6.15,4.03 -10.16,9.62 -12.03,16.77 -2.22,8.05 -2.79,16.2 -1.71,24.47 0.66,6.48 2.5,12.59 5.52,18.35 -0.35,0.46 -0.8,0.71 -1.36,0.73 -0.83,-0.49 -1.7,-0.9 -2.59,-1.24 -0.8,0.6 -1.71,0.88 -2.72,0.85 -0.67,1.19 -1.4,2.35 -2.19,3.47 -1.11,-0.85 -2.19,-1.71 -3.25,-2.59 -0.42,0.28 -0.61,0.67 -0.58,1.19 -4.68,-6.51 -7.26,-13.76 -7.76,-21.76 -1.02,-11.59 1.91,-22.08 8.77,-31.46 8,-10.46 18.58,-15.8 31.74,-16.02 13.9,-0.07 25.02,5.45 33.36,16.56 6.02,9.11 8.51,19.1 7.48,29.97 -1.26,13.75 -7.54,24.56 -18.86,32.42 -6.7,4.28 -14.01,6.36 -21.95,6.25 -8.19,-0.09 -15.79,-2.26 -22.8,-6.51 z M 447.02,85.99 c -0.47,-0.17 -0.76,-0.03 -0.88,0.41 0.17,0.48 0.51,0.77 1.01,0.85 -0.11,0.64 -0.29,1.25 -0.54,1.84 -0.5,1.71 -1.52,2.15 -3.05,1.35 -0.48,0.7 -0.98,1.38 -1.53,2.04 -0.5,0.11 -1.01,0.09 -1.53,-0.05 -0.42,0.15 -0.76,0.4 -1.03,0.75 -2.51,-7.23 -7.51,-11.57 -14.98,-13.02 -7.6,-0.27 -13.66,2.67 -18.19,8.82 -3.19,4.72 -5.07,9.91 -5.62,15.58 0.01,0.63 0.34,0.94 0.98,0.94 11.62,0 23.23,-0.01 34.85,-0.03 1.38,0.03 2.65,-0.33 3.81,-1.08 0.33,0.61 0.49,1.26 0.45,1.95 -0.3,0.49 -0.74,0.7 -1.32,0.62 -12.66,-0.26 -25.32,-0.24 -37.98,0.07 -0.55,0 -1,0.21 -1.36,0.61 -0.17,0.5 -0.01,0.86 0.47,1.09 17.85,0 35.7,0.13 53.55,0.4 -0.81,0.44 -1.69,0.63 -2.63,0.55 -17,-0.06 -33.98,0.01 -50.96,0.19 -0.47,0.41 -0.68,0.94 -0.63,1.57 0,2.36 -0.04,4.72 -0.13,7.08 0.58,9.21 3.89,17.29 9.91,24.25 -0.39,0.45 -0.56,0.98 -0.52,1.58 0.31,0.47 0.39,0.97 0.25,1.48 -1.33,0.68 -2.39,1.64 -3.2,2.89 -0.87,0.45 -1.75,0.88 -2.64,1.3 -0.51,0.59 -0.86,1.27 -1.05,2.03 -0.21,0.34 -0.19,0.66 0.04,0.97 1.53,1.09 3.16,2.01 4.88,2.76 1.27,-0.57 2.6,-0.86 4,-0.85 1.11,-1.29 2.27,-2.55 3.48,-3.77 -0.02,-0.65 -0.14,-1.28 -0.34,-1.89 0.98,0.15 1.91,0.46 2.79,0.93 1.02,0.14 1.95,-0.08 2.8,-0.64 3.85,1.26 7.8,1.72 11.84,1.38 -0.08,0.4 -0.3,0.71 -0.66,0.91 -1.11,0.09 -2.16,0.34 -3.16,0.77 1.03,0.46 2.14,0.58 3.31,0.36 2.67,-0.62 5.34,-1.27 8.01,-1.94 1.86,-0.37 3.3,-1.33 4.32,-2.89 -0.02,-0.25 -0.04,-0.51 -0.06,-0.76 2.06,-1.29 3.93,-2.81 5.59,-4.58 1.85,-2.16 3.6,-4.37 5.26,-6.64 1.34,-0.13 1.96,0.49 1.86,1.85 -0.48,1.51 -1.08,2.97 -1.79,4.39 -5.82,10.31 -14.55,16.48 -26.2,18.49 -10.17,1.24 -19.35,-1.21 -27.55,-7.34 -8.73,-7.51 -13.4,-17.02 -14.04,-28.52 0.68,-0.26 1.04,-0.77 1.11,-1.51 0.02,-2.01 0.06,-4.02 0.11,-6.03 0.78,-2.61 1.03,-5.28 0.77,-7.98 -0.19,-0.41 -0.51,-0.59 -0.95,-0.53 0.58,-2.81 1.44,-5.54 2.55,-8.19 0.21,0.88 0.68,1.09 1.41,0.65 1.26,-3.29 2.94,-6.37 5.03,-9.22 0.34,-0.96 0.02,-1.38 -0.96,-1.26 6.24,-8.87 14.75,-13.79 25.52,-14.78 10.15,-0.96 18.65,2.3 25.52,9.8 z m 338.22,62.13 c 0.26,-2.53 0.4,-5.07 0.43,-7.62 -0.01,-15 -0.02,-30 -0.03,-45.01 0.03,-1.87 -0.18,-3.71 -0.63,-5.52 0.82,-0.4 1.52,-0.26 2.1,0.41 -0.01,0.86 0.12,1.67 0.4,2.44 0.55,-0.66 0.74,-1.43 0.59,-2.3 -0.31,-0.98 -0.56,-1.96 -0.77,-2.95 0.61,-1.99 1.14,-4 1.58,-6.02 -1.04,-0.43 -2.15,-0.66 -3.33,-0.68 -0.35,-0.26 -0.56,-0.6 -0.64,-1.02 3.6,-1.12 7.19,-2.28 10.76,-3.49 0.78,-0.29 1.48,-0.18 2.1,0.34 0.3,0.91 0.41,1.84 0.36,2.8 -0.02,21.33 -0.03,42.67 -0.02,64 -0.03,2.95 0.41,5.82 1.34,8.6 0.98,1.41 2.31,2.32 3.98,2.73 2.29,0.43 4.59,0.8 6.89,1.11 0.7,0.67 0.88,1.47 0.53,2.39 -0.36,0.43 -0.82,0.62 -1.39,0.58 -10.33,-0.27 -20.66,-0.25 -31,0.07 -1.86,-0.24 -3.73,-0.37 -5.6,-0.37 -0.6,-0.72 -0.64,-1.46 -0.13,-2.21 2.58,-0.45 5.14,-0.99 7.7,-1.62 3.14,-1.08 4.74,-3.3 4.78,-6.66 z M 1093,85.7 c -0.4,-0.43 -0.89,-0.66 -1.48,-0.71 -3.32,0.05 -6.64,0.05 -9.95,0 -2.59,-1.05 -5.27,-1.37 -8.05,-0.99 -1.23,0.31 -2.39,0.81 -3.47,1.49 -0.93,1.35 -1.78,2.74 -2.56,4.18 -0.4,-0.04 -0.72,-0.24 -0.94,-0.59 -0.98,-1.7 -2,-3.36 -3.07,-5 -0.04,-0.18 -0.08,-0.36 -0.12,-0.54 0.41,-0.36 0.83,-0.71 1.26,-1.06 0,-0.42 -0.19,-0.73 -0.57,-0.93 -3.23,-0.55 -6.42,-1.39 -9.56,-2.53 -1.13,-0.21 -1.97,0.18 -2.53,1.16 -0.98,-0.09 -1.96,-0.09 -2.94,-0.01 -0.12,-0.39 -0.36,-0.69 -0.71,-0.91 -1.15,-0.17 -2.28,-0.41 -3.4,-0.72 -0.46,-0.46 -0.77,-1.02 -0.93,-1.66 9.04,-1.76 17.57,-0.36 25.58,4.2 2.98,0.28 5.96,0.24 8.95,-0.1 5,-0.85 10.02,-1.58 15.04,-2.18 0.68,0.76 0.93,1.66 0.76,2.7 -0.06,1.01 -0.22,2.01 -0.45,3 -0.07,0.6 -0.35,0.99 -0.86,1.2 z m 69.12,-1.83 c -0.52,-0.09 -0.9,0.09 -1.15,0.54 0.9,1.73 2.06,3.28 3.47,4.65 1.24,2.15 2.42,4.32 3.54,6.54 1.05,3.22 1.46,6.53 1.22,9.92 0.09,0.66 0.25,1.3 0.5,1.92 -0.65,0.44 -1.38,0.61 -2.19,0.53 -7.32,-0.36 -14.64,-0.3 -21.96,0.18 -6.67,-0.35 -13.34,-0.33 -20,0.05 -2.5,-0.03 -4.99,-0.17 -7.47,-0.41 -0.09,-0.3 -0.29,-0.47 -0.6,-0.49 -0.48,0.2 -0.96,0.26 -1.46,0.17 -1.54,-0.82 -3.11,-1.58 -4.7,-2.28 -1.29,0.02 -2.32,0.54 -3.09,1.56 -0.07,0.94 -0.11,1.88 -0.14,2.82 -0.46,0.96 -0.79,1.95 -1,2.98 -0.16,5.99 -0.16,11.99 0.02,17.99 0.45,2.17 1.24,4.21 2.38,6.09 0.31,-1.49 0.76,-2.95 1.34,-4.38 1.46,-1.14 2.83,-2.38 4.13,-3.73 0.36,-0.21 0.72,-0.21 1.09,0.01 0.48,0.71 0.97,1.41 1.46,2.11 0.32,-0.95 0.51,-1.96 0.59,-3 0.2,-0.34 0.48,-0.55 0.86,-0.65 2.25,10.82 8.4,18.45 18.46,22.88 7.08,2.36 14.03,2.05 20.87,-0.94 2.23,-1.08 4.27,-2.45 6.1,-4.12 1.89,-2.04 3.75,-4.11 5.57,-6.2 0.28,-0.68 0.6,-1.33 0.98,-1.93 1.31,-0.19 1.89,0.36 1.76,1.64 -0.74,1.55 -1.4,3.13 -1.98,4.77 -4.55,7.92 -11.1,13.45 -19.66,16.57 -7.02,1.97 -14.03,1.95 -21.04,-0.06 -10.39,-3.38 -17.72,-10.11 -21.99,-20.19 -3.4,-9.34 -4.27,-18.91 -2.61,-28.72 2.14,-12.26 8.23,-22.06 18.26,-29.38 6.04,-3.89 12.66,-5.57 19.84,-5.03 7.13,0.26 13.33,2.79 18.6,7.59 z m -183,-4.96 c 2.65,1.41 4.86,3.32 6.63,5.73 2.87,4.53 4.15,9.48 3.85,14.85 0.06,15.01 0.07,30.01 0.02,45.01 0,1.66 0.23,3.28 0.71,4.86 1.51,3.56 4.07,4.6 7.67,3.12 1.54,-0.88 3.06,-1.75 4.57,-2.63 0.86,0.17 1.25,0.69 1.17,1.57 -0.72,1.44 -1.71,2.7 -2.96,3.77 -3.71,3.55 -8.13,5.38 -13.24,5.48 -4.34,-0.44 -7.35,-2.66 -9.03,-6.66 -0.48,-1.66 -0.91,-3.33 -1.31,-4.99 -0.21,-0.05 -0.43,-0.09 -0.64,-0.14 -0.79,0.56 -1.56,1.16 -2.29,1.8 -0.25,-0.98 -0.87,-1.58 -1.86,-1.78 -0.16,-0.35 -0.15,-0.69 0.02,-1.03 1.41,-1.21 2.78,-2.47 4.09,-3.79 0.35,-0.46 0.57,-0.98 0.69,-1.55 0,-8.01 0.02,-16.04 0.06,-24.06 0.02,-0.63 -0.11,-1.22 -0.39,-1.78 -0.26,-0.31 -0.57,-0.38 -0.94,-0.21 -4.7,1.69 -9.34,3.53 -13.92,5.52 -0.32,-0.57 -0.82,-0.87 -1.49,-0.91 -1.31,0.11 -2.59,0.03 -3.86,-0.23 -0.33,-0.23 -0.57,-0.52 -0.72,-0.88 5.82,-2.04 11.61,-4.15 17.38,-6.31 1.07,-0.49 2.09,-1.07 3.05,-1.76 0.68,-1.02 1.02,-2.14 1,-3.38 0.02,-4.52 -0.1,-9.03 -0.38,-13.54 0.43,-0.11 0.69,0.05 0.77,0.49 -0.12,5.03 -0.16,10.07 -0.12,15.11 0.48,1.77 0.99,1.77 1.51,-0.01 -0.16,-4.71 -0.16,-9.43 0,-14.15 -0.47,-2.69 -1.21,-5.31 -2.24,-7.86 -2.55,-4.47 -6.29,-7.47 -11.2,-8.99 -1.46,-0.15 -2.91,-0.29 -4.36,-0.42 -1.51,-0.5 -1.52,-0.99 -0.04,-1.48 2.07,0 4.14,-0.02 6.21,-0.06 3.38,0.65 6.72,1.43 10.03,2.35 0.94,0.2 1.46,-0.16 1.56,-1.06 z m -29.26,10.1 c -0.21,2.17 -0.43,4.34 -0.69,6.5 -0.18,1.09 -0.62,2.06 -1.31,2.92 -1.76,1.71 -3.87,2.5 -6.34,2.36 -2.86,-0.04 -4.49,-1.46 -4.88,-4.26 0.25,-4.2 1.96,-7.71 5.12,-10.53 0.04,0.91 0.47,1.14 1.29,0.72 1.68,-1.04 3.25,-2.2 4.73,-3.5 2.03,-0.88 3.96,-1.95 5.76,-3.21 0.89,-0.09 1.14,0.26 0.78,1.05 -1.64,1.21 -3.19,2.53 -4.65,3.95 -0.37,0.71 -0.75,1.41 -1.15,2.1 -0.24,0.31 -0.25,0.63 -0.02,0.96 0.36,0.44 0.81,0.75 1.36,0.94 z m 168.43,15.87 c 0.57,0.67 1.32,0.94 2.24,0.81 11.74,-0.03 23.47,-0.11 35.2,-0.24 0.88,-0.04 1.56,-0.42 2.05,-1.13 1.01,-7.99 -1.42,-14.74 -7.29,-20.26 -5.01,-4.02 -10.52,-4.92 -16.53,-2.71 -5.17,1.99 -9.05,5.44 -11.64,10.35 -2.26,4.12 -3.6,8.51 -4.03,13.18 z M 977.6,133.05 c 0.22,3.19 0.33,6.38 0.33,9.57 -0.01,0.43 0.12,0.79 0.4,1.08 0.42,-0.65 0.61,-1.37 0.58,-2.16 0.01,-3.35 0.04,-6.69 0.09,-10.04 -0.19,-5.12 -0.39,-10.22 -0.61,-15.3 -0.31,0.37 -0.48,0.8 -0.51,1.29 0.11,5.19 0.02,10.38 -0.28,15.56 z"
       id="path24" />
  </g>
  <g
     id="g25"
     transform="translate(-153.32821,0.25853199)">
    <path
       fill="#f8f1e7"
       stroke="#f8f1e7"
       stroke-width="0.5"
       d="m 1118.29,104.88 c 0.63,-6.19 2.78,-11.79 6.45,-16.82 4.04,-5.06 9.29,-7.7 15.76,-7.92 7.97,0.98 13.34,5.25 16.12,12.82 1.41,3.69 1.8,7.47 1.16,11.36 -0.49,0.71 -1.17,1.09 -2.05,1.13 -11.73,0.13 -23.46,0.21 -35.2,0.24 -0.92,0.13 -1.67,-0.14 -2.24,-0.81 z"
       id="path25" />
  </g>
  <g
     id="g26"
     transform="translate(-153.32821,0.25853199)">
    <path
       fill="#5b4b36"
       stroke="#5b4b36"
       stroke-width="0.5"
       d="m 828.31,157.03 c 0.12,-0.64 0.5,-1.02 1.15,-1.15 2.79,-0.36 5.54,-0.87 8.27,-1.55 1.15,-0.45 2.05,-1.21 2.7,-2.28 0.75,-1.78 1.14,-3.64 1.18,-5.58 0.06,-3.99 0.15,-7.98 0.27,-11.97 -0.02,-30.6 -0.13,-61.19 -0.33,-91.79 0.01,-3.11 -1.39,-5.27 -4.2,-6.5 -2.19,-0.61 -4.41,-1.1 -6.65,-1.45 -0.72,-0.54 -0.78,-1.12 -0.17,-1.74 6.34,-2.37 12.71,-4.64 19.12,-6.82 3.06,-0.92 4.6,0.19 4.62,3.32 -0.3,39.35 -0.3,78.69 0.01,118.03 0,2.43 0.86,4.48 2.57,6.15 0.78,0.57 1.65,0.95 2.61,1.13 2.29,0.47 4.59,0.9 6.9,1.27 0.94,1.35 0.64,2.28 -0.89,2.78 -11.66,-0.3 -23.32,-0.28 -34.98,0.06 -1.52,0.23 -2.24,-0.41 -2.18,-1.91 z m 215.67,-80.15 c 0.16,0.64 0.47,1.2 0.93,1.66 1.12,0.31 2.25,0.55 3.4,0.72 0.35,0.22 0.59,0.52 0.71,0.91 -6.75,1.24 -11.37,5.06 -13.86,11.47 -2.57,7.93 -2.67,15.9 -0.29,23.9 1.96,6.63 6.18,11.08 12.65,13.37 5.15,1.35 9.81,0.38 13.98,-2.9 4.11,-4.28 6.41,-9.39 6.91,-15.33 1.1,-8.23 -0.41,-15.94 -4.52,-23.13 -2.87,-4.24 -6.85,-6.7 -11.93,-7.37 0.56,-0.98 1.4,-1.37 2.53,-1.16 3.14,1.14 6.33,1.98 9.56,2.53 0.38,0.2 0.57,0.51 0.57,0.93 -0.43,0.35 -0.85,0.7 -1.26,1.06 0.04,0.18 0.08,0.36 0.12,0.54 1.07,1.64 2.09,3.3 3.07,5 0.22,0.35 0.54,0.55 0.94,0.59 0.78,-1.44 1.63,-2.83 2.56,-4.18 1.08,-0.68 2.24,-1.18 3.47,-1.49 2.78,-0.38 5.46,-0.06 8.05,0.99 3.31,0.05 6.63,0.05 9.95,0 0.59,0.05 1.08,0.28 1.48,0.71 -0.06,0.39 -0.27,0.69 -0.64,0.87 -2.94,0.29 -5.89,0.36 -8.86,0.22 -2.34,-0.38 -4.69,-0.65 -7.05,-0.82 -1.31,0.13 -1.57,0.73 -0.79,1.82 -0.28,0.7 -0.04,0.97 0.71,0.81 3.72,5.02 5.56,10.65 5.54,16.9 -0.96,11.2 -6.43,19.35 -16.42,24.47 -7.38,3.39 -15.04,4.25 -22.99,2.56 -3.59,1.29 -6.72,3.29 -9.41,6.02 -1.42,1.67 -2.03,3.6 -1.83,5.78 0.72,2.48 2.3,4.16 4.74,5.05 3.08,1.02 6.25,1.54 9.5,1.57 5.32,0.29 10.64,0.42 15.97,0.39 3.01,0.26 6.01,0.52 9.02,0.8 2.93,0.48 5.78,1.23 8.57,2.24 7.47,2.84 11.77,8.22 12.89,16.12 0.48,8.44 -2.32,15.62 -8.42,21.53 -5.86,5.17 -12.59,8.74 -20.17,10.73 -10.79,2.49 -21.56,2.41 -32.32,-0.24 -3.98,-1.03 -7.57,-2.82 -10.79,-5.35 -4.6,-3.84 -6.7,-8.74 -6.28,-14.71 1.07,-6 4.07,-10.84 8.97,-14.5 -0.14,0.4 -0.04,0.66 0.31,0.79 0.37,-0.42 0.53,-0.92 0.48,-1.48 2.71,-1.86 5.34,-3.79 7.87,-5.82 0.08,-0.4 -0.08,-0.67 -0.47,-0.81 -5.59,-1.73 -8.92,-5.44 -9.98,-11.15 -0.15,-4.15 1.41,-7.52 4.67,-10.13 3.28,-2.74 6.74,-5.2 10.41,-7.39 0.42,-0.3 0.59,-0.71 0.51,-1.21 -1.51,-0.75 -2.97,-1.58 -4.4,-2.49 -7.12,-4.69 -11.16,-11.29 -12.12,-19.8 -0.79,-9.36 2.12,-17.36 8.73,-24.02 4.28,-3.99 9.29,-6.51 15.03,-7.57 z m -488.86,2.95 c 0.51,0.81 0.79,1.69 0.85,2.64 -0.1,3.63 0.07,7.24 0.5,10.84 -0.22,1.57 -0.24,3.13 -0.06,4.69 -0.72,0.77 -1.49,0.84 -2.31,0.2 -1.23,-2.7 -2.39,-5.44 -3.47,-8.24 -2.1,-4.2 -5.31,-7.19 -9.65,-8.96 0.36,-0.77 0.19,-1.4 -0.51,-1.88 -2.93,-0.56 -2.93,-0.88 -0.01,-0.98 3,0.75 6.01,1.37 9.05,1.87 1.75,-0.21 3.43,0.02 5.04,0.71 0.35,-0.18 0.54,-0.48 0.57,-0.89 z m 562.96,27.96 c 0,0.94 0.48,1.47 1.44,1.57 8.65,-0.08 17.3,-0.17 25.94,-0.28 8.13,0.14 16.23,0.28 24.31,0.39 -1.06,0.31 -2.15,0.45 -3.26,0.45 -15.98,-0.23 -31.95,-0.18 -47.92,0.15 -0.5,0.32 -0.75,0.78 -0.74,1.39 -0.54,5.24 -0.17,10.42 1.11,15.53 -0.38,0.1 -0.66,0.31 -0.86,0.65 -0.08,1.04 -0.27,2.05 -0.59,3 -0.49,-0.7 -0.98,-1.4 -1.46,-2.11 -0.37,-0.22 -0.73,-0.22 -1.09,-0.01 -1.3,1.35 -2.67,2.59 -4.13,3.73 -0.58,1.43 -1.03,2.89 -1.34,4.38 -1.14,-1.88 -1.93,-3.92 -2.38,-6.09 -0.18,-6 -0.18,-12 -0.02,-17.99 0.21,-1.03 0.54,-2.02 1,-2.98 0.03,-0.94 0.07,-1.88 0.14,-2.82 0.77,-1.02 1.8,-1.54 3.09,-1.56 1.59,0.7 3.16,1.46 4.7,2.28 0.5,0.09 0.98,0.03 1.46,-0.17 0.31,0.02 0.51,0.19 0.6,0.49 z m -162.13,12.19 c 0.15,0.36 0.39,0.65 0.72,0.88 1.27,0.26 2.55,0.34 3.86,0.23 0.67,0.04 1.17,0.34 1.49,0.91 -5.11,1.79 -9.36,4.78 -12.75,8.96 -3.19,4.99 -3.66,10.21 -1.41,15.67 2.34,4.12 5.89,6.26 10.64,6.42 3.32,0.03 6.47,-0.73 9.43,-2.25 -0.03,0.43 0.16,0.69 0.56,0.79 0.34,-0.34 0.43,-0.76 0.25,-1.23 0.75,-0.46 1.51,-0.92 2.27,-1.37 -0.17,0.51 0,0.8 0.51,0.88 0.53,-0.12 0.82,-0.44 0.89,-0.97 0.99,0.2 1.61,0.8 1.86,1.78 -1.81,1.58 -3.69,3.07 -5.64,4.47 -6.23,4.78 -13.22,6.64 -20.97,5.57 -9.54,-2.32 -14.34,-8.39 -14.39,-18.22 0.35,-7.11 3.57,-12.54 9.65,-16.29 4.13,-2.52 8.48,-4.6 13.03,-6.23 z m 68.68,58.97 c -0.08,7.72 3.37,13.25 10.37,16.57 4.59,2.22 9.43,3.49 14.52,3.82 6.68,0.33 13.17,-0.61 19.46,-2.83 5.85,-2.4 10.13,-6.45 12.83,-12.15 1.98,-4.98 1.36,-9.6 -1.86,-13.86 -2.2,-2.37 -4.84,-4.08 -7.92,-5.11 -2.17,-0.44 -4.35,-0.87 -6.53,-1.28 -8.96,-0.49 -17.92,-1.06 -26.87,-1.73 -4.14,1.42 -7.56,3.86 -10.27,7.32 -2.07,2.74 -3.31,5.83 -3.73,9.25 z"
       id="path26" />
  </g>
  <g
     id="g27"
     transform="translate(-153.32821,0.25853199)">
    <path
       fill="#52422e"
       d="m 316.15,248 c -0.03,-5.79 2.48,-10.06 7.53,-12.82 5.58,-2.12 10.65,-1.27 15.21,2.57 2.58,2.73 3.9,5.98 3.96,9.75 -0.5,8.41 -4.95,12.94 -13.35,13.59 -5.35,-0.03 -9.34,-2.39 -11.96,-7.07 -0.77,-1.93 -1.24,-3.94 -1.39,-6.02 z m 163.08,6.06 c -0.08,-1.49 0.27,-2.87 1.05,-4.15 1.12,-1.53 2.47,-2.83 4.03,-3.89 -0.66,-1.78 -1.2,-3.61 -1.61,-5.5 -0.12,-3.12 1.3,-5.15 4.26,-6.12 3.06,-0.8 5.56,0.04 7.51,2.52 1.17,2.3 1.01,4.51 -0.46,6.64 -0.94,1.07 -2.04,1.94 -3.32,2.6 -0.32,0.29 -0.4,0.63 -0.21,1.02 1.61,1.75 3.25,3.48 4.91,5.18 0.34,0.02 0.6,-0.12 0.77,-0.42 0.79,-1.61 1.67,-3.15 2.63,-4.63 1.81,-0.47 2.49,0.21 2.03,2.03 -0.77,1.81 -1.63,3.58 -2.57,5.29 0.02,0.49 0.2,0.91 0.53,1.26 0.96,1.01 1.95,2 2.96,2.95 0.54,0.78 0.42,1.41 -0.38,1.89 -1.87,0.19 -3.34,-0.5 -4.42,-2.06 -0.37,-0.32 -0.79,-0.45 -1.28,-0.4 -1.61,1.15 -3.39,1.98 -5.31,2.5 -3.83,1.03 -7.09,0.12 -9.8,-2.72 -0.91,-1.18 -1.36,-2.5 -1.32,-3.99 z m 87.01,-7 c 0.59,-7.02 4.31,-11.32 11.17,-12.89 4.9,-0.65 9.05,0.82 12.46,4.41 3.41,4.53 4.1,9.48 2.08,14.83 -2.57,5.08 -6.72,7.64 -12.45,7.68 -5.79,-0.05 -9.84,-2.73 -12.14,-8.03 -0.65,-1.95 -1.02,-3.95 -1.12,-6 z m 329.02,0.93 c 0.04,-4.79 1.91,-8.71 5.6,-11.75 4.85,-2.8 9.72,-2.86 14.63,-0.17 1.07,0.64 1.9,1.49 2.51,2.56 -0.02,1.46 -0.77,2.14 -2.26,2.05 -0.74,-0.59 -1.45,-1.22 -2.14,-1.89 -2.42,-1.69 -5.05,-2.12 -7.9,-1.28 -4.84,2.05 -7.07,5.72 -6.67,11 0.65,6.29 4.14,9.46 10.48,9.5 2.52,-0.37 4.66,-1.49 6.41,-3.37 1.93,-0.11 2.57,0.76 1.92,2.59 -3.98,3.69 -8.6,4.76 -13.84,3.22 -5.54,-2.29 -8.45,-6.44 -8.74,-12.46 z m 35.15,11.96 c 3.17,-8.16 6.45,-16.27 9.83,-24.34 0.9,-1.27 2.07,-1.55 3.51,-0.83 2.19,4.53 4.28,9.12 6.27,13.78 1.28,3.38 2.61,6.73 4.01,10.06 0.55,1.47 0.07,2.18 -1.45,2.15 -0.49,-0.07 -0.91,-0.27 -1.28,-0.59 -0.92,-1.76 -1.77,-3.56 -2.55,-5.39 -0.6,-0.64 -1.34,-0.92 -2.23,-0.86 -3.29,-0.03 -6.57,0.06 -9.84,0.27 -0.48,0.23 -0.79,0.6 -0.95,1.1 -0.58,1.67 -1.3,3.27 -2.17,4.8 -0.56,0.51 -1.22,0.71 -1.98,0.6 -0.58,0.01 -0.96,-0.24 -1.17,-0.75 z M 968.73,236 c 0.04,-0.74 0.38,-1.27 1.03,-1.58 4.24,-0.21 8.44,0.09 12.59,0.91 3.71,1.9 5.13,4.89 4.23,8.97 -0.36,1.11 -0.92,2.12 -1.67,3.01 -1.11,0.85 -2.25,1.63 -3.43,2.34 1.93,3.4 3.98,6.74 6.15,10.02 0.16,0.44 0.04,0.76 -0.38,0.97 -1.06,0.25 -2.07,0.13 -3.03,-0.38 -2.34,-3.03 -4.48,-6.2 -6.43,-9.51 -0.93,-0.83 -2.04,-1.16 -3.31,-0.98 -0.95,-0.13 -1.71,0.16 -2.28,0.87 0.07,3.24 -0.06,6.46 -0.38,9.66 -0.9,0.8 -1.81,0.82 -2.74,0.06 -0.25,-0.58 -0.36,-1.2 -0.33,-1.84 0.11,-7.51 0.11,-15.01 -0.02,-22.52 z M 319.7,247 c 0.07,6.56 3.34,10.24 9.8,11.04 4.25,-0.13 7.22,-2.16 8.9,-6.07 1.54,-4.32 0.89,-8.27 -1.94,-11.86 -2.98,-2.91 -6.45,-3.72 -10.4,-2.44 -4.02,1.8 -6.14,4.91 -6.36,9.33 z m 165.88,-7 c 0.21,1.55 0.89,2.84 2.03,3.86 1.6,0.15 2.85,-0.46 3.77,-1.84 1.01,-1.59 0.9,-3.1 -0.33,-4.53 -2.8,-1.26 -4.62,-0.42 -5.47,2.51 z m 84.33,8 c 0.17,4.46 2.3,7.6 6.38,9.41 5.57,1.57 9.68,-0.22 12.34,-5.36 1.54,-4.41 0.82,-8.41 -2.17,-12.01 -3.22,-2.99 -6.88,-3.68 -10.97,-2.08 -3.68,2.32 -5.54,5.67 -5.58,10.04 z M 972,244 c -0.18,1.04 0.06,1.95 0.73,2.72 2.2,0.21 4.39,0.18 6.58,-0.09 3.1,-0.92 4.33,-2.96 3.7,-6.13 -0.59,-1.4 -1.61,-2.35 -3.05,-2.87 -2.38,-0.42 -4.77,-0.5 -7.18,-0.24 -0.44,0.24 -0.68,0.61 -0.72,1.13 -0.05,1.83 -0.08,3.65 -0.06,5.48 z m -34.2,6.06 c 0.31,0.71 0.86,1.04 1.66,1 2.02,-0.02 4.05,-0.04 6.07,-0.06 0.55,0.03 0.96,-0.19 1.23,-0.64 -1.08,-3.05 -2.22,-6.09 -3.43,-9.11 -0.43,-1.37 -1.06,-1.52 -1.89,-0.46 -1.26,3.07 -2.48,6.16 -3.64,9.27 z m -598.48,1.62 c 0.82,-0.48 1.35,-1.18 1.61,-2.09 0.07,-1.07 0.12,-2.13 0.16,-3.2 0.02,-0.51 -0.15,-0.91 -0.53,-1.22 -0.48,2.14 -0.89,4.31 -1.24,6.51 z M 482.5,254 c 0.39,2.3 1.72,3.66 3.98,4.09 2.63,0.42 4.89,-0.3 6.79,-2.16 0.1,-0.52 -0.03,-0.98 -0.39,-1.38 -1.87,-2.03 -3.8,-4.01 -5.78,-5.93 -2.12,0.43 -3.57,1.66 -4.35,3.7 -0.2,0.54 -0.28,1.1 -0.25,1.68 z"
       id="path27" />
  </g>
  <g
     id="g28"
     transform="translate(-153.32821,0.25853199)">
    <path
       fill="#564631"
       d="m 1162.12,83.87 c 5.94,5.98 9.02,13.19 9.23,21.63 0.21,1.65 -0.31,2.98 -1.58,3.97 -8.08,-0.11 -16.18,-0.25 -24.31,-0.39 -8.64,0.11 -17.29,0.2 -25.94,0.28 -0.96,-0.1 -1.44,-0.63 -1.44,-1.57 2.48,0.24 4.97,0.38 7.47,0.41 6.66,-0.38 13.33,-0.4 20,-0.05 7.32,-0.48 14.64,-0.54 21.96,-0.18 0.81,0.08 1.54,-0.09 2.19,-0.53 -0.25,-0.62 -0.41,-1.26 -0.5,-1.92 0.24,-3.39 -0.17,-6.7 -1.22,-9.92 -1.12,-2.22 -2.3,-4.39 -3.54,-6.54 -1.41,-1.37 -2.57,-2.92 -3.47,-4.65 0.25,-0.45 0.63,-0.63 1.15,-0.54 z M 360.74,259.08 c 0.63,-0.98 1.46,-1.75 2.48,-2.32 1.57,1.17 3.34,1.66 5.3,1.46 4.07,-0.92 6.1,-3.49 6.09,-7.72 -0.04,-5.02 -0.02,-10.04 0.05,-15.05 0.27,-0.88 0.87,-1.27 1.78,-1.17 0.81,0.06 1.27,0.48 1.41,1.27 0.04,4.98 0.08,9.97 0.12,14.95 0.15,4.72 -1.92,8.01 -6.2,9.87 -3.89,1.29 -7.57,0.87 -11.03,-1.29 z m 62.22,0.91 c 3.14,-8.25 6.46,-16.42 9.99,-24.52 0.78,-1.07 1.82,-1.37 3.11,-0.9 0.41,0.21 0.71,0.53 0.9,0.96 3.23,7.82 6.49,15.63 9.8,23.42 0.43,1.21 0.01,1.82 -1.26,1.83 -0.52,-0.05 -1.02,-0.18 -1.49,-0.4 -1.06,-1.92 -2.04,-3.9 -2.94,-5.95 -0.78,-0.48 -1.63,-0.68 -2.55,-0.6 -3.26,-0.13 -6.48,0.05 -9.67,0.53 -0.87,2.04 -1.85,4.02 -2.94,5.95 -1.11,0.68 -2.09,0.58 -2.95,-0.32 z M 798.53,237 c -0.25,-2.06 0.59,-2.88 2.54,-2.45 0.42,0.21 0.66,0.56 0.71,1.03 -0.13,5.31 -0.08,10.62 0.17,15.93 0.8,4.84 3.65,6.98 8.54,6.42 3.29,-0.87 5.07,-3.01 5.34,-6.42 -0.16,-5.34 -0.11,-10.68 0.16,-16.01 0.07,-0.49 0.33,-0.83 0.78,-1.01 0.68,-0.12 1.3,0 1.88,0.35 0.35,2.86 0.54,5.74 0.55,8.65 0.06,3.01 -0.01,6.01 -0.21,9.02 -0.34,4.25 -2.56,6.98 -6.66,8.18 -4.44,1.22 -8.33,0.28 -11.68,-2.81 -1.14,-1.26 -1.81,-2.74 -2.01,-4.44 -0.05,-5.48 -0.09,-10.96 -0.11,-16.44 z m 219.35,-2.33 c 1.25,1.08 1.14,1.93 -0.34,2.54 -3.6,0.1 -7.2,0.15 -10.81,0.15 -0.5,0.2 -0.77,0.58 -0.81,1.12 -0.03,2.04 -0.07,4.07 -0.12,6.11 0.04,0.58 0.31,1 0.83,1.26 3.47,0.19 6.93,0.12 10.39,-0.19 0,0.44 0,0.88 0,1.32 -3.2,-0.04 -6.39,-0.09 -9.59,-0.15 -1.62,0.4 -1.62,0.75 0.02,1.06 2.69,0.04 5.38,0.14 8.07,0.31 0.51,0 0.97,-0.13 1.39,-0.4 -1.04,0.6 -2.17,0.9 -3.41,0.9 -2.35,-0.03 -4.69,0.02 -7.02,0.15 -0.51,0.41 -0.77,0.95 -0.77,1.61 0.11,2.02 0.2,4.03 0.25,6.05 0.03,0.54 0.29,0.92 0.77,1.14 3.91,0.08 7.81,0.2 11.7,0.36 0.96,1.39 0.63,2.27 -0.99,2.65 -4.83,-0.03 -9.64,-0.11 -14.44,-0.23 -0.35,-0.42 -0.52,-0.92 -0.5,-1.48 0.15,-7.5 0.17,-14.99 0.04,-22.49 -0.02,-0.93 0.38,-1.6 1.2,-2 4.71,-0.06 9.42,0.01 14.14,0.21 z m -587.69,16.14 c 2.77,0.17 5.55,0.23 8.33,0.2 0.48,-0.02 0.86,-0.22 1.14,-0.59 -1.54,-3.64 -3.04,-7.29 -4.48,-10.96 -0.36,-0.18 -0.64,-0.1 -0.87,0.22 -1.39,3.72 -2.76,7.42 -4.12,11.13 z"
       id="path28" />
  </g>
  <g
     id="g29"
     transform="translate(-153.32821,0.25853199)">
    <path
       fill="#52422d"
       d="m 536.01,237 c -0.23,-1.31 0.25,-2.16 1.45,-2.55 3.7,-0.06 7.37,0.12 11.04,0.53 3.16,1.04 5,3.21 5.51,6.52 0.26,4.7 -1.9,7.56 -6.49,8.59 -2.51,0.08 -5,0.25 -7.48,0.5 -0.3,0.44 -0.45,0.92 -0.45,1.45 0,2.5 -0.04,5 -0.11,7.5 -0.31,0.87 -0.94,1.26 -1.89,1.17 -0.82,-0.03 -1.3,-0.46 -1.45,-1.26 -0.07,-7.48 -0.12,-14.97 -0.13,-22.45 z m 160.18,22.97 c 3.19,-8.18 6.48,-16.33 9.87,-24.44 0.76,-1.1 1.8,-1.47 3.13,-1.12 0.45,0.15 0.79,0.42 1.03,0.83 3.27,7.78 6.49,15.59 9.66,23.41 0.59,1.42 0.15,2.15 -1.35,2.18 -0.52,-0.01 -0.99,-0.19 -1.39,-0.53 -0.98,-1.75 -1.83,-3.57 -2.53,-5.46 -0.55,-0.62 -1.24,-0.91 -2.08,-0.88 -3.32,-0.09 -6.63,0 -9.94,0.27 -0.42,0.12 -0.73,0.39 -0.92,0.78 -0.57,1.76 -1.27,3.45 -2.11,5.09 -0.59,0.49 -1.27,0.72 -2.05,0.69 -0.65,0.04 -1.09,-0.23 -1.32,-0.82 z M 539.5,245.78 c 0.2,1.05 0.86,1.56 1.99,1.52 2.29,0.23 4.51,0.01 6.68,-0.67 2.26,-1.84 2.79,-4.08 1.59,-6.73 -0.91,-1.33 -2.17,-2.1 -3.79,-2.31 -1.47,-0.16 -2.94,-0.25 -4.41,-0.26 -1.41,-0.02 -2.08,0.69 -2,2.14 0.04,2.1 0.02,4.21 -0.06,6.31 z m 163.78,4.99 c 2.74,0.17 5.49,0.25 8.25,0.24 0.56,0.03 0.99,-0.18 1.29,-0.65 -1.3,-3.74 -2.78,-7.4 -4.45,-10.96 -0.37,0.03 -0.63,0.21 -0.79,0.55 -1.43,3.61 -2.86,7.21 -4.3,10.82 z"
       id="path29" />
  </g>
  <g
     id="g30"
     transform="translate(-153.32821,0.25853199)">
    <path
       fill="#514230"
       stroke="#514230"
       stroke-width="0.5"
       d="m 415.68,48.25 c -0.63,1 -1.44,1.83 -2.41,2.49 -0.48,-2.13 0.32,-2.95 2.41,-2.49 z m -112.24,94.6 c 2.17,4.12 5.1,7.58 8.8,10.4 -0.06,0.45 -0.32,0.73 -0.77,0.83 -1.11,-0.27 -2.11,-0.75 -3.03,-1.44 -0.42,0.31 -0.81,0.67 -1.16,1.1 -0.66,0.16 -1.28,0.07 -1.85,-0.27 0.25,-0.5 0.29,-0.99 0.09,-1.5 -0.55,-0.74 -1.23,-1.29 -2.06,-1.66 -0.69,0.83 -1.43,1.59 -2.21,2.31 -0.2,0.69 -0.37,1.39 -0.52,2.09 -3.87,-2.57 -7.2,-5.72 -9.98,-9.45 -0.03,-0.52 0.16,-0.91 0.58,-1.19 1.06,0.88 2.14,1.74 3.25,2.59 0.79,-1.12 1.52,-2.28 2.19,-3.47 1.01,0.03 1.92,-0.25 2.72,-0.85 0.89,0.34 1.76,0.75 2.59,1.24 0.56,-0.02 1.01,-0.27 1.36,-0.73 z m 106.25,-0.08 c 0.5,0.53 1.03,1.05 1.57,1.55 -0.05,0.52 0.09,0.98 0.44,1.36 0.34,-0.1 0.45,-0.33 0.34,-0.7 2.47,1.96 5.19,3.49 8.14,4.58 -0.85,0.56 -1.78,0.78 -2.8,0.64 -0.88,-0.47 -1.81,-0.78 -2.79,-0.93 0.2,0.61 0.32,1.24 0.34,1.89 -1.21,1.22 -2.37,2.48 -3.48,3.77 -1.4,-0.01 -2.73,0.28 -4,0.85 -1.72,-0.75 -3.35,-1.67 -4.88,-2.76 -0.23,-0.31 -0.25,-0.63 -0.04,-0.97 0.19,-0.76 0.54,-1.44 1.05,-2.03 0.89,-0.42 1.77,-0.85 2.64,-1.3 0.81,-1.25 1.87,-2.21 3.2,-2.89 0.14,-0.51 0.06,-1.01 -0.25,-1.48 -0.04,-0.6 0.13,-1.13 0.52,-1.58 z"
       id="path30" />
  </g>
  <g
     id="g31"
     transform="translate(-153.32821,0.25853199)">
    <path
       fill="#534331"
       d="m 979.12,78.91 c -0.1,0.9 -0.62,1.26 -1.56,1.06 -3.31,-0.92 -6.65,-1.7 -10.03,-2.35 -2.07,0.04 -4.14,0.06 -6.21,0.06 -1.48,0.49 -1.47,0.98 0.04,1.48 1.45,0.13 2.9,0.27 4.36,0.42 4.91,1.52 8.65,4.52 11.2,8.99 1.03,2.55 1.77,5.17 2.24,7.86 -0.16,4.72 -0.16,9.44 0,14.15 -0.52,1.78 -1.03,1.78 -1.51,0.01 -0.04,-5.04 0,-10.08 0.12,-15.11 -0.08,-0.44 -0.34,-0.6 -0.77,-0.49 -0.53,-5.24 -3.04,-9.24 -7.51,-11.99 -4.75,-2.53 -9.58,-2.7 -14.51,-0.51 -2.79,1.33 -4.49,3.5 -5.12,6.52 -0.55,-0.19 -1,-0.5 -1.36,-0.94 -0.23,-0.33 -0.22,-0.65 0.02,-0.96 0.4,-0.69 0.78,-1.39 1.15,-2.1 1.46,-1.42 3.01,-2.74 4.65,-3.95 0.36,-0.79 0.11,-1.14 -0.78,-1.05 -1.8,1.26 -3.73,2.33 -5.76,3.21 -1.48,1.3 -3.05,2.46 -4.73,3.5 -0.82,0.42 -1.25,0.19 -1.29,-0.72 8.01,-7.34 17.43,-10.54 28.26,-9.59 3.2,0.24 6.24,1.07 9.1,2.5 z"
       id="path31" />
  </g>
  <g
     id="g32"
     transform="translate(-153.32821,0.25853199)">
    <path
       fill="#65553e"
       d="m 193.02,36.74 c -3.37,0.14 -6.7,0.6 -9.98,1.4 0.19,-0.51 0.04,-0.89 -0.44,-1.16 -0.86,-0.06 -1.67,-0.25 -2.44,-0.56 0.4,-0.44 0.89,-0.75 1.46,-0.94 -0.69,-0.15 -1.4,-0.23 -2.11,-0.22 -0.57,-0.05 -1,-0.31 -1.3,-0.77 0.63,-0.57 1.4,-0.8 2.29,-0.7 1.66,0.23 3.33,0.42 5,0.56 3.33,-0.24 6.66,-0.44 10,-0.58 6.01,0.09 12.01,0.26 18.01,0.52 9.98,-0.14 19.97,-0.28 29.95,-0.43 1.42,-0.02 2.79,0.18 4.12,0.59 -0.43,0.46 -0.96,0.79 -1.57,0.98 -0.77,-0.01 -1.54,-0.09 -2.31,-0.23 -0.83,0.46 -1.6,1.01 -2.31,1.65 -0.65,-0.31 -1.27,-0.67 -1.87,-1.09 -1.3,-0.35 -2.6,-0.74 -3.89,-1.16 -15.07,0.04 -30.14,0.1 -45.21,0.2 -0.57,0.04 -1.01,0.29 -1.33,0.75 0.13,0.16 0.25,0.31 0.37,0.47 1.23,0.09 2.41,0.33 3.56,0.72 z"
       id="path32" />
  </g>
  <g
     id="g33"
     transform="translate(-153.32821,0.25853199)">
    <path
       fill="#584532"
       stroke="#584532"
       stroke-width="0.5"
       d="m 363.22,256.76 c -1.02,0.57 -1.85,1.34 -2.48,2.32 -1.93,-1.56 -3.06,-3.57 -3.4,-6.03 -0.27,-4.18 -0.4,-8.37 -0.39,-12.56 0.19,-1.86 0.35,-3.72 0.47,-5.57 1.4,-0.93 2.47,-0.65 3.2,0.83 0.1,5.3 0.13,10.61 0.1,15.92 0.16,2.04 0.99,3.73 2.5,5.09 z"
       id="path33" />
  </g>
  <g
     id="g34"
     transform="translate(-153.32821,0.25853199)">
    <path
       fill="#54422c"
       d="m 765.17,235.99 c 0.21,-1.01 0.84,-1.49 1.87,-1.44 5.52,-0.02 11.04,-0.02 16.55,0 1.61,0.46 1.93,1.37 0.97,2.73 -2.26,0.14 -4.52,0.18 -6.8,0.12 -0.49,0.19 -0.76,0.56 -0.82,1.09 0.01,7 0,13.99 -0.05,20.99 -0.25,1.2 -1,1.65 -2.24,1.33 -0.55,-0.23 -0.86,-0.65 -0.93,-1.26 -0.09,-7.21 -0.18,-14.41 -0.27,-21.6 -0.27,-0.35 -0.64,-0.54 -1.09,-0.57 -1.97,0 -3.94,-0.02 -5.91,-0.06 -0.74,-0.16 -1.17,-0.6 -1.28,-1.33 z"
       id="path34" />
  </g>
  <g
     id="g35"
     transform="translate(-153.32821,0.25853199)">
    <path
       fill="#564531"
       d="m 635.41,236.55 c -0.04,-0.96 0.37,-1.65 1.24,-2.06 5.75,0.12 11.5,0.12 17.24,-0.01 1.03,0.24 1.45,0.9 1.27,1.99 -0.13,0.46 -0.41,0.79 -0.83,0.99 -1.92,-0.1 -3.84,-0.14 -5.77,-0.11 -0.49,-0.05 -0.91,0.09 -1.26,0.44 -0.19,6.9 -0.27,13.81 -0.25,20.73 0.19,1.78 -0.59,2.52 -2.34,2.21 -0.51,-0.22 -0.82,-0.61 -0.91,-1.16 0,-7.25 -0.07,-14.5 -0.19,-21.74 -0.31,-0.37 -0.71,-0.55 -1.21,-0.52 -1.98,0.07 -3.96,0.04 -5.93,-0.09 -0.42,-0.12 -0.77,-0.34 -1.06,-0.67 z M 835.02,237 c -0.14,-2.39 0.96,-3.23 3.3,-2.52 0.43,0.06 0.81,0.23 1.13,0.51 2.65,5.37 5.35,10.72 8.1,16.05 0.72,0.91 1.3,0.81 1.75,-0.3 2.39,-5.24 4.92,-10.41 7.6,-15.52 0.82,-0.45 1.73,-0.72 2.72,-0.81 1.16,0.15 1.71,0.83 1.64,2.05 0.01,7.36 0.02,14.71 0.02,22.06 -0.06,2.19 -1.02,2.73 -2.88,1.61 -0.07,-0.23 -0.15,-0.46 -0.23,-0.69 -0.15,-5.32 -0.15,-10.65 -0.01,-15.97 0.09,-0.88 -0.13,-1.66 -0.67,-2.34 -2.3,4.64 -4.64,9.31 -6.99,13.98 -0.78,1.47 -1.95,1.89 -3.49,1.27 -0.6,-0.43 -1.06,-0.97 -1.39,-1.63 -2.23,-4.93 -4.63,-9.76 -7.2,-14.48 -0.27,0.36 -0.38,0.76 -0.34,1.22 0.27,6.01 0.31,12.03 0.13,18.04 -0.07,0.59 -0.37,1 -0.9,1.24 -0.77,0.17 -1.44,-0.01 -2.01,-0.54 -0.11,-7.73 -0.2,-15.48 -0.28,-23.23 z"
       id="path35" />
  </g>
  <g
     id="g36"
     transform="translate(-153.32821,0.25853199)">
    <path
       fill="#55432f"
       d="m 605.64,255.97 c 0.63,-0.85 1.45,-1.3 2.47,-1.37 1.09,1.24 2.37,2.26 3.83,3.05 2.83,0.95 5.33,0.41 7.48,-1.61 1.34,-2.66 0.7,-4.67 -1.93,-6.04 -2.98,-0.88 -5.82,-2.08 -8.52,-3.59 -2.92,-2.72 -3.31,-5.77 -1.18,-9.16 2.56,-2.92 5.74,-3.91 9.54,-2.97 1.73,0.46 3.25,1.28 4.57,2.46 1.12,1.32 0.85,2.32 -0.8,2.99 -0.43,0.09 -0.83,0 -1.18,-0.27 -2.21,-2.46 -4.86,-3.07 -7.96,-1.82 -2.06,1.38 -2.54,3.18 -1.44,5.4 0.3,0.35 0.65,0.63 1.05,0.86 2.86,1.17 5.7,2.37 8.54,3.59 3.2,2.24 4.2,5.21 2.99,8.91 -1.17,2.42 -3.08,3.87 -5.75,4.36 -3.53,0.76 -6.79,0.14 -9.78,-1.88 -1.1,-0.67 -1.74,-1.64 -1.93,-2.91 z m 62.96,-17.95 c -0.01,-0.86 0.08,-1.71 0.27,-2.54 0.11,-0.52 0.41,-0.86 0.9,-1.04 3.6,-0.09 7.18,0.07 10.75,0.48 4.64,1.27 6.67,4.3 6.08,9.1 -0.74,3.32 -2.78,5.3 -6.12,5.97 -2.28,0.29 -4.56,0.42 -6.86,0.37 -0.48,-0.02 -0.88,0.15 -1.19,0.5 -0.19,2.89 -0.3,5.78 -0.33,8.68 -0.2,0.84 -0.74,1.26 -1.6,1.28 -0.9,0.01 -1.44,-0.43 -1.62,-1.3 -0.16,-7.17 -0.25,-14.33 -0.28,-21.5 z m 65.86,6.86 c 0.07,-2.94 0.08,-5.89 0.03,-8.83 0.03,-0.53 0.22,-1 0.57,-1.4 3.21,-0.25 6.42,-0.28 9.65,-0.1 5.92,0.45 8.51,3.6 7.78,9.46 -0.39,1.18 -0.98,2.24 -1.79,3.19 -1.24,0.76 -2.44,1.57 -3.58,2.43 -0.02,0.52 0.14,0.97 0.49,1.37 1.78,2.61 3.55,5.25 5.29,7.9 0.48,1.31 0.02,1.93 -1.41,1.86 -0.72,-0.05 -1.36,-0.31 -1.92,-0.76 -2.08,-2.98 -4.04,-6.03 -5.89,-9.16 -0.87,-0.88 -1.93,-1.24 -3.19,-1.09 -0.97,-0.14 -1.78,0.14 -2.43,0.83 -0.09,3.21 -0.23,6.41 -0.42,9.6 -0.81,0.69 -1.69,0.78 -2.65,0.26 -0.4,-0.41 -0.57,-0.91 -0.5,-1.49 0.03,-4.69 0.02,-9.38 -0.03,-14.07 z m -62.24,-4.92 c 0.08,2.13 0.11,4.25 0.09,6.38 0.5,0.75 1.22,1.08 2.16,0.99 2.54,0.29 4.95,-0.1 7.24,-1.18 2.44,-3.15 2.03,-5.86 -1.24,-8.12 -2.5,-0.78 -5.05,-0.98 -7.66,-0.59 -0.58,0.72 -0.78,1.56 -0.59,2.52 z m 65.64,0.04 c 0,1.84 0.03,3.67 0.08,5.51 0.04,0.55 0.3,0.95 0.78,1.21 2.44,0.28 4.87,0.2 7.28,-0.25 2.89,-1.42 3.73,-3.61 2.54,-6.59 -0.69,-1.05 -1.63,-1.78 -2.81,-2.19 -2.31,-0.36 -4.64,-0.48 -6.98,-0.34 -0.78,0.69 -1.07,1.58 -0.89,2.65 z"
       id="path36" />
  </g>
  <g
     id="g37"
     transform="translate(-153.32821,0.25853199)">
    <path
       fill="#4b3c27"
       d="m 393.91,246 c 0.01,-3.5 0.06,-6.99 0.14,-10.48 0.06,-0.5 0.31,-0.85 0.75,-1.05 0.7,-0.19 1.33,-0.08 1.91,0.32 0.4,7.47 0.6,14.95 0.6,22.44 0.31,0.4 0.72,0.58 1.23,0.56 3.33,0.04 6.65,0.06 9.98,0.07 1.24,0.32 1.6,1.08 1.09,2.27 -0.63,0.47 -1.34,0.66 -2.14,0.58 -3.98,-0.05 -7.96,-0.02 -11.95,0.1 -0.53,0.05 -0.97,-0.12 -1.33,-0.5 -0.21,-4.76 -0.3,-9.53 -0.28,-14.31 z"
       id="path37" />
  </g>
  <g
     id="g38"
     transform="translate(-153.32821,0.25853199)">
    <path
       fill="#50412d"
       stroke="#50412d"
       stroke-width="0.5"
       d="m 281.18,258.94 c 0.06,-8.01 0.17,-16 0.34,-23.98 0.54,-0.4 1.15,-0.57 1.82,-0.52 2.78,0.04 5.56,0.11 8.33,0.23 6.92,0.93 10.79,4.87 11.6,11.83 0.25,8.47 -3.83,13.19 -12.22,14.15 -2.81,0 -5.63,0.01 -8.44,0.04 -1.02,-0.13 -1.49,-0.72 -1.43,-1.75 z m 3.19,-20.89 c 0.16,6.31 0.31,12.63 0.46,18.94 0.46,0.46 1.03,0.67 1.7,0.62 3.18,0.37 6.19,-0.17 9.01,-1.62 2.24,-1.51 3.52,-3.61 3.85,-6.3 0.9,-6.14 -1.6,-10.11 -7.49,-11.9 -2.54,-0.52 -5.05,-0.44 -7.53,0.26 z"
       id="path38" />
  </g>
  <g
     id="g39"
     transform="translate(-153.32821,0.25853199)">
    <path
       fill="#3c2b19"
       d="m 977.6,133.05 c 0.3,-5.18 0.39,-10.37 0.28,-15.56 0.03,-0.49 0.2,-0.92 0.51,-1.29 0.22,5.08 0.42,10.18 0.61,15.3 -0.05,3.35 -0.08,6.69 -0.09,10.04 0.03,0.79 -0.16,1.51 -0.58,2.16 -0.28,-0.29 -0.41,-0.65 -0.4,-1.08 0,-3.19 -0.11,-6.38 -0.33,-9.57 z M 339.32,251.68 c 0.35,-2.2 0.76,-4.37 1.24,-6.51 0.38,0.31 0.55,0.71 0.53,1.22 -0.04,1.07 -0.09,2.13 -0.16,3.2 -0.26,0.91 -0.79,1.61 -1.61,2.09 z m 677.7,-4.7 c -0.04,0.28 -0.07,0.55 -0.11,0.82 -0.42,0.27 -0.88,0.4 -1.39,0.4 -2.69,-0.17 -5.38,-0.27 -8.07,-0.31 -1.64,-0.31 -1.64,-0.66 -0.02,-1.06 3.2,0.06 6.39,0.11 9.59,0.15 z"
       id="path39" />
  </g>
  <g
     id="g40"
     transform="translate(-153.32821,0.25853199)">
    <path
       fill="#453827"
       d="m 443.78,147.39 c 0.02,0.25 0.04,0.51 0.06,0.76 -1.02,1.56 -2.46,2.52 -4.32,2.89 -2.67,0.67 -5.34,1.32 -8.01,1.94 -1.17,0.22 -2.28,0.1 -3.31,-0.36 1,-0.43 2.05,-0.68 3.16,-0.77 0.36,-0.2 0.58,-0.51 0.66,-0.91 4.19,-0.3 8.11,-1.49 11.76,-3.55 z"
       id="path40" />
  </g>
  <g
     id="g41"
     transform="translate(-153.32821,0.25853199)">
    <path
       fill="#423525"
       d="m 387.95,108.99 c 0.44,-0.06 0.76,0.12 0.95,0.53 0.26,2.7 0.01,5.37 -0.77,7.98 -0.05,2.01 -0.09,4.02 -0.11,6.03 -0.07,0.74 -0.43,1.25 -1.11,1.51 -0.41,-5.4 -0.07,-10.75 1.04,-16.05 z"
       id="path41" />
  </g>
  <g
     id="g42"
     transform="translate(-153.32821,0.25853199)">
    <path
       fill="#423323"
       d="m 395.98,90.97 c 0.98,-0.12 1.3,0.3 0.96,1.26 -2.09,2.85 -3.77,5.93 -5.03,9.22 -0.73,0.44 -1.2,0.23 -1.41,-0.65 1.44,-3.49 3.27,-6.77 5.48,-9.83 z"
       id="path42" />
  </g>
  <g
     id="g43"
     transform="translate(-153.32821,0.25853199)">
    <path
       fill="#332514"
       d="m 241.55,54.21 c -0.18,0.27 -0.37,0.55 -0.55,0.83 -0.38,0.16 -0.63,0.05 -0.73,-0.32 0.32,-0.41 0.75,-0.58 1.28,-0.51 z M 208.94,77.9 c 0.37,-0.07 0.61,0.07 0.71,0.42 -0.36,0.35 -0.8,0.5 -1.31,0.44 0.2,-0.29 0.4,-0.57 0.6,-0.86 z m -21.93,33.07 c 0.39,-0.14 0.64,-0.04 0.75,0.32 -0.34,0.39 -0.77,0.55 -1.3,0.5 0.18,-0.28 0.37,-0.55 0.55,-0.82 z m -19.09,28.92 c 0.4,-0.08 0.65,0.06 0.77,0.41 -0.39,0.35 -0.84,0.49 -1.36,0.42 0.2,-0.28 0.39,-0.56 0.59,-0.83 z m 800.01,10.91 c 0.27,-0.15 0.54,-0.3 0.81,-0.44 0.18,0.47 0.09,0.89 -0.25,1.23 -0.4,-0.1 -0.59,-0.36 -0.56,-0.79 z m -807.95,1.14 c 0.4,-0.12 0.66,0 0.78,0.36 -0.35,0.38 -0.79,0.54 -1.31,0.49 0.18,-0.29 0.35,-0.57 0.53,-0.85 z"
       id="path43" />
  </g>
  <g
     id="g44"
     transform="translate(-153.32821,0.25853199)">
    <path
       fill="#2f200e"
       d="m 245.67,48.25 c -0.2,0.28 -0.41,0.56 -0.61,0.84 -0.41,0.1 -0.67,-0.03 -0.79,-0.4 0.39,-0.37 0.86,-0.51 1.4,-0.44 z m -14.95,22.02 c -0.21,0.28 -0.42,0.57 -0.62,0.86 -0.42,0.1 -0.69,-0.03 -0.82,-0.42 0.4,-0.38 0.88,-0.53 1.44,-0.44 z m 221.31,23.67 c 0.12,0.3 0.24,0.6 0.36,0.9 -0.72,1.3 -1.15,1.17 -1.29,-0.38 0.15,-0.48 0.46,-0.65 0.93,-0.52 z"
       id="path44" />
  </g>
  <g
     id="g45"
     transform="translate(-153.32821,0.25853199)">
    <path
       fill="#322310"
       d="m 251.6,39.22 c -0.2,0.28 -0.4,0.55 -0.59,0.83 -0.39,0.12 -0.63,-0.01 -0.73,-0.37 0.35,-0.37 0.79,-0.53 1.32,-0.46 z m -7.99,12.03 c -0.2,0.26 -0.4,0.53 -0.59,0.8 -0.39,0.09 -0.63,-0.04 -0.73,-0.39 0.37,-0.36 0.81,-0.5 1.32,-0.41 z m -36.67,29.66 c 0.4,-0.13 0.66,-0.02 0.77,0.35 -0.36,0.39 -0.81,0.56 -1.35,0.5 0.19,-0.28 0.39,-0.57 0.58,-0.85 z"
       id="path45" />
  </g>
  <g
     id="g46"
     transform="translate(-153.32821,0.25853199)">
    <path
       fill="#554a3d"
       d="m 673.07,31.79 c 1.32,0.35 1.72,1.18 1.17,2.48 -0.94,-0.56 -1.33,-1.38 -1.17,-2.48 z"
       id="path46" />
  </g>
  <g
     id="g47"
     transform="translate(-153.32821,0.25853199)">
    <path
       fill="#352516"
       d="m 169.9,136.87 c 0.44,-0.07 0.68,0.1 0.73,0.51 -0.37,0.37 -0.82,0.49 -1.35,0.36 0.21,-0.29 0.42,-0.58 0.62,-0.87 z m 801.11,12.12 c 0.46,-0.03 0.93,-0.06 1.4,-0.09 -0.07,0.53 -0.36,0.85 -0.89,0.97 -0.51,-0.08 -0.68,-0.37 -0.51,-0.88 z"
       id="path47" />
  </g>
  <g
     id="g48"
     transform="translate(-153.32821,0.25853199)">
    <path
       fill="#2e2112"
       d="m 218.92,62.89 c 0.39,-0.07 0.64,0.07 0.75,0.42 -0.4,0.34 -0.86,0.48 -1.39,0.41 0.21,-0.27 0.43,-0.55 0.64,-0.83 z m -13.96,21.04 c 0.39,-0.15 0.64,-0.04 0.76,0.31 -0.36,0.39 -0.8,0.56 -1.33,0.51 0.19,-0.28 0.38,-0.55 0.57,-0.82 z"
       id="path48" />
  </g>
  <g
     id="g49"
     transform="translate(-153.32821,0.25853199)">
    <path
       fill="#312415"
       d="m 239.53,57.21 c -0.18,0.27 -0.37,0.54 -0.55,0.82 -0.41,0.12 -0.68,0 -0.81,-0.37 0.37,-0.39 0.83,-0.54 1.36,-0.45 z m -54.5,56.77 c 0.36,-0.12 0.6,-0.01 0.69,0.34 -0.32,0.37 -0.74,0.53 -1.24,0.47 0.18,-0.27 0.37,-0.54 0.55,-0.81 z"
       id="path49" />
  </g>
  <g
     id="g50"
     transform="translate(-153.32821,0.25853199)">
    <path
       fill="#302311"
       d="m 247.6,45.23 c -0.19,0.28 -0.38,0.56 -0.56,0.84 -0.4,0.12 -0.65,-0.01 -0.77,-0.38 0.36,-0.37 0.8,-0.53 1.33,-0.46 z m -58.36,62.5 c 0.15,0.04 0.31,0.07 0.47,0.11 -0.04,0.71 -0.45,1.03 -1.23,0.95 0.25,-0.35 0.51,-0.71 0.76,-1.06 z"
       id="path50" />
  </g>
  <g
     id="g51"
     transform="translate(-153.32821,0.25853199)">
    <path
       fill="#352313"
       d="m 161.94,148.91 c 0.39,-0.11 0.64,0.02 0.74,0.37 -0.36,0.37 -0.81,0.52 -1.33,0.46 0.2,-0.28 0.39,-0.56 0.59,-0.83 z"
       id="path51" />
  </g>
  <g
     id="g52"
     transform="translate(-153.32821,0.25853199)">
    <path
       fill="#291b0c"
       d="m 411.26,144.32 c 0.26,0.22 0.52,0.44 0.78,0.66 0.11,0.37 0,0.6 -0.34,0.7 -0.35,-0.38 -0.49,-0.84 -0.44,-1.36 z"
       id="path52" />
  </g>
  <g
     id="g53"
     transform="translate(-153.32821,0.25853199)">
    <path
       fill="#31230d"
       d="m 447.02,85.99 c 0.04,0.42 0.08,0.84 0.13,1.26 -0.5,-0.08 -0.84,-0.37 -1.01,-0.85 0.12,-0.44 0.41,-0.58 0.88,-0.41 z"
       id="path53" />
  </g>
  <g
     id="g54"
     transform="translate(-153.32821,0.25853199)">
    <path
       fill="#2a1a07"
       d="m 445.72,48.26 c -0.22,0.28 -0.44,0.55 -0.66,0.82 -0.42,0.14 -0.7,0.02 -0.85,-0.35 0.43,-0.39 0.93,-0.54 1.51,-0.47 z"
       id="path54" />
  </g>
  <g
     id="g55"
     transform="translate(-153.32821,0.25853199)">
    <path
       fill="#322418"
       d="m 234.97,38.92 c 0.39,-0.05 0.64,0.09 0.76,0.44 -0.38,0.33 -0.82,0.47 -1.33,0.4 0.19,-0.28 0.38,-0.56 0.57,-0.84 z"
       id="path55" />
  </g>
  <g
     id="g56"
     transform="translate(-153.32821,0.25853199)">
    <path
       fill="#31200c"
       d="m 253.7,36.29 c -0.22,0.27 -0.43,0.53 -0.64,0.8 -0.39,0.09 -0.65,-0.05 -0.76,-0.41 0.4,-0.35 0.86,-0.48 1.4,-0.39 z"
       id="path56" />
  </g>
  <g
     id="g57"
     transform="translate(-153.32821,0.25853199)">
    <path
       fill="#62503a"
       stroke="#62503a"
       stroke-width="0.5"
       d="m 784.94,79.85 c 0.08,0.42 0.29,0.76 0.64,1.02 1.18,0.02 2.29,0.25 3.33,0.68 -0.44,2.02 -0.97,4.03 -1.58,6.02 0.21,0.99 0.46,1.97 0.77,2.95 0.15,0.87 -0.04,1.64 -0.59,2.3 -0.28,-0.77 -0.41,-1.58 -0.4,-2.44 -0.58,-0.67 -1.28,-0.81 -2.1,-0.41 -1.03,-2.75 -3.01,-4.2 -5.96,-4.36 -1.36,0.04 -2.71,0.01 -4.05,-0.08 0.29,-0.29 0.51,-0.62 0.67,-1 -0.29,-0.71 -0.66,-1.37 -1.14,-1.98 3.49,-0.81 6.96,-1.71 10.41,-2.7 z"
       id="path57" />
  </g>
  <g
     id="g58"
     transform="translate(-153.32821,0.25853199)">
    <path
       fill="#2e1d0d"
       d="m 774.53,82.55 c 0.48,0.61 0.85,1.27 1.14,1.98 -0.16,0.38 -0.38,0.71 -0.67,1 -0.37,-0.11 -0.75,-0.22 -1.12,-0.32 -0.17,-0.99 0.05,-1.88 0.65,-2.66 z m 301.13,5.24 c 0.24,0.27 0.47,0.54 0.71,0.81 -0.75,0.16 -0.99,-0.11 -0.71,-0.81 z m -52.72,80.17 c 0.26,-0.23 0.53,-0.46 0.79,-0.69 0.05,0.56 -0.11,1.06 -0.48,1.48 -0.35,-0.13 -0.45,-0.39 -0.31,-0.79 z"
       id="path58" />
  </g>
  <g
     id="g59"
     transform="translate(-153.32821,0.25853199)">
    <path
       fill="#574733"
       stroke="#574733"
       stroke-width="0.5"
       d="m 481.48,69.98 c 0.07,-0.51 0.27,-0.95 0.59,-1.33 5.77,-3.54 9.93,-8.41 12.5,-14.63 0.84,-2.36 0.88,-4.73 0.11,-7.1 -0.3,-0.68 -0.76,-1.21 -1.4,-1.58 -1.95,0.23 -3.9,0.17 -5.83,-0.18 -4.91,-1.91 -6.65,-5.42 -5.21,-10.51 1.53,-3.68 4.28,-5.59 8.26,-5.73 4.6,-0.07 7.98,1.94 10.14,6.03 1.44,3.02 2.04,6.2 1.8,9.55 -0.49,7.86 -3.66,14.44 -9.52,19.72 -2.78,2.4 -5.73,4.56 -8.86,6.49 -1.11,0.58 -1.97,0.34 -2.58,-0.73 z M 445.72,48.26 c -0.58,-0.07 -1.08,0.08 -1.51,0.47 0.15,0.37 0.43,0.49 0.85,0.35 -2.41,2.54 -5.27,3.19 -8.56,1.93 -3.73,-1.93 -5.11,-4.96 -4.15,-9.07 1.03,-2.91 3.08,-4.57 6.15,-4.98 4.63,-0.11 7.39,2.12 8.25,6.7 0.19,1.65 -0.15,3.18 -1.03,4.6 z m 109.4,31.57 c -0.03,0.41 -0.22,0.71 -0.57,0.89 -1.61,-0.69 -3.29,-0.92 -5.04,-0.71 -3.04,-0.5 -6.05,-1.12 -9.05,-1.87 -2.92,0.1 -2.92,0.42 0.01,0.98 0.7,0.48 0.87,1.11 0.51,1.88 -5.47,-1.84 -10.57,-1.1 -15.29,2.21 -3.91,3.64 -5.1,8.03 -3.58,13.17 1.3,3.23 3.4,5.82 6.31,7.76 6.61,4.12 13.34,8.03 20.2,11.74 6.85,3.81 11.12,9.53 12.83,17.14 0.83,12.12 -4.3,20.68 -15.41,25.68 -6.73,2.52 -13.63,3.05 -20.7,1.58 -4.13,-0.98 -8.27,-1.94 -12.41,-2.9 -2.16,-0.36 -3.12,-1.65 -2.87,-3.85 0.12,-5.69 0.03,-11.37 -0.26,-17.05 -0.22,-1.39 0.33,-2.19 1.65,-2.4 0.5,0.06 0.86,0.33 1.08,0.78 1,3.05 2.05,6.07 3.14,9.08 3.62,8.21 9.9,12.55 18.83,13.03 8,-0.03 13.16,-3.85 15.48,-11.46 1.06,-5.91 -0.57,-10.94 -4.9,-15.09 -1.58,-1.4 -3.28,-2.65 -5.09,-3.74 -5.96,-3.33 -11.86,-6.78 -17.68,-10.34 -5.67,-3.43 -9.23,-8.36 -10.67,-14.78 -1.31,-6.95 0.41,-13.03 5.15,-18.23 4.66,-4.49 10.23,-6.86 16.71,-7.12 6.28,-0.12 12.47,0.59 18.57,2.11 1.14,0.26 2.16,0.76 3.05,1.51 z m -107.97,7.42 c 0.62,-0.12 1.1,0.09 1.46,0.62 1.39,1.88 2.53,3.91 3.42,6.07 -0.47,-0.13 -0.78,0.04 -0.93,0.52 0.14,1.55 0.57,1.68 1.29,0.38 1.53,4.08 2.31,8.29 2.36,12.64 -0.04,0.62 -0.24,1.17 -0.62,1.65 -17.85,-0.27 -35.7,-0.4 -53.55,-0.4 -0.48,-0.23 -0.64,-0.59 -0.47,-1.09 0.36,-0.4 0.81,-0.61 1.36,-0.61 12.66,-0.31 25.32,-0.33 37.98,-0.07 0.58,0.08 1.02,-0.13 1.32,-0.62 0.04,-0.69 -0.12,-1.34 -0.45,-1.95 0.35,-0.57 0.57,-1.2 0.65,-1.88 0.08,-3.2 -0.42,-6.31 -1.5,-9.33 0.27,-0.35 0.61,-0.6 1.03,-0.75 0.52,0.14 1.03,0.16 1.53,0.05 0.55,-0.66 1.05,-1.34 1.53,-2.04 1.53,0.8 2.55,0.36 3.05,-1.35 0.25,-0.59 0.43,-1.2 0.54,-1.84 z"
       id="path59" />
  </g>
</svg>
