<?xml version="1.0" encoding="UTF-8" standalone="no"?>
<svg
   version="1.1"
   width="271px"
   height="114px"
   style="shape-rendering:geometricPrecision; text-rendering:geometricPrecision; image-rendering:optimizeQuality; fill-rule:evenodd; clip-rule:evenodd"
   id="svg28"
   sodipodi:docname="sun-mark.svg"
   inkscape:version="1.4.4 (dcaf3e7, 2026-05-05)"
   xmlns:inkscape="http://www.inkscape.org/namespaces/inkscape"
   xmlns:sodipodi="http://sodipodi.sourceforge.net/DTD/sodipodi-0.dtd"
   xmlns="http://www.w3.org/2000/svg"
   xmlns:svg="http://www.w3.org/2000/svg">
  <defs
     id="defs28" />
  <sodipodi:namedview
     id="namedview28"
     pagecolor="#ffffff"
     bordercolor="#000000"
     borderopacity="0.25"
     inkscape:showpageshadow="2"
     inkscape:pageopacity="0.0"
     inkscape:pagecheckerboard="0"
     inkscape:deskcolor="#d1d1d1"
     inkscape:zoom="6.7121771"
     inkscape:cx="135.5"
     inkscape:cy="56.985981"
     inkscape:window-width="2400"
     inkscape:window-height="1261"
     inkscape:window-x="2391"
     inkscape:window-y="-9"
     inkscape:window-maximized="1"
     inkscape:current-layer="svg28" />
  <g
     id="g2">
    <path
       fill="#f8daaf"
       stroke="#f8daaf"
       stroke-width="0.5"
       d="M 163.13,89.22 C 163.39,89.22 163.56,89.35 163.66,89.59 C 163.91,91.31 164.41,92.95 165.17,94.5 C 165.31,95.16 165.23,95.79 164.93,96.39 C 159.53,97.72 154.11,99.01 148.67,100.25 C 146.93,100.67 145.24,101.22 143.6,101.91 C 141.53,102.12 139.48,102.45 137.45,102.91 C 136.95,102.95 136.46,102.9 135.98,102.78 C 136.31,102.41 136.53,101.98 136.62,101.49 C 136.57,100.31 136.54,99.14 136.52,97.98 C 137.28,97.06 138.01,96.12 138.7,95.16 C 139.57,94.63 140.49,94.28 141.49,94.1 C 142.65,94.49 143.85,94.63 145.06,94.52 C 146.35,95.47 147.78,95.89 149.35,95.78 C 149.5,95.64 149.64,95.51 149.78,95.37 C 149.61,94.62 149.58,93.89 149.68,93.19 C 150.3,93.22 150.91,93.37 151.48,93.63 C 152.17,93.28 152.82,92.86 153.42,92.37 C 154.46,94.12 155.86,94.48 157.64,93.45 C 157.59,93.14 157.51,92.84 157.39,92.55 C 158.52,92.32 159.61,91.97 160.65,91.51 C 160.18,91.13 159.71,90.72 159.25,90.31 C 159.1,89.84 159.25,89.5 159.69,89.29 C 160.68,89.16 161.63,89.33 162.53,89.79 C 162.86,89.74 163.06,89.55 163.13,89.22 Z"
       id="path2" />
  </g>
  <g
     id="g3">
    <path
       fill="#f6cf99"
       stroke="#f6cf99"
       stroke-width="0.5"
       d="M 158.25,81.02 C 160.41,83.44 162.03,86.18 163.13,89.22 C 163.06,89.55 162.86,89.74 162.53,89.79 C 161.63,89.33 160.68,89.16 159.69,89.29 C 159.25,89.5 159.1,89.84 159.25,90.31 C 159.71,90.72 160.18,91.13 160.65,91.51 C 159.61,91.97 158.52,92.32 157.39,92.55 C 157.51,92.84 157.59,93.14 157.64,93.45 C 155.86,94.48 154.46,94.12 153.42,92.37 C 152.82,92.86 152.17,93.28 151.48,93.63 C 150.91,93.37 150.3,93.22 149.68,93.19 C 149.58,93.89 149.61,94.62 149.78,95.37 C 149.64,95.51 149.5,95.64 149.35,95.78 C 147.78,95.89 146.35,95.47 145.06,94.52 C 143.85,94.63 142.65,94.49 141.49,94.1 C 140.49,94.28 139.57,94.63 138.7,95.16 C 138.01,96.12 137.28,97.06 136.52,97.98 C 136.54,99.14 136.57,100.31 136.62,101.49 C 136.53,101.98 136.31,102.41 135.98,102.78 C 135.47,103.17 134.9,103.45 134.29,103.62 C 132.87,103.81 131.45,103.96 130.02,104.08 C 128.72,102.82 127.45,101.53 126.22,100.21 C 126.21,100.02 126.2,99.84 126.19,99.65 C 127.04,99.13 127.92,98.68 128.83,98.28 C 128.97,96.69 129.69,95.45 131.01,94.55 C 131.9,94.66 132.77,94.66 133.61,94.54 C 133.45,94.04 133.42,93.54 133.54,93.04 C 134.2,92.38 134.85,91.7 135.49,91.01 C 135.48,90.36 135.55,89.74 135.7,89.16 C 136.89,89 138.09,88.85 139.28,88.73 C 139.95,88.51 140.41,88.08 140.65,87.43 C 140.39,87.14 140.07,87.07 139.7,87.22 C 138.89,87.86 138.15,87.82 137.49,87.1 C 137.28,86.72 137.28,86.34 137.49,85.97 C 137.97,85.45 138.46,84.94 138.98,84.45 C 140.44,84.89 141.96,85.06 143.53,84.96 C 144.27,85.13 144.98,85.4 145.65,85.77 C 146.44,85.59 147.06,85.14 147.49,84.41 C 148.44,84.65 149.37,84.56 150.28,84.15 C 150.47,84.67 150.62,85.22 150.74,85.79 C 151.72,86.43 152.69,87.08 153.64,87.75 C 155.08,87.97 156.48,87.84 157.82,87.34 C 157.8,86.92 157.62,86.58 157.29,86.33 C 156.42,85.83 155.55,85.35 154.68,84.87 C 154.25,84.61 154.08,84.23 154.17,83.74 C 155,83.12 155.93,82.71 156.97,82.51 C 157.49,82.09 157.92,81.59 158.25,81.02 Z"
       id="path3" />
  </g>
  <g
     id="g4">
    <path
       fill="#f2d0a0"
       d="M 149.03,44.1 C 149.13,42.19 149.44,40.32 149.97,38.48 C 150.26,37.21 150.78,36.07 151.53,35.04 C 151.98,35.39 152.16,35.85 152.06,36.44 C 151.41,38.78 150.74,41.11 150.04,43.43 C 149.82,43.83 149.48,44.05 149.03,44.1 Z M 169.08,35.95 C 169.14,36.7 169,37.41 168.66,38.08 C 167.49,39.96 166.42,41.91 165.45,43.91 C 165.14,44.47 164.69,44.85 164.1,45.06 C 164.02,44.58 164.04,44.09 164.15,43.61 C 165.38,41.51 166.52,39.36 167.57,37.17 C 167.87,36.49 168.37,36.08 169.08,35.95 Z M 167.06,91.07 C 167.04,90.59 167.22,90.22 167.62,89.95 C 168.25,89.68 168.9,89.41 169.54,89.16 C 179.07,86.36 188.69,83.91 198.41,81.82 C 204.45,79.85 210.54,78.03 216.66,76.34 C 217.7,76.02 218.69,76.08 219.63,76.52 C 219.31,77 218.91,77.39 218.41,77.68 C 211.13,79.53 203.83,81.36 196.52,83.16 C 187.52,85.88 178.5,88.51 169.46,91.05 C 168.66,91.27 167.86,91.28 167.06,91.07 Z M 64.99,78.96 C 65.83,78.8 66.67,78.82 67.5,79.02 C 72.14,80.63 76.86,81.98 81.65,83.06 C 88.51,85.22 95.37,87.32 102.23,89.38 C 103.42,90.42 103.23,90.96 101.66,90.98 C 89.69,87.14 77.67,83.43 65.59,79.86 C 65.2,79.68 65,79.38 64.99,78.96 Z"
       id="path4" />
  </g>
  <g
     id="g5">
    <path
       fill="#eec592"
       d="M 118.02,27 C 118.66,27.13 119.17,27.47 119.53,28.02 C 119.84,29.87 120.32,31.67 120.98,33.42 C 123.63,43.79 126.22,54.18 128.75,64.59 C 128.94,65.22 129,65.87 128.95,66.53 C 128.95,67 128.78,67.39 128.46,67.7 C 127.99,67.27 127.67,66.75 127.48,66.14 C 126.62,63.33 126.01,60.48 125.65,57.57 C 123.07,47.39 120.52,37.19 118.02,27 Z M 103.94,60.85 C 104.59,61.05 105.16,61.4 105.63,61.89 C 106.48,63.04 107.39,64.13 108.38,65.15 C 110.28,67.91 112.33,70.55 114.55,73.06 C 114.8,73.45 114.74,73.77 114.37,74.03 C 113.85,74.11 113.4,73.95 113.04,73.56 C 112.25,72.6 111.56,71.59 110.98,70.5 C 110.33,69.79 109.65,69.11 108.94,68.47 C 107.76,66.41 106.31,64.56 104.58,62.93 C 104.3,62.25 104.09,61.56 103.94,60.85 Z M 93.91,66.95 C 94.6,67.06 95.24,67.29 95.84,67.63 C 97.13,68.7 98.47,69.71 99.86,70.65 C 102.6,73 105.45,75.21 108.42,77.28 C 108.86,77.53 109.04,77.91 108.96,78.42 C 108.71,78.87 108.36,78.96 107.9,78.71 C 106.04,77.2 104.13,75.76 102.16,74.4 C 100,72.53 97.77,70.74 95.49,69.02 C 94.8,68.45 94.28,67.76 93.91,66.95 Z M 79.87,70.88 C 80.63,70.96 81.35,71.16 82.05,71.46 C 89.76,75.41 97.44,79.4 105.09,83.41 C 105.79,83.86 105.92,84.41 105.49,85.04 C 105.22,85.03 104.94,85.01 104.66,84.99 C 103.33,84.22 101.95,83.52 100.53,82.91 C 94.15,79.23 87.67,75.72 81.1,72.39 C 80.54,72 80.14,71.5 79.87,70.88 Z"
       id="path5" />
  </g>
  <g
     id="g6">
    <path
       fill="#f3d1a4"
       d="M 92.22,18.28 C 92.89,17.89 93.49,17.98 94.03,18.55 C 99.49,29.37 105.03,40.15 110.65,50.89 C 111,51.43 111.15,52.02 111.09,52.66 C 110.94,52.77 110.8,52.88 110.65,52.99 C 109.67,51.9 108.87,50.68 108.25,49.32 C 103.44,39.54 98.34,29.91 92.97,20.44 C 92.65,19.74 92.4,19.03 92.22,18.28 Z M 142.82,65.98 C 144.53,60.03 146.1,54.03 147.53,47.99 C 148.4,46.73 148.86,46.9 148.91,48.49 C 148.07,51.1 147.45,53.77 147.04,56.48 C 146.28,59.09 145.56,61.72 144.88,64.36 C 144.53,65.57 144.05,66.7 143.42,67.74 C 142.92,67.27 142.72,66.69 142.82,65.98 Z M 73.97,51.07 C 74.66,51.05 75.3,51.22 75.89,51.57 C 76.83,52.3 77.7,53.1 78.52,53.96 C 78.8,54.22 78.96,54.54 79,54.93 C 78.3,55.01 77.65,54.84 77.08,54.44 C 76.18,53.65 75.29,52.86 74.41,52.06 C 74.18,51.76 74.04,51.43 73.97,51.07 Z"
       id="path6" />
  </g>
  <g
     id="g7">
    <path
       fill="#f4d09d"
       d="M 169.08,35.95 C 168.91,35.22 169.01,34.54 169.38,33.89 C 172.01,28.99 174.74,24.14 177.55,19.35 C 177.92,19.53 178.12,19.84 178.15,20.27 C 178.14,20.9 177.96,21.48 177.62,22.01 C 175.12,26.28 172.75,30.61 170.49,35.01 C 170.2,35.61 169.73,35.92 169.08,35.95 Z M 200.97,47.89 C 200.36,49.91 198.99,50.94 196.86,50.99 C 197.12,50.1 197.67,49.42 198.51,48.97 C 199.25,48.43 200.07,48.07 200.97,47.89 Z M 188,57.81 C 187.28,59.61 185.96,60.69 184.06,61.07 C 184.21,60.17 184.68,59.48 185.49,59 C 186.24,58.41 187.07,58.01 188,57.81 Z M 64.99,78.96 C 64.16,79.11 63.33,79.13 62.49,79.01 C 58.57,77.79 54.62,76.69 50.62,75.72 C 49.88,75.59 49.36,75.18 49.06,74.5 C 49.39,74 49.85,73.83 50.46,73.99 C 54.88,75.1 59.24,76.41 63.54,77.93 C 64.2,78.04 64.68,78.38 64.99,78.96 Z"
       id="path7" />
  </g>
  <g
     id="g8">
    <path
       fill="#f1ce9d"
       d="M 79,54.93 C 79.67,55.02 80.31,55.22 80.92,55.51 C 82.14,56.47 83.16,57.58 83.98,58.85 C 82.81,58.84 81.82,58.4 80.99,57.54 C 80,56.9 79.33,56.03 79,54.93 Z M 157.07,58.01 C 157.13,58.75 157.01,59.45 156.7,60.13 C 154.95,62.86 153.43,65.72 152.15,68.71 C 151.89,69.46 151.39,69.87 150.64,69.96 C 150.23,69.37 150.19,68.75 150.53,68.09 C 152.5,65.25 154.18,62.24 155.59,59.07 C 155.91,58.47 156.4,58.12 157.07,58.01 Z M 169.72,82.34 C 169.97,81.6 170.44,81.04 171.13,80.65 C 176.21,77.93 181.35,75.37 186.57,72.96 C 187.11,72.81 187.55,72.93 187.89,73.33 C 182.95,76.09 177.96,78.8 172.92,81.47 C 171.9,81.94 170.84,82.23 169.72,82.34 Z"
       id="path8" />
  </g>
  <g
     id="g9"
     transform="matrix(1,0,0,1.6993591,0,-4.8839289)">
    <path
       fill="#f3d3a7"
       d="m 137.02,41.89 c -0.32,0.01 -0.64,0.02 -0.96,0.03 -0.25,-1.12 -0.34,-2.25 -0.29,-3.39 0.16,-4.69 0.36,-9.37 0.59,-14.05 -0.19,-5.34 -0.33,-10.69 -0.41,-16.03 -0.05,-1.04 0.43,-1.53 1.46,-1.46 0.52,0.35 0.73,0.84 0.65,1.47 -0.08,4.62 -0.22,9.24 -0.42,13.86 -0.22,0.72 -0.41,1.44 -0.58,2.17 0.31,5.81 0.29,11.6 -0.04,17.4 z"
       id="path9" />
  </g>
  <g
     id="g10">
    <path
       fill="#f2d4aa"
       d="M 70.16,92.52 C 72.28,92.16 74.43,92.04 76.61,92.18 C 83.25,93.26 89.93,94.22 96.62,95.07 C 98.23,95.39 99.84,95.73 101.44,96.07 C 101.58,96.24 101.72,96.41 101.87,96.58 C 101.58,97.05 101.15,97.27 100.58,97.26 C 99.55,97.25 98.52,97.21 97.5,97.12 C 88.36,95.72 79.25,94.19 70.16,92.52 Z"
       id="path10" />
  </g>
  <g
     id="g11">
    <path
       fill="#f1cc9b"
       d="M 164.1,45.06 C 164.17,45.8 164.04,46.5 163.7,47.17 C 161.89,50.38 160.14,53.62 158.46,56.89 C 158.18,57.5 157.71,57.87 157.07,58.01 C 156.87,57.27 156.95,56.56 157.33,55.89 C 159.17,52.68 160.93,49.42 162.58,46.1 C 162.91,45.48 163.42,45.14 164.1,45.06 Z M 111.86,54.88 C 112.54,55.07 113.07,55.47 113.44,56.07 C 115.48,60.02 117.54,63.95 119.63,67.86 C 119.96,68.4 120.16,68.99 120.23,69.62 C 119.9,70.99 119.39,71.07 118.68,69.86 C 118.18,68.43 117.64,67.01 117.04,65.62 C 115.34,62.54 113.68,59.44 112.05,56.31 C 111.91,55.85 111.85,55.37 111.86,54.88 Z"
       id="path11" />
  </g>
  <g
     id="g12">
    <path
       fill="#edc48d"
       d="M 160.98,67.91 C 160.96,68.6 160.77,69.25 160.42,69.85 C 159.31,71.41 158,72.75 156.49,73.87 C 156.08,73.32 156.11,72.77 156.58,72.21 C 157.67,70.88 158.8,69.59 159.98,68.33 C 160.27,68.08 160.6,67.93 160.98,67.91 Z M 175.03,67.91 C 174.75,68.78 174.22,69.47 173.43,69.97 C 171.07,71.93 168.61,73.77 166.06,75.47 C 165.09,76.57 164.04,77.57 162.9,78.48 C 162.32,78.85 161.75,78.86 161.18,78.51 C 162.23,77.26 163.37,76.09 164.61,75 C 167.51,72.91 170.35,70.74 173.13,68.49 C 173.71,68.12 174.34,67.93 175.03,67.91 Z"
       id="path12" />
  </g>
  <g
     id="g13">
    <path
       fill="#edc794"
       d="M 160.98,67.91 C 160.99,67.25 161.18,66.65 161.55,66.11 C 164.12,62.98 166.75,59.88 169.43,56.83 C 169.69,56.42 170.06,56.18 170.54,56.11 C 170.94,56.71 170.89,57.3 170.39,57.88 C 167.6,60.78 165,63.85 162.61,67.09 C 162.15,67.54 161.61,67.82 160.98,67.91 Z M 88.9,62.94 C 89.86,62.98 90.7,63.33 91.41,63.97 C 92.08,64.68 92.8,65.32 93.57,65.91 C 93.8,66.22 93.92,66.57 93.91,66.95 C 92.17,66.41 90.68,65.43 89.45,64.03 C 89.15,63.73 88.96,63.36 88.9,62.94 Z"
       id="path13" />
  </g>
  <g
     id="g14">
    <path
       fill="#f6dfc0"
       d="M 117.18,49.92 C 117.14,49.65 117.23,49.44 117.44,49.3 C 118.65,51.69 119.77,54.13 120.79,56.62 C 121.66,59.66 122.76,62.61 124.09,65.48 C 124.29,66.19 124.27,66.9 124.06,67.6 C 123.89,67.69 123.72,67.77 123.55,67.86 C 123.09,67.59 122.79,67.19 122.65,66.67 C 122.11,64.62 121.49,62.58 120.81,60.58 C 120.39,59.68 119.95,58.8 119.49,57.92 C 118.46,55.32 117.69,52.65 117.18,49.92 Z"
       id="path14" />
  </g>
  <g
     id="g15">
    <path
       fill="#ecb97a"
       d="M 136.06,41.92 C 136.38,41.91 136.7,41.9 137.02,41.89 C 137.11,47.77 137.13,53.65 137.07,59.53 C 136.98,61.98 136.76,64.39 136.41,66.76 C 135.84,66.16 135.59,65.43 135.67,64.57 C 135.71,57.02 135.84,49.47 136.06,41.92 Z"
       id="path15" />
  </g>
  <g
     id="g16">
    <path
       fill="#f2cd99"
       d="M 171.28,54.84 C 171.7,53.57 172.5,52.62 173.68,52.01 C 174.17,52.25 174.3,52.65 174.08,53.19 C 173.58,54.5 172.64,55.05 171.28,54.84 Z M 184.06,61.07 C 183.39,62.74 182.17,63.72 180.39,64.02 C 180.28,63.89 180.16,63.76 180.05,63.63 C 180.93,62.08 182.26,61.22 184.06,61.07 Z M 70.23,66.63 C 70.1,65.46 70.56,65.15 71.58,65.7 C 73.36,66.63 75.14,67.57 76.91,68.52 C 77.46,68.77 77.85,69.18 78.07,69.74 C 77.7,70.16 77.25,70.23 76.72,69.97 C 74.57,68.84 72.4,67.72 70.23,66.63 Z"
       id="path16" />
  </g>
  <g
     id="g17">
    <path
       fill="#f1ca97"
       d="M 69.08,47.15 C 69.75,47.04 70.35,47.18 70.89,47.59 C 71.79,48.36 72.66,49.17 73.5,50 C 73.79,50.3 73.95,50.66 73.97,51.07 C 73.55,51.02 73.14,50.92 72.75,50.76 C 71.82,50 70.86,49.28 69.87,48.59 C 69.32,48.26 69.05,47.78 69.08,47.15 Z M 83.98,58.85 C 84.66,58.98 85.31,59.22 85.91,59.57 C 86.76,60.41 87.66,61.18 88.62,61.88 C 88.88,62.19 88.97,62.54 88.9,62.94 C 88.5,62.94 88.11,62.86 87.74,62.7 C 86.83,61.95 85.87,61.26 84.89,60.61 C 84.33,60.15 84.02,59.57 83.98,58.85 Z M 175.03,67.91 C 175.41,66.9 176.07,66.08 177.01,65.46 C 177.45,65 177.98,64.79 178.61,64.83 C 178.73,64.99 178.84,65.15 178.96,65.31 C 178.1,66.86 176.79,67.72 175.03,67.91 Z"
       id="path17" />
  </g>
  <g
     id="g18">
    <path
       fill="#e7c493"
       d="M 232.19,100.37 C 235.97,101.59 239.78,102.67 243.64,103.61 C 245.26,103.75 246.87,103.96 248.47,104.24 C 248.81,104.43 248.97,104.71 248.96,105.1 C 247.5,105.29 246.05,105.31 244.58,105.13 C 242.92,104.74 241.24,104.39 239.56,104.09 C 237.22,103.51 234.94,102.78 232.7,101.89 C 232.33,101.72 232.06,101.46 231.88,101.11 C 231.98,100.86 232.09,100.62 232.19,100.37 Z"
       id="path18" />
  </g>
  <g
     id="g19">
    <path
       fill="#f6d9ae"
       d="M 191.02,71.92 C 191.01,71.25 191.23,70.68 191.67,70.19 C 193.69,69.22 195.7,68.24 197.71,67.26 C 198.92,67.31 199.15,67.81 198.38,68.76 C 196.57,69.69 194.74,70.6 192.9,71.49 C 192.29,71.71 191.66,71.86 191.02,71.92 Z"
       id="path19" />
  </g>
  <g
     id="g20">
    <path
       fill="#f5d5a6"
       d="M 196.86,50.99 C 196.86,51.64 196.61,52.16 196.09,52.56 C 194.21,54.09 192.33,55.61 190.45,57.13 C 189.71,57.61 188.89,57.84 188,57.81 C 188.34,56.75 189.01,55.95 190.01,55.4 C 191.84,54.29 193.54,53.01 195.11,51.55 C 195.64,51.19 196.23,51.01 196.86,50.99 Z"
       id="path20" />
  </g>
  <g
     id="g21">
    <path
       fill="#efc086"
       d="M 69.08,47.15 C 68.12,46.99 67.28,46.58 66.55,45.94 C 65.51,45.27 64.67,44.42 64.04,43.41 C 64.62,42.91 65.22,42.94 65.83,43.49 C 66.78,44.31 67.7,45.15 68.6,46 C 68.87,46.34 69.02,46.73 69.08,47.15 Z"
       id="path21" />
  </g>
  <g
     id="g22">
    <path
       fill="#eacb9e"
       d="M 248.96,105.1 C 251.14,104.7 253.34,104.6 255.55,104.79 C 257.5,105.21 257.52,105.58 255.61,105.91 C 253.59,106.09 251.58,106.02 249.58,105.7 C 249.27,105.6 249.06,105.4 248.96,105.1 Z"
       id="path22" />
  </g>
  <g
     id="g23">
    <path
       fill="#f6d39e"
       d="M 200.97,47.89 C 201.34,46.83 202.04,46.04 203.08,45.52 C 203.6,45.15 204.13,45.13 204.67,45.44 C 204.02,47.18 202.78,47.99 200.97,47.89 Z"
       id="path23" />
  </g>
  <g
     id="g24">
    <path
       fill="#f0cc9f"
       d="M 103.94,60.85 C 103.57,60.91 103.25,60.8 102.99,60.53 C 101.88,59.74 101.19,58.7 100.92,57.4 C 101.06,57.28 101.21,57.16 101.35,57.04 C 102.27,57.49 102.95,58.19 103.42,59.12 C 103.79,59.64 103.97,60.21 103.94,60.85 Z"
       id="path24" />
  </g>
  <g
     id="g25">
    <path
       fill="#eec489"
       d="M 165.8,84.24 C 166.06,83.34 166.66,82.87 167.6,82.84 C 168,83.24 167.92,83.59 167.36,83.89 C 166.87,84.12 166.35,84.24 165.8,84.24 Z"
       id="path25" />
  </g>
  <g
     id="g26">
    <path
       fill="#e3bd88"
       d="M 232.19,100.37 C 232.09,100.62 231.98,100.86 231.88,101.11 C 231.11,101.09 230.36,100.99 229.62,100.81 C 221.2,97.41 212.47,95.36 203.41,94.67 C 200.44,94.75 197.46,94.75 194.49,94.65 C 182.86,95.78 171.49,98.13 160.37,101.7 C 152.47,103.75 144.51,105.56 136.49,107.12 C 133.47,107.44 130.45,107.82 127.44,108.27 C 123.13,108.62 118.82,108.8 114.5,108.81 C 108.56,108.47 102.63,108.09 96.7,107.65 C 93.01,106.99 89.32,106.31 85.65,105.61 C 78.23,103.78 70.83,101.9 63.45,99.96 C 59.81,99.23 56.16,98.56 52.5,97.95 C 44.86,97.02 37.2,96.81 29.53,97.34 C 24.36,98.01 19.32,99.16 14.41,100.78 C 13.98,100.85 13.59,100.77 13.23,100.55 C 15.99,99.4 18.78,98.33 21.61,97.35 C 25.29,96.65 28.98,95.99 32.68,95.39 C 37.63,95.13 42.59,95.11 47.55,95.31 C 52.35,96 57.14,96.73 61.93,97.5 C 69.12,99.34 76.31,101.17 83.5,103.01 C 89.45,104.34 95.45,105.45 101.49,106.33 C 107.45,107 113.43,107.31 119.45,107.24 C 124.43,106.98 129.38,106.46 134.3,105.66 C 137.65,105.01 141.01,104.36 144.36,103.7 C 152.44,101.52 160.54,99.41 168.67,97.37 C 174.01,96.36 179.34,95.34 184.67,94.32 C 188.27,93.94 191.86,93.59 195.45,93.27 C 202.53,92.91 209.53,93.54 216.43,95.15 C 221.76,96.65 227.02,98.39 232.19,100.37 Z"
       id="path26" />
  </g>
  <path
     fill="#eeb870"
     stroke="#eeb870"
     stroke-width="0.5"
     d="m 117.01,76.69 c 0.75,0.19 0.96,0.62 0.62,1.29 -0.91,0.74 -1.65,1.61 -2.24,2.61 0.95,0.46 1.96,0.58 3.04,0.37 1.01,-0.34 2.04,-0.65 3.07,-0.92 0.69,0.1 1.34,0.29 1.98,0.58 0.84,-0.16 1.57,-0.55 2.18,-1.16 -1.1,-0.36 -2.22,-0.7 -3.35,-1 0.33,-0.26 0.71,-0.39 1.15,-0.37 2.68,0 5.36,-0.02 8.03,-0.05 0.56,-0.04 0.98,0.17 1.28,0.64 0.29,0.78 0.14,1.45 -0.45,2 -2.09,0.39 -3.82,1.38 -5.18,2.97 0.21,0.86 0.74,1.49 1.57,1.89 -0.1,0.39 -0.34,0.69 -0.7,0.9 -0.94,0.39 -1.81,0.9 -2.59,1.55 -0.03,0.15 -0.05,0.3 -0.07,0.45 0.43,0.38 0.86,0.76 1.28,1.14 -0.48,0.63 -0.92,1.29 -1.33,1.96 0.22,0.49 0.27,0.98 0.15,1.48 -0.74,0.58 -1.49,1.14 -2.25,1.69 -0.51,0.84 -0.94,1.73 -1.29,2.65 -0.62,0.14 -1.27,0.18 -1.95,0.14 -0.65,0.47 -0.93,1.1 -0.83,1.89 0.76,1.51 0.28,2.31 -1.43,2.4 -0.39,-0.5 -0.79,-0.97 -1.23,-1.42 -0.65,0.19 -1.31,0.2 -1.97,0.02 -0.67,0.52 -1.4,0.96 -2.17,1.32 -2.44,-0.01 -4.87,0.13 -7.29,0.41 -0.19,-5.07 0.86,-9.87 3.12,-14.42 2.09,-4.37 5.04,-8.03 8.85,-11.01 z"
     id="path27" />
  <g
     id="g28">
    <path
       fill="#f2c484"
       stroke="#f2c484"
       stroke-width="0.5"
       d="M 158.25,81.02 C 157.92,81.59 157.49,82.09 156.97,82.51 C 155.93,82.71 155,83.12 154.17,83.74 C 154.08,84.23 154.25,84.61 154.68,84.87 C 155.55,85.35 156.42,85.83 157.29,86.33 C 157.62,86.58 157.8,86.92 157.82,87.34 C 156.48,87.84 155.08,87.97 153.64,87.75 C 152.69,87.08 151.72,86.43 150.74,85.79 C 150.62,85.22 150.47,84.67 150.28,84.15 C 149.37,84.56 148.44,84.65 147.49,84.41 C 147.06,85.14 146.44,85.59 145.65,85.77 C 144.98,85.4 144.27,85.13 143.53,84.96 C 141.96,85.06 140.44,84.89 138.98,84.45 C 138.46,84.94 137.97,85.45 137.49,85.97 C 137.28,86.34 137.28,86.72 137.49,87.1 C 138.15,87.82 138.89,87.86 139.7,87.22 C 140.07,87.07 140.39,87.14 140.65,87.43 C 140.41,88.08 139.95,88.51 139.28,88.73 C 138.09,88.85 136.89,89 135.7,89.16 C 135.55,89.74 135.48,90.36 135.49,91.01 C 134.85,91.7 134.2,92.38 133.54,93.04 C 133.42,93.54 133.45,94.04 133.61,94.54 C 132.77,94.66 131.9,94.66 131.01,94.55 C 129.69,95.45 128.97,96.69 128.83,98.28 C 127.92,98.68 127.04,99.13 126.19,99.65 C 126.2,99.84 126.21,100.02 126.22,100.21 C 127.45,101.53 128.72,102.82 130.02,104.08 C 123.2,105.1 116.35,105.41 109.46,105.02 C 108.28,104.94 107.12,104.74 105.98,104.42 C 105.49,103.73 105.17,102.97 105.04,102.12 C 107.46,101.84 109.89,101.7 112.33,101.71 C 113.1,101.35 113.83,100.91 114.5,100.39 C 115.16,100.57 115.82,100.56 116.47,100.37 C 116.91,100.82 117.31,101.29 117.7,101.79 C 119.41,101.7 119.89,100.9 119.13,99.39 C 119.03,98.6 119.31,97.97 119.96,97.5 C 120.64,97.54 121.29,97.5 121.91,97.36 C 122.26,96.44 122.69,95.55 123.2,94.71 C 123.96,94.16 124.71,93.6 125.45,93.02 C 125.57,92.52 125.52,92.03 125.3,91.54 C 125.71,90.87 126.15,90.21 126.63,89.58 C 126.21,89.2 125.78,88.82 125.35,88.44 C 125.37,88.29 125.39,88.14 125.42,87.99 C 126.2,87.34 127.07,86.83 128.01,86.44 C 128.37,86.23 128.61,85.93 128.71,85.54 C 127.88,85.14 127.35,84.51 127.14,83.65 C 128.5,82.06 130.23,81.07 132.32,80.68 C 132.91,80.13 133.06,79.46 132.77,78.68 C 132.47,78.21 132.05,78 131.49,78.04 C 128.82,78.07 126.14,78.09 123.46,78.09 C 123.02,78.07 122.64,78.2 122.31,78.46 C 123.44,78.76 124.56,79.1 125.66,79.46 C 125.05,80.07 124.32,80.46 123.48,80.62 C 122.84,80.33 122.19,80.14 121.5,80.04 C 120.47,80.31 119.44,80.62 118.43,80.96 C 117.35,81.17 116.34,81.05 115.39,80.59 C 115.98,79.59 116.72,78.72 117.63,77.98 C 117.97,77.31 117.76,76.88 117.01,76.69 C 121.56,73.04 126.76,71.05 132.58,70.71 C 140.72,69.92 147.98,72.1 154.36,77.24 C 155.75,78.41 157.04,79.67 158.25,81.02 Z"
       id="path28" />
  </g>
</svg>
