<?xml version="1.0" encoding="UTF-8" standalone="no"?>
<svg
   version="1.1"
   width="540.98468"
   height="102.41963"
   style="clip-rule:evenodd;fill-rule:evenodd;image-rendering:optimizeQuality;shape-rendering:geometricPrecision;text-rendering:geometricPrecision"
   id="svg69"
   sodipodi:docname="test1.svg"
   inkscape:version="1.4.4 (dcaf3e7, 2026-05-05)"
   xmlns:inkscape="http://www.inkscape.org/namespaces/inkscape"
   xmlns:sodipodi="http://sodipodi.sourceforge.net/DTD/sodipodi-0.dtd"
   xmlns="http://www.w3.org/2000/svg"
   xmlns:svg="http://www.w3.org/2000/svg">
  <defs
     id="defs69" />
  <sodipodi:namedview
     id="namedview69"
     pagecolor="#ffffff"
     bordercolor="#000000"
     borderopacity="0.25"
     inkscape:showpageshadow="2"
     inkscape:pageopacity="0.0"
     inkscape:pagecheckerboard="0"
     inkscape:deskcolor="#d1d1d1"
     inkscape:zoom="3.3132969"
     inkscape:cx="267.86009"
     inkscape:cy="51.761132"
     inkscape:window-width="2400"
     inkscape:window-height="1261"
     inkscape:window-x="2391"
     inkscape:window-y="-9"
     inkscape:window-maximized="1"
     inkscape:current-layer="svg69" />
  <g
     id="g1"
     transform="translate(-6.78,-2.0703676)">
    <path
       fill="#5f4b34"
       d="m 274.36,8.97 c 1.39,-0.1 2.78,-0.1 4.17,-0.02 0.72,0.05 1.21,0.4 1.47,1.05 -1.96,0.31 -3.42,1.34 -4.39,3.1 -0.28,0.98 -0.69,1.9 -1.23,2.75 -0.38,-0.33 -0.54,-0.75 -0.5,-1.27 0.1,-1.87 0.26,-3.75 0.48,-5.61 z m 23.76,0.99 c -3.1,4.71 -6.24,9.39 -9.44,14.04 -0.59,1.16 -1.12,2.35 -1.61,3.55 -2.98,4.48 -5.97,8.96 -8.95,13.44 -0.68,0.53 -1.28,1.15 -1.79,1.86 -0.28,0.06 -0.55,0.13 -0.83,0.19 -1.13,0.2 -2.03,-0.14 -2.69,-1 3.09,-4.83 6.25,-9.62 9.49,-14.35 0.52,-1.12 1.02,-2.25 1.51,-3.39 2.94,-4.45 5.91,-8.88 8.91,-13.29 0.57,-0.71 1.19,-1.36 1.87,-1.95 0.97,-0.2 1.95,-0.22 2.94,-0.07 0.47,0.16 0.66,0.48 0.59,0.97 z M 400.85,9.35 c 2.56,-0.42 5.12,-0.47 7.68,-0.15 0.43,0.19 0.59,0.52 0.5,0.96 -0.53,1.41 -0.42,2.79 0.33,4.14 2.19,4.92 4.11,9.95 5.76,15.07 1.25,3.17 2.67,6.25 4.24,9.23 0.42,-0.43 0.66,-0.96 0.72,-1.6 0.37,0.27 0.74,0.55 1.1,0.83 -0.72,2.22 -1.47,4.41 -2.27,6.6 -0.6,0.76 -1.22,0.77 -1.86,0.04 -4.4,-10.67 -8.71,-21.37 -12.92,-32.11 -0.55,-1.58 -1.65,-2.58 -3.28,-3.01 z m -62.09,2.72 c 0.25,-2.19 1.35,-2.74 3.3,-1.64 0.84,1.34 0.57,2.41 -0.82,3.2 -1.26,0.18 -2.08,-0.34 -2.48,-1.56 z m 155.42,28.7 c -0.06,-0.24 -0.11,-0.48 -0.16,-0.73 0.49,-0.77 0.8,-1.61 0.91,-2.52 -0.04,-1.44 -0.07,-2.87 -0.11,-4.31 0.06,-0.6 -0.16,-1.07 -0.66,-1.39 0.81,-2.49 0.86,-5 0.12,-7.53 -1.55,-2.72 -3.64,-3.24 -6.27,-1.55 -0.37,0.21 -0.6,0.53 -0.68,0.95 0.14,1.24 -0.03,2.44 -0.51,3.58 -0.89,0.87 -1.81,0.9 -2.75,0.11 -0.62,-2.39 0.16,-4.19 2.35,-5.4 2.57,-1.68 5.32,-2.07 8.24,-1.16 2.08,0.87 3.22,2.42 3.4,4.67 0.05,4.98 0.09,9.95 0.14,14.93 0.03,0.5 0.24,0.92 0.62,1.25 0.83,0.02 1.6,0.2 2.3,0.55 -0.32,2.12 -1.53,3.11 -3.63,2.97 -0.61,-0.03 -1.1,-0.27 -1.48,-0.74 -0.47,-1.3 -1.08,-2.53 -1.83,-3.68 z m 23.21,-4.35 c -0.06,-0.38 -0.13,-0.77 -0.2,-1.15 0.65,-0.52 1.16,-1.16 1.53,-1.9 1.34,-3.44 1.13,-6.77 -0.62,-10 -1.29,-1.77 -2.97,-2.33 -5.04,-1.66 -0.38,-0.34 -0.71,-0.71 -1.01,-1.12 0.8,-0.24 1.62,-0.36 2.46,-0.36 2.33,0.44 4.66,0.89 6.99,1.34 1.34,0.04 2.67,-0.09 3.98,-0.37 0.43,-0.01 0.77,0.15 1.02,0.48 -0.05,0.65 -0.38,1.11 -0.99,1.36 -0.95,0.13 -1.91,0.19 -2.88,0.17 -0.15,0.14 -0.29,0.28 -0.44,0.42 0.49,1.59 0.83,3.22 1.02,4.88 -0.04,4.03 -1.97,6.67 -5.82,7.91 z M 314.25,20.64 c 0.54,0.27 0.87,0.7 0.99,1.29 -1.59,0.54 -2.78,1.56 -3.57,3.07 -0.77,2.44 -1.26,4.94 -1.46,7.5 0.01,3.56 1.21,6.64 3.59,9.26 0.67,0.57 1.41,1.04 2.22,1.39 0.09,0.77 0.03,1.52 -0.18,2.26 -1.68,0.04 -2.88,-0.69 -3.6,-2.18 -0.67,-0.33 -1.33,-0.69 -1.97,-1.09 -2.59,-2.3 -3.95,-5.18 -4.08,-8.64 0.15,-3.02 0.92,-5.89 2.29,-8.6 1.5,-2 3.42,-3.42 5.77,-4.26 z m 5.46,-0.04 c 2.61,0.43 4.75,1.68 6.41,3.76 0.64,1.39 1.21,2.81 1.7,4.28 1.2,4 0.68,7.77 -1.56,11.29 -1.6,1.7 -3.28,3.3 -5.01,4.81 -0.68,0.3 -1.38,0.52 -2.1,0.66 -0.16,-0.68 -0.23,-1.36 -0.2,-2.06 2.13,-0.8 3.58,-2.27 4.37,-4.4 1.4,-4.76 1.11,-9.44 -0.85,-14.01 -0.9,-1.41 -2.1,-2.49 -3.59,-3.22 0.2,-0.43 0.47,-0.8 0.83,-1.11 z m 22.67,0.39 c -0.07,0.29 -0.15,0.57 -0.22,0.86 -1,0.53 -1.83,1.26 -2.5,2.17 -0.54,1.43 -0.96,2.89 -1.27,4.39 0.56,0.59 1.27,0.89 2.12,0.88 2.65,0.14 5.29,0.03 7.91,-0.33 0.46,-0.36 0.67,-0.84 0.61,-1.43 0.16,-2.59 -0.9,-4.48 -3.16,-5.68 0.1,-0.62 0.45,-1.01 1.07,-1.18 0.75,0.17 1.47,0.45 2.15,0.82 2.71,1.93 3.98,4.58 3.82,7.93 -0.24,0.6 -0.68,0.93 -1.32,0.99 -4.3,-0.14 -8.6,-0.18 -12.9,-0.12 -0.5,0.63 -0.7,1.37 -0.58,2.21 0.1,4.57 2.3,7.57 6.61,9 2.96,0.36 5.39,-0.58 7.31,-2.84 0.28,-0.32 0.6,-0.37 0.95,-0.17 0.03,0.57 -0.11,1.09 -0.42,1.57 -1.53,1.47 -2.99,3 -4.37,4.6 -2.47,0.99 -4.95,1.02 -7.44,0.09 -1.77,-1.58 -3.38,-3.31 -4.82,-5.19 -0.54,-0.95 -0.93,-1.97 -1.15,-3.05 -0.74,-4.54 0.11,-8.76 2.55,-12.68 1.27,-1.73 2.95,-2.67 5.05,-2.84 z M 373,20.88 c 0.04,0.25 0.08,0.5 0.12,0.76 -0.86,0.44 -1.44,1.12 -1.75,2.03 -0.77,2.38 -0.09,4.2 2.05,5.49 1.64,1.04 3.31,2.01 5.04,2.9 0.82,0.5 1.53,1.11 2.13,1.86 2.36,3.71 1.72,6.79 -1.92,9.26 -0.35,0.65 -0.77,1.23 -1.27,1.74 -2.29,0.53 -4.59,0.54 -6.89,0.04 -0.56,-0.02 -1.03,-0.23 -1.4,-0.65 -1.17,-1.78 -1.55,-3.74 -1.14,-5.87 -0.02,-0.45 0.11,-0.84 0.38,-1.17 0.57,1.08 1.11,2.18 1.62,3.3 2.13,2.7 4.68,3.21 7.65,1.52 1.66,-2.08 1.57,-4.08 -0.28,-6.01 -2.22,-1.47 -4.46,-2.9 -6.73,-4.29 -1.97,-1.63 -2.76,-3.72 -2.37,-6.26 0.42,-2.77 2,-4.32 4.76,-4.65 z m 164.16,-0.09 c -0.04,0.38 -0.08,0.77 -0.12,1.16 -0.62,0.21 -1.14,0.55 -1.59,1.02 -1.44,1.83 -2.17,3.92 -2.17,6.28 -0.01,0.49 -0.06,0.98 -0.13,1.47 -0.5,3.12 0.21,5.94 2.12,8.46 2.65,2.73 5.68,3.26 9.08,1.61 0.8,-0.77 1.67,-1.43 2.61,-1.98 0.04,0.31 0.07,0.62 0.11,0.94 -1.46,1.83 -3.03,3.55 -4.72,5.17 -2.23,0.61 -4.46,0.59 -6.7,-0.06 -1.01,-1.3 -2.19,-2.44 -3.54,-3.41 -1.61,-1.83 -2.53,-3.97 -2.75,-6.41 -0.22,-3.29 0.38,-6.44 1.78,-9.45 0.8,-1.46 1.86,-2.71 3.17,-3.74 0.85,-0.63 1.8,-0.98 2.85,-1.06 z M 299.28,43.08 c -1.59,-0.04 -3.17,-0.16 -4.75,-0.37 -0.31,-0.08 -0.48,-0.26 -0.5,-0.56 2.85,-1.19 4.65,-3.28 5.42,-6.27 0.8,-0.95 1.21,-0.8 1.21,0.44 -0.4,2.27 -0.86,4.52 -1.38,6.76 z m 210.16,-7.02 c 0.93,0.08 1.51,0.57 1.74,1.48 -1.12,0.53 -1.62,1.38 -1.5,2.55 1.06,1.03 2.35,1.55 3.87,1.55 2.87,-0.06 5.7,0.19 8.51,0.74 0.73,0.25 1.34,0.67 1.84,1.26 1.11,1.45 1.81,3.08 2.09,4.87 -0.12,2.12 -0.96,3.93 -2.49,5.43 -0.72,0.66 -1.55,1.11 -2.51,1.34 -0.03,-0.34 -0.07,-0.67 -0.11,-1.01 0.55,-0.38 1.05,-0.81 1.51,-1.29 1.73,-3.48 0.72,-5.7 -3.06,-6.66 -2.28,-0.17 -4.56,-0.31 -6.84,-0.41 -1.4,0.01 -2.6,0.48 -3.62,1.42 -1.21,1.86 -1.33,3.77 -0.37,5.76 2.45,2.36 5.34,3.22 8.69,2.56 0.34,0.41 0.62,0.86 0.85,1.34 -2.81,0.21 -5.61,0.14 -8.39,-0.21 -0.99,-0.26 -1.91,-0.67 -2.76,-1.25 -2.04,-1.56 -2.61,-3.52 -1.7,-5.9 1.05,-1.5 2.24,-2.84 3.58,-4.03 -0.45,-0.87 -0.95,-1.72 -1.49,-2.55 -0.46,-1.15 -0.42,-2.29 0.12,-3.41 0.78,-1.15 1.46,-2.34 2.04,-3.58 z"
       id="path1" />
  </g>
  <g
     id="g2"
     transform="translate(-6.78,-2.0703676)">
    <path
       fill="#8f816e"
       d="m 298.12,9.96 c 0.07,-0.49 -0.12,-0.81 -0.59,-0.97 -0.99,-0.15 -1.97,-0.13 -2.94,0.07 -0.68,0.59 -1.3,1.24 -1.87,1.95 -0.07,-0.7 -0.46,-1.05 -1.19,-1.06 C 287.69,9.92 283.85,9.93 280,10 c -0.26,-0.65 -0.75,-1 -1.47,-1.05 -1.39,-0.08 -2.78,-0.08 -4.17,0.02 -0.21,-1.03 0.17,-1.67 1.15,-1.94 7.33,-0.07 14.66,-0.07 21.99,-0.01 1.24,0.28 1.63,1.04 1.19,2.28 -0.08,0.32 -0.27,0.54 -0.57,0.66 z M 410.85,71 c 0.02,-1.17 0.04,-2.35 0.06,-3.52 -0.01,-0.59 0.23,-1.04 0.72,-1.35 0.92,-0.2 1.84,-0.16 2.75,0.12 1.67,0.86 2.03,2.11 1.07,3.74 -0.85,0.56 -1.78,0.94 -2.79,1.15 -0.39,0.62 -0.77,1.24 -1.15,1.85 -0.49,-0.56 -0.71,-1.22 -0.66,-1.99 z m 86.02,-0.98 c -1.08,-0.13 -1.71,0.32 -1.9,1.34 -0.35,-0.2 -0.66,-0.15 -0.92,0.16 -0.21,0.79 -0.69,1.28 -1.43,1.48 -0.42,-0.41 -0.6,-0.9 -0.54,-1.49 0.03,-1.01 0.05,-2.01 0.04,-3.02 -0.26,-1.87 0.53,-2.69 2.39,-2.48 1.69,0.03 2.67,0.86 2.93,2.48 0,0.59 -0.19,1.1 -0.57,1.53 z m -84.63,-2.14 c -0.08,1.32 0.5,1.84 1.72,1.56 1.03,-1.01 0.84,-1.75 -0.56,-2.22 -0.63,-0.15 -1.01,0.08 -1.16,0.66 z m 81.59,0.13 c 0.46,1.23 1.13,1.37 2.03,0.44 -0.12,-0.72 -0.56,-1.08 -1.3,-1.08 -0.38,0.06 -0.62,0.27 -0.73,0.64 z"
       id="path2" />
  </g>
  <g
     id="g3"
     transform="translate(-6.78,-2.0703676)">
    <path
       fill="#9b8d7d"
       d="m 319.71,20.6 c -0.36,0.31 -0.63,0.68 -0.83,1.11 -1.2,0.23 -2.41,0.3 -3.64,0.22 -0.12,-0.59 -0.45,-1.02 -0.99,-1.29 0.65,-0.45 1.4,-0.66 2.24,-0.63 1.13,-0.14 2.22,-0.02 3.28,0.36 -0.02,0.08 -0.04,0.16 -0.06,0.23 z m 222.26,0.04 c -0.67,0.21 -0.99,0.66 -0.98,1.35 -1.32,-0.07 -2.63,-0.09 -3.95,-0.04 0.04,-0.39 0.08,-0.78 0.12,-1.16 0.22,-0.56 0.66,-0.82 1.31,-0.76 1.24,-0.16 2.4,0.05 3.5,0.61 z M 315.01,70 c 0.23,-2.79 1.72,-4.13 4.49,-4.03 2.28,0.55 3.41,2.02 3.37,4.4 -0.59,2.16 -2,3.32 -4.24,3.48 -2.09,-0.46 -3.3,-1.74 -3.62,-3.85 z M 326,68 c -0.1,-1 0.31,-1.54 1.26,-1.62 0.36,0.3 0.53,0.69 0.51,1.17 -0.08,1.32 -0.01,2.63 0.22,3.92 0.65,0.68 1.41,0.82 2.29,0.42 0.42,-0.34 0.61,-0.78 0.57,-1.32 0.01,-1.05 0.04,-2.09 0.08,-3.14 0.4,-1.54 0.83,-1.53 1.3,0.03 0.1,1.35 0.08,2.7 -0.05,4.06 -0.75,2.13 -2.18,2.79 -4.29,1.97 -1.14,-0.66 -1.73,-1.66 -1.78,-3.02 C 326.02,69.65 325.98,68.82 326,68 Z m 146.1,2 c 0.35,-2.62 1.82,-3.97 4.41,-4.05 0.78,0.07 1.44,0.41 1.96,0.99 0.24,0.35 0.19,0.64 -0.14,0.89 -1.1,-0.34 -2.2,-0.42 -3.32,-0.24 -1.04,1.06 -1.29,2.3 -0.77,3.73 0.18,0.18 0.35,0.35 0.52,0.53 1.22,0.21 2.45,0.28 3.69,0.22 0.2,0.54 0.03,0.94 -0.52,1.22 -1.25,0.69 -2.51,0.71 -3.78,0.06 C 473.2,72.4 472.52,71.28 472.1,70 Z m -155.42,0.01 c 0.5,1.98 1.71,2.6 3.65,1.84 0.87,-0.95 1.03,-2.03 0.49,-3.24 -0.87,-1.43 -2.03,-1.69 -3.46,-0.78 -0.41,0.66 -0.64,1.39 -0.68,2.18 z"
       id="path3" />
  </g>
  <g
     id="g4"
     transform="translate(-6.78,-2.0703676)">
    <path
       fill="#8c7d6b"
       d="m 409.03,10.16 c 0.09,-0.44 -0.07,-0.77 -0.5,-0.96 -2.56,-0.32 -5.12,-0.27 -7.68,0.15 -0.67,-0.11 -1.17,-0.46 -1.48,-1.06 -0.03,-0.76 0.35,-1.18 1.13,-1.24 3.67,0.02 7.33,0.02 10.99,0 1.15,0.22 1.41,0.81 0.77,1.76 -1.01,0.59 -2.09,1.05 -3.23,1.35 z m 25.16,-0.45 c -1.14,-0.61 -2.38,-0.88 -3.71,-0.82 -1.07,-0.11 -1.88,0.24 -2.45,1.07 -1.19,-0.15 -2.14,-0.69 -2.85,-1.62 -0.02,-0.86 0.42,-1.31 1.31,-1.33 3.03,0.03 6.05,0.04 9.07,0.02 0.6,0.3 0.8,0.77 0.61,1.41 -0.37,0.88 -1.03,1.3 -1.98,1.27 z m -61.07,11.93 c -0.04,-0.26 -0.08,-0.51 -0.12,-0.76 0.28,-0.61 0.78,-0.89 1.49,-0.83 2.01,-0.07 3.86,0.44 5.54,1.53 0.63,1.55 0.9,3.16 0.82,4.83 -0.22,0.53 -0.59,0.7 -1.12,0.52 -0.5,-1.41 -1.11,-2.78 -1.84,-4.1 -1.47,-0.84 -3.06,-1.24 -4.77,-1.19 z m -57.1,21.51 c 0.99,-0.12 1.97,-0.05 2.93,0.19 -0.03,0.7 0.04,1.38 0.2,2.06 -1.1,0.39 -2.2,0.39 -3.31,0.01 0.21,-0.74 0.27,-1.49 0.18,-2.26 z"
       id="path4" />
  </g>
  <g
     id="g5"
     transform="translate(-6.78,-2.0703676)">
    <path
       fill="#7d6e5c"
       d="m 278.12,40.99 c 0.08,0.77 0.52,1.17 1.32,1.19 4.87,-0.02 9.73,-0.03 14.59,-0.03 0.02,0.3 0.19,0.48 0.5,0.56 1.58,0.21 3.16,0.33 4.75,0.37 0.03,1.22 -0.56,1.86 -1.76,1.92 -8.01,0.05 -16.02,0.04 -24.03,-0.02 -0.57,0.04 -1.01,-0.18 -1.32,-0.65 -0.19,-0.89 0.02,-1.65 0.64,-2.29 0.66,0.86 1.56,1.2 2.69,1 0.28,-0.06 0.55,-0.13 0.83,-0.19 0.51,-0.71 1.11,-1.33 1.79,-1.86 z"
       id="path5" />
  </g>
  <g
     id="g6"
     transform="translate(-6.78,-2.0703676)">
    <path
       fill="#958777"
       d="m 382.95,69.99 c 0.43,-3.24 2.23,-4.48 5.41,-3.74 2.5,1.5 3.01,3.51 1.52,6.01 -2.55,2.26 -4.75,1.95 -6.58,-0.94 -0.2,-0.43 -0.31,-0.87 -0.35,-1.33 z m 99.15,2.97 c 0.59,-2.1 1.38,-4.13 2.37,-6.09 0.18,-0.42 0.49,-0.6 0.94,-0.54 0.64,0.41 1.1,0.98 1.37,1.7 0.56,1.3 1.09,2.61 1.57,3.94 0.21,0.33 0.2,0.63 -0.05,0.92 -1.18,-0.6 -2.45,-0.91 -3.79,-0.92 -0.27,0.09 -0.54,0.18 -0.82,0.27 -0.38,0.49 -0.78,0.97 -1.19,1.44 -0.27,-0.16 -0.41,-0.4 -0.4,-0.72 z M 384.27,70 c 0.46,1.63 1.52,2.34 3.21,2.13 1.28,-0.39 1.81,-1.27 1.59,-2.62 -0.54,-2.1 -1.77,-2.66 -3.69,-1.67 -0.54,0.63 -0.91,1.35 -1.11,2.16 z m 100.54,-0.01 c 0.65,0.83 0.99,0.68 1,-0.45 -0.11,-0.13 -0.23,-0.26 -0.34,-0.4 -0.38,0.16 -0.6,0.44 -0.66,0.85 z"
       id="path6" />
  </g>
  <g
     id="g7"
     transform="translate(-6.78,-2.0703676)">
    <path
       fill="#a19485"
       d="m 547.08,27.12 c 0.19,-0.04 0.38,-0.09 0.57,-0.13 -0.03,1.11 0,2.22 0.08,3.33 -0.11,0.13 -0.22,0.25 -0.33,0.37 -4.75,0.24 -9.5,0.25 -14.25,0.03 0.07,-0.49 0.12,-0.98 0.13,-1.47 3.2,-0.44 6.4,-0.43 9.6,0.04 0.08,0.35 0.3,0.56 0.67,0.64 0.95,0.13 1.91,0.13 2.87,-0.02 0.15,-0.17 0.31,-0.34 0.46,-0.5 0.07,-0.77 0.14,-1.53 0.2,-2.29 z m -109.86,39.1 c 1.43,-0.27 2.87,-0.35 4.32,-0.24 0.47,-0.01 0.85,0.15 1.14,0.49 -0.45,0.46 -0.92,0.88 -1.44,1.27 -0.36,1.52 -0.52,3.07 -0.5,4.64 -0.5,0.84 -1.03,0.86 -1.59,0.07 -0.04,-1.58 -0.19,-3.13 -0.46,-4.68 -0.65,-0.39 -1.14,-0.91 -1.47,-1.55 z"
       id="path7" />
  </g>
  <g
     id="g9"
     transform="translate(-6.78,-2.0703676)">
    <path
       fill="#928372"
       d="m 520.88,54.27 c 0.04,0.34 0.08,0.67 0.11,1.01 -0.1,0.34 -0.32,0.59 -0.64,0.75 -0.76,0.35 -1.53,0.67 -2.31,0.96 -0.23,-0.48 -0.51,-0.93 -0.85,-1.34 1.19,-0.44 2.42,-0.9 3.69,-1.38 z m -102.09,17.8 c 0.57,-1.56 1.16,-3.13 1.76,-4.69 0.31,-0.75 0.86,-1.09 1.63,-1.02 0.64,0.77 1.17,1.62 1.59,2.55 0.21,0.96 0.52,1.88 0.91,2.78 0.36,2.35 -0.05,2.53 -1.23,0.56 -1.44,-0.45 -2.81,-0.27 -4.1,0.53 -0.4,-0.05 -0.59,-0.29 -0.56,-0.71 z m 9.87,-3.12 c -0.32,-2.24 0.62,-3.22 2.83,-2.92 1.53,0.14 2.34,0.95 2.45,2.44 -0.27,0.71 -0.55,1.43 -0.82,2.14 0.27,0.91 0.46,1.84 0.57,2.79 -0.26,0.14 -0.5,0.11 -0.72,-0.12 -0.6,-0.7 -1.17,-1.42 -1.74,-2.15 -0.2,-0.05 -0.4,-0.1 -0.61,-0.15 -0.42,0.66 -0.83,1.33 -1.23,2 -0.38,-0.39 -0.57,-0.86 -0.57,-1.42 -0.07,-0.87 -0.12,-1.74 -0.16,-2.61 z m 1.36,-1.12 c 0.06,0.91 0.56,1.37 1.48,1.37 0.56,-0.02 0.94,-0.27 1.16,-0.75 -0.23,-0.61 -0.65,-1 -1.29,-1.18 -0.6,-0.17 -1.05,0.02 -1.35,0.56 z m -8.97,2.3 c 0.39,0.74 0.9,0.82 1.52,0.27 0,-0.7 -0.33,-1.16 -0.99,-1.37 -0.42,0.24 -0.6,0.61 -0.53,1.1 z"
       id="path9" />
  </g>
  <g
     id="g10"
     transform="translate(-6.78,-2.0703676)">
    <path
       fill="#908272"
       d="m 305.67,67.09 c 0.38,-0.74 0.99,-1.11 1.82,-1.12 3.07,-0.02 4.58,1.5 4.52,4.54 -0.51,1.87 -1.75,2.92 -3.7,3.15 -0.79,0.21 -1.51,0.08 -2.15,-0.38 -0.32,-2.04 -0.48,-4.1 -0.49,-6.19 z M 445.95,69 c -0.13,-1 0.05,-1.92 0.53,-2.76 0.38,0.31 0.58,0.72 0.62,1.22 0.03,1.24 0.13,2.48 0.31,3.72 0.48,0.75 1.16,1.07 2.06,0.96 0.55,-0.07 0.92,-0.36 1.13,-0.87 0.06,-1.28 0.16,-2.56 0.31,-3.83 0.39,-1.52 0.76,-1.49 1.12,0.1 0.64,2.47 0,4.5 -1.93,6.08 -1.95,0.44 -3.28,-0.28 -4,-2.18 -0.12,-0.81 -0.17,-1.62 -0.15,-2.44 z m -138.99,0.93 c 0.1,2.24 1.12,2.75 3.07,1.55 0.95,-1.31 0.8,-2.48 -0.45,-3.51 -0.56,-0.42 -1.18,-0.68 -1.87,-0.76 -0.14,0.13 -0.29,0.25 -0.44,0.37 -0.22,0.77 -0.32,1.55 -0.31,2.35 z"
       id="path10" />
  </g>
  <g
     id="g12"
     transform="translate(-6.78,-2.0703676)">
    <path
       fill="#f2e1ca"
       d="m 340.23,94.24 c 1.07,-0.26 2.16,-0.37 3.27,-0.34 8.34,0.07 16.69,0.07 25.04,0.03 1.12,-0.12 1.78,0.35 2,1.42 -0.27,0.32 -0.62,0.44 -1.05,0.36 -9,-0.1 -18,-0.1 -27,-0.01 -1.29,0.26 -2.04,-0.23 -2.26,-1.46 z m 92.26,0.2 c 0.61,-0.37 1.27,-0.54 1.98,-0.51 8.69,-0.01 17.37,-0.02 26.05,-0.01 0.82,-0.09 1.49,0.16 2.02,0.74 -0.03,0.34 -0.21,0.59 -0.53,0.74 -0.81,0.24 -1.65,0.35 -2.51,0.34 -8.88,-0.01 -17.76,-0.07 -26.64,-0.18 -0.35,-0.29 -0.47,-0.67 -0.37,-1.12 z"
       id="path12" />
  </g>
  <g
     id="g13"
     transform="translate(-6.78,-2.0703676)">
    <path
       fill="#e3bc86"
       d="m 175.85,90.67 c 0.83,0.2 1.66,0.39 2.5,0.57 0.35,0.14 0.58,0.39 0.68,0.74 -2.46,0.38 -4.9,0.84 -7.33,1.37 -11.33,3.15 -22.73,6 -34.21,8.54 -7.61,1.41 -15.27,2.11 -22.99,2.12 -8.01,-0.17 -15.97,-0.89 -23.88,-2.15 C 77.94,98.83 65.22,95.95 52.48,93.2 44.65,92.08 36.79,91.76 28.89,92.24 c -0.73,-0.14 -1.47,-0.28 -2.21,-0.4 -0.38,-0.14 -0.61,-0.41 -0.7,-0.8 11.23,-1.72 22.39,-1.34 33.49,1.13 10.67,2.61 21.36,5.14 32.07,7.58 10.24,1.92 20.56,2.62 30.96,2.11 4.68,-0.54 9.35,-1.2 13.99,-1.99 13.13,-3.05 26.25,-6.12 39.36,-9.2 z"
       id="path13" />
  </g>
  <g
     id="g14"
     transform="translate(-6.78,-2.0703676)">
    <path
       fill="#e8c799"
       d="m 249.04,99.21 c 0.38,0.43 0.86,0.66 1.44,0.7 1.68,0.19 3.36,0.29 5.05,0.3 0.61,0 1.17,0.18 1.67,0.53 -2.9,0.24 -5.8,0.29 -8.71,0.16 -2.3,-0.46 -4.62,-0.82 -6.96,-1.06 -2.37,-0.52 -4.72,-1.11 -7.05,-1.77 -5.43,-2.07 -10.91,-3.95 -16.46,-5.64 -2.98,-0.81 -5.99,-1.44 -9.04,-1.89 -10.07,-1.17 -20.06,-0.69 -29.95,1.44 -0.1,-0.35 -0.33,-0.6 -0.68,-0.74 -0.84,-0.18 -1.67,-0.37 -2.5,-0.57 9.43,-2.16 18.98,-3.01 28.65,-2.53 4.04,0.34 8.03,1.02 11.96,2.02 7.4,2.5 14.81,4.97 22.23,7.43 1.7,0.22 3.35,0.6 4.98,1.14 1.79,0.18 3.58,0.34 5.37,0.48 z"
       id="path14" />
  </g>
  <g
     id="g15"
     transform="translate(-6.78,-2.0703676)">
    <path
       fill="#e3c599"
       d="m 381.96,88 c 0.38,-1.19 1.14,-1.45 2.28,-0.79 1.21,0.95 2.01,2.17 2.38,3.68 0.4,0.53 0.89,0.7 1.48,0.51 -0.01,-0.83 0.2,-1.59 0.62,-2.28 1.22,-0.29 1.94,0.2 2.15,1.46 0.02,1.19 0.24,2.34 0.66,3.45 1.57,0.83 3.22,1.45 4.98,1.84 1.66,0.24 3.33,0.46 4.99,0.65 2.47,-0.19 4.89,-0.51 7.26,-0.96 -0.31,-0.4 -0.71,-0.67 -1.19,-0.83 -1.45,-0.38 -2.88,-0.81 -4.27,-1.29 -1.43,-1.14 -2.43,-2.59 -3,-4.32 -0.14,-0.42 0,-0.7 0.41,-0.86 2.09,-0.13 3.85,0.61 5.27,2.2 0.59,1.07 1.25,2.09 1.97,3.06 2.31,1.3 4.78,1.73 7.4,1.26 1.47,-0.49 2.92,-1.02 4.37,-1.59 0.43,-0.18 0.76,-0.08 0.98,0.31 -0.51,0.78 -1.24,1.31 -2.18,1.56 -2.04,0.61 -4.06,1.26 -6.04,1.96 -0.56,0.42 -1.01,0.93 -1.35,1.54 -0.54,1.42 -1.25,2.76 -2.11,4.01 -0.93,0.99 -2.06,1.63 -3.39,1.92 -0.53,-0.51 -0.68,-1.13 -0.45,-1.86 0.15,-0.47 0.38,-0.9 0.69,-1.28 0.74,-0.67 1.45,-1.35 2.15,-2.04 0.24,-0.65 0.09,-1.19 -0.46,-1.62 -3.31,0.16 -6.63,0.28 -9.96,0.36 -0.82,1.2 -1.78,2.28 -2.9,3.26 -1.33,0.78 -2.76,1.06 -4.3,0.84 -0.52,-0.39 -0.63,-0.87 -0.31,-1.44 0.56,-0.82 1.11,-1.64 1.67,-2.46 0.79,-0.28 1.55,-0.62 2.28,-1.01 0.04,-0.49 -0.2,-0.81 -0.69,-0.96 -1.26,-0.4 -2.53,-0.75 -3.81,-1.05 -1.35,0.25 -2.69,0.53 -4.04,0.82 -0.95,0.14 -1.78,-0.1 -2.47,-0.73 -0.17,-0.53 -0.03,-0.96 0.4,-1.29 0.84,-0.16 1.66,-0.34 2.49,-0.54 0.16,-0.57 0.01,-1.06 -0.45,-1.47 -0.77,-0.57 -1.53,-1.16 -2.26,-1.77 -0.55,-0.68 -0.96,-1.43 -1.25,-2.25 z m 44.39,6.29 c 0.64,-0.3 1.3,-0.36 1.99,-0.18 0.62,0.58 0.61,1.16 -0.02,1.72 -1.35,0.34 -2,-0.18 -1.97,-1.54 z"
       id="path15" />
  </g>
  <g
     id="g16"
     transform="translate(-6.78,-2.0703676)">
    <path
       fill="#f2d4aa"
       d="m 67.96,86.99 c 0.02,-0.43 0.24,-0.72 0.64,-0.88 0.95,0.18 1.85,0.52 2.71,0.99 1.4,-0.12 2.81,-0.18 4.21,-0.17 0.99,0.33 1.98,0.64 2.98,0.91 6.99,0.83 13.97,1.81 20.94,2.94 1.61,0.43 1.66,0.91 0.18,1.44 -1.38,0.06 -2.75,-0.01 -4.11,-0.2 -5.14,-0.97 -10.28,-1.9 -15.42,-2.81 -2.31,0.21 -4.51,-0.18 -6.59,-1.16 -1.33,0 -2.65,-0.03 -3.98,-0.08 -0.62,-0.17 -1.14,-0.49 -1.56,-0.98 z"
       id="path16" />
  </g>
  <g
     id="g17"
     transform="translate(-6.78,-2.0703676)">
    <path
       fill="#f9dbb1"
       stroke="#f9dbb1"
       stroke-width="0.5"
       d="m 159.93,83.73 c 0.41,0.48 0.93,0.8 1.54,0.95 0.39,-0.06 0.65,-0.27 0.8,-0.63 0.62,1.81 1.23,3.63 1.81,5.46 0.21,0.92 -0.04,1.66 -0.77,2.21 -5.41,1.32 -10.86,2.54 -16.35,3.67 -3.55,1.27 -7.21,2.16 -10.96,2.64 0.07,-3.05 1.42,-5.36 4.05,-6.94 1.25,-0.55 2.56,-0.87 3.92,-0.98 1.87,0.14 3.71,0.4 5.54,0.79 0.46,0.05 0.85,-0.09 1.16,-0.4 -0.25,-0.5 -0.26,-0.97 0,-1.42 1.93,0.3 3.85,0.21 5.75,-0.26 1.55,-0.54 2.97,-1.31 4.26,-2.31 -0.49,-0.41 -1.01,-0.8 -1.56,-1.16 -0.06,-0.69 0.21,-1.23 0.81,-1.62 z"
       id="path17" />
  </g>
  <g
     id="g18"
     transform="translate(-6.78,-2.0703676)">
    <path
       fill="#eeb870"
       stroke="#eeb870"
       stroke-width="0.5"
       d="m 115.82,71.82 c 0.44,-0.01 0.76,0.18 0.94,0.57 -0.64,0.92 -1.37,1.8 -2.18,2.62 -0.24,0.33 -0.26,0.67 -0.05,1.02 0.44,0.41 0.97,0.58 1.57,0.54 1.32,-0.3 2.62,-0.68 3.89,-1.15 0.88,0.04 1.76,0.16 2.63,0.36 0.51,-0.02 1.01,-0.15 1.47,-0.38 0.61,-0.37 0.68,-0.8 0.22,-1.28 -0.98,-0.19 -1.95,-0.39 -2.91,-0.59 0.64,-0.31 1.31,-0.44 2.02,-0.41 1.72,0.4 3.46,0.5 5.21,0.32 1.25,0.39 2.27,1.11 3.04,2.18 -1.2,0.39 -2.45,0.69 -3.75,0.92 -0.96,0.53 -1.81,1.19 -2.56,1.98 0.5,0.7 1.03,1.39 1.6,2.06 0.1,0.5 -0.04,0.9 -0.42,1.22 -0.47,-0.16 -0.93,-0.18 -1.38,-0.08 -0.93,0.87 -1.04,1.81 -0.33,2.83 -0.13,0.66 -0.34,1.29 -0.65,1.9 0.33,0.5 0.43,1.03 0.3,1.57 -0.81,0.51 -1.64,1.01 -2.47,1.49 -0.54,0.81 -1.08,1.61 -1.61,2.4 -0.83,0.06 -1.6,0.29 -2.3,0.69 -0.12,0.74 -0.46,1.35 -1,1.82 -2.08,0.39 -4.06,1.06 -5.93,2.01 -1.12,0.14 -2.24,0.25 -3.36,0.34 -0.23,-0.46 -0.35,-0.95 -0.37,-1.46 -0.16,-0.54 -0.5,-0.84 -1.04,-0.91 -0.77,0.89 -1.59,1.77 -2.43,2.62 -0.04,-7.65 2.32,-14.49 7.09,-20.51 1.43,-1.73 3.02,-3.29 4.76,-4.69 z"
       id="path18" />
  </g>
  <g
     id="g19"
     transform="translate(-6.78,-2.0703676)">
    <path
       fill="#f5d5a9"
       d="m 183.18,81.7 c -0.27,-0.3 -0.54,-0.59 -0.82,-0.87 -0.01,-0.07 -0.03,-0.14 -0.05,-0.2 11.39,-3.2 22.8,-6.38 34.24,-9.54 0.59,-0.17 1.17,-0.14 1.75,0.06 0.27,0.28 0.26,0.56 -0.03,0.83 -0.53,0.43 -1.12,0.73 -1.79,0.91 -11.18,2.65 -22.28,5.59 -33.3,8.81 z"
       id="path19" />
  </g>
  <g
     id="g20"
     transform="translate(-6.78,-2.0703676)">
    <path
       fill="#f4ca8f"
       stroke="#f4ca8f"
       stroke-width="0.5"
       d="m 140.01,65.84 c 10.39,2.42 17.81,8.49 22.26,18.21 -0.15,0.36 -0.41,0.57 -0.8,0.63 -0.61,-0.15 -1.13,-0.47 -1.54,-0.95 -0.39,-0.39 -0.88,-0.53 -1.46,-0.41 -3.67,0.35 -7.34,0.61 -11.01,0.79 -0.45,-0.05 -0.8,-0.26 -1.04,-0.64 0.33,-0.7 0.72,-1.36 1.18,-1.98 -0.48,-0.38 -1,-0.42 -1.55,-0.14 -1.13,0.82 -2.18,1.72 -3.15,2.68 -1.2,0.5 -2.37,1.01 -3.52,1.52 0.77,0.43 1.49,0.92 2.18,1.47 0.33,0.39 0.34,0.77 0.01,1.14 -1.49,0.24 -2.97,0.49 -4.46,0.75 -3.5,0.93 -6.44,2.71 -8.85,5.37 1.06,0.12 2.09,0.38 3.07,0.79 0.58,0.83 1.05,1.71 1.42,2.66 -0.77,0.19 -1.36,0.61 -1.76,1.25 -2.66,0.4 -5.33,0.68 -8.02,0.85 0.12,-0.64 0.35,-1.24 0.69,-1.79 0.87,-0.38 1.57,-0.94 2.13,-1.68 -0.51,-0.41 -1.09,-0.68 -1.76,-0.79 -0.12,-0.19 -0.12,-0.37 0.02,-0.57 1.22,-1.64 2.43,-3.29 3.63,-4.96 2.65,-2.11 4.46,-4.77 5.41,-8 -0.08,-1.58 -0.11,-3.17 -0.1,-4.75 2.17,-0.35 2.28,0.05 0.34,1.21 0.22,0.65 0.66,1.08 1.33,1.31 1.4,0.67 2.4,0.3 2.99,-1.09 1.1,0.31 2.06,0.08 2.91,-0.69 -0.01,-0.54 -0.23,-1 -0.68,-1.38 -0.56,-0.07 -1.11,-0.16 -1.65,-0.27 -0.17,-0.42 -0.04,-0.74 0.36,-0.94 2.91,0.26 5.82,0.34 8.72,0.26 0.13,-0.12 0.25,-0.24 0.38,-0.35 -0.22,-0.46 -0.27,-0.93 -0.16,-1.4 0.48,-0.41 0.86,-0.89 1.14,-1.43 -1.49,0.09 -2.93,-0.2 -4.32,-0.87 -2.36,-1.31 -4.82,-2.4 -7.38,-3.29 -0.32,-0.21 -0.52,-0.49 -0.61,-0.86 1.07,-0.03 2.12,-0.19 3.16,-0.47 0.42,-0.3 0.58,-0.7 0.49,-1.19 z"
       id="path20" />
  </g>
  <g
     id="g21"
     transform="translate(-6.78,-2.0703676)">
    <path
       fill="#edc48d"
       d="m 160.06,62.83 c -0.07,0.78 -0.34,1.48 -0.81,2.11 -0.87,1.07 -1.73,2.14 -2.6,3.22 -0.28,0.37 -0.66,0.57 -1.12,0.62 -0.37,-0.59 -0.3,-1.15 0.22,-1.7 0.86,-1.09 1.73,-2.17 2.59,-3.24 0.47,-0.52 1.04,-0.85 1.72,-1.01 z m 13.89,-0.06 c 0.06,0.47 -0.06,0.89 -0.36,1.26 -4.03,3.3 -8.13,6.5 -12.29,9.63 -0.43,0.22 -0.79,0.15 -1.09,-0.19 0.05,-0.47 0.27,-0.84 0.64,-1.12 2.87,-2.11 5.62,-4.37 8.26,-6.76 1.26,-0.66 2.41,-1.48 3.45,-2.44 0.43,-0.25 0.89,-0.38 1.39,-0.38 z m 8.41,18.06 c 0.28,0.28 0.55,0.57 0.82,0.87 -4.93,1.43 -9.86,2.87 -14.77,4.33 -0.84,0.3 -1.54,0.14 -2.1,-0.47 0.68,-0.61 1.46,-1.05 2.35,-1.3 4,-0.97 7.97,-2.06 11.9,-3.29 0.59,-0.1 1.2,-0.15 1.8,-0.14 z"
       id="path21" />
  </g>
  <g
     id="g22"
     transform="translate(-6.78,-2.0703676)">
    <path
       fill="#f7d2a0"
       stroke="#f7d2a0"
       stroke-width="0.5"
       d="m 199.95,42.89 c 0.61,-1.52 1.71,-2.42 3.32,-2.71 0.24,0.28 0.24,0.57 0.01,0.87 -0.67,1.46 -1.78,2.07 -3.33,1.84 z m -40.02,40.84 c -0.6,0.39 -0.87,0.93 -0.81,1.62 0.55,0.36 1.07,0.75 1.56,1.16 -1.29,1 -2.71,1.77 -4.26,2.31 -1.9,0.47 -3.82,0.56 -5.75,0.26 -0.26,0.45 -0.25,0.92 0,1.42 -0.31,0.31 -0.7,0.45 -1.16,0.4 -1.83,-0.39 -3.67,-0.65 -5.54,-0.79 -1.36,0.11 -2.67,0.43 -3.92,0.98 -2.63,1.58 -3.98,3.89 -4.05,6.94 -1.65,0.41 -3.32,0.72 -5.01,0.95 0.4,-0.64 0.99,-1.06 1.76,-1.25 -0.37,-0.95 -0.84,-1.83 -1.42,-2.66 -0.98,-0.41 -2.01,-0.67 -3.07,-0.79 2.41,-2.66 5.35,-4.44 8.85,-5.37 1.49,-0.26 2.97,-0.51 4.46,-0.75 0.33,-0.37 0.32,-0.75 -0.01,-1.14 -0.69,-0.55 -1.41,-1.04 -2.18,-1.47 1.15,-0.51 2.32,-1.02 3.52,-1.52 0.97,-0.96 2.02,-1.86 3.15,-2.68 0.55,-0.28 1.07,-0.24 1.55,0.14 -0.46,0.62 -0.85,1.28 -1.18,1.98 0.24,0.38 0.59,0.59 1.04,0.64 3.67,-0.18 7.34,-0.44 11.01,-0.79 0.58,-0.12 1.07,0.02 1.46,0.41 z"
       id="path22" />
  </g>
  <g
     id="g23"
     transform="translate(-6.78,-2.0703676)">
    <path
       fill="#f1cd9b"
       d="m 163.15,40.06 c 0.12,0.74 0,1.44 -0.37,2.09 -2.26,3.79 -4.36,7.68 -6.3,11.65 -2.06,3.41 -3.96,6.91 -5.7,10.49 -0.27,0.47 -0.67,0.74 -1.2,0.81 -0.44,-0.7 -0.41,-1.4 0.1,-2.1 4.12,-7.28 8.11,-14.62 11.99,-22.03 0.33,-0.56 0.83,-0.86 1.48,-0.91 z m 10.74,6.03 c -0.3,1.63 -1.14,2.93 -2.5,3.91 -0.71,-0.04 -0.93,-0.4 -0.67,-1.08 0.63,-0.93 1.35,-1.79 2.15,-2.57 0.31,-0.2 0.65,-0.29 1.02,-0.26 z m 9.12,9.91 c 0.05,0.42 -0.07,0.79 -0.36,1.1 -0.9,0.92 -1.93,1.6 -3.11,2.03 -0.12,-0.15 -0.24,-0.3 -0.36,-0.45 0.06,-0.54 0.32,-0.96 0.78,-1.26 0.84,-0.89 1.86,-1.36 3.05,-1.42 z"
       id="path23" />
  </g>
  <g
     id="g24"
     transform="translate(-6.78,-2.0703676)">
    <path
       fill="#f1ce9f"
       d="m 167.98,30.93 c 0.1,0.75 0.02,1.48 -0.26,2.18 -1.3,1.89 -2.4,3.89 -3.31,6 -0.27,0.51 -0.69,0.82 -1.26,0.95 -0.23,-0.75 -0.19,-1.47 0.12,-2.18 1.27,-2.14 2.54,-4.27 3.81,-6.41 0.24,-0.27 0.55,-0.45 0.9,-0.54 z M 77.99,49.92 c 0.49,-0.04 0.96,0.05 1.4,0.29 0.91,0.74 1.83,1.46 2.77,2.15 0.51,0.38 0.75,0.87 0.71,1.5 C 82.43,54 82.01,53.96 81.6,53.75 80.72,53 79.8,52.29 78.84,51.64 78.32,51.19 78.03,50.62 77.99,49.92 Z m 32.68,1.09 c 0.49,-1.02 1.05,-1.02 1.68,0 2.25,4.41 4.58,8.78 6.98,13.11 0.38,0.57 0.35,1.12 -0.08,1.62 -0.46,0.16 -0.81,0.04 -1.08,-0.37 -2.42,-4.83 -4.92,-9.61 -7.5,-14.36 z m 57.95,26.35 c 0.3,-0.72 0.78,-1.28 1.42,-1.69 4.91,-2.45 9.79,-4.95 14.64,-7.5 0.55,-0.4 1.15,-0.54 1.81,-0.41 0.11,0.18 0.21,0.36 0.32,0.54 -0.16,0.54 -0.5,0.92 -1.01,1.14 -4.9,2.27 -9.71,4.69 -14.45,7.27 -0.87,0.37 -1.78,0.59 -2.73,0.65 z M 63.95,73.91 c 1.15,-0.07 2.3,0 3.45,0.2 10.94,3.42 21.94,6.74 33,9.95 0.84,0.2 1.39,0.71 1.64,1.51 -0.3,0.48 -0.74,0.65 -1.3,0.51 C 94.81,84.24 88.91,82.32 83.05,80.31 76.82,78.67 70.64,76.9 64.52,75 64.08,74.77 63.89,74.4 63.95,73.91 Z"
       id="path24" />
  </g>
  <g
     id="g25"
     transform="translate(-6.78,-2.0703676)">
    <path
       fill="#eec593"
       d="m 117.05,23.02 c 0.37,-0.9 0.87,-0.97 1.5,-0.19 0.8,2.92 1.59,5.85 2.36,8.77 2.16,9.67 4.53,19.32 7.11,28.93 0.19,0.84 -0.01,1.57 -0.58,2.18 -0.74,-0.94 -1.23,-2.02 -1.44,-3.24 -1.42,-6.27 -2.84,-12.54 -4.24,-18.81 -0.45,-1.8 -1.03,-3.55 -1.72,-5.25 -0.79,-4.18 -1.79,-8.31 -2.99,-12.39 z m -14.2,32.84 c 0.73,0.09 1.36,0.39 1.89,0.91 2.69,3.62 5.48,7.16 8.37,10.62 0.74,0.88 0.58,1.38 -0.48,1.51 -0.46,-0.17 -0.81,-0.47 -1.05,-0.89 -2.58,-3.39 -5.2,-6.74 -7.86,-10.07 -0.42,-0.64 -0.71,-1.33 -0.87,-2.08 z m -14.86,1.98 c 0.51,-0.02 0.97,0.11 1.4,0.37 0.88,0.77 1.81,1.49 2.78,2.14 0.52,0.43 0.8,0.98 0.85,1.65 -1.57,-0.43 -2.95,-1.22 -4.14,-2.39 -0.55,-0.46 -0.85,-1.05 -0.89,-1.77 z"
       id="path25" />
  </g>
  <g
     id="g26"
     transform="translate(-6.78,-2.0703676)">
    <path
       fill="#6a5741"
       d="m 439.29,44 c 0,-0.33 0.14,-0.58 0.42,-0.76 0.88,-0.37 1.69,-0.85 2.42,-1.43 0.36,-0.73 0.55,-1.5 0.58,-2.31 0.07,-4.95 0.03,-9.9 -0.12,-14.85 -0.05,-0.45 -0.24,-0.82 -0.58,-1.12 -0.7,-0.23 -1.32,-0.59 -1.85,-1.08 0.21,-0.44 0.56,-0.71 1.05,-0.8 1.26,-0.37 2.51,-0.76 3.75,-1.2 0.35,-0.11 0.65,-0.02 0.88,0.28 0.3,0.54 0.44,1.13 0.43,1.75 -0.01,6.02 -0.01,12.03 0.02,18.04 0.07,0.48 0.23,0.93 0.48,1.34 0.77,0.55 1.59,1.03 2.45,1.42 0.62,0.89 0.38,1.43 -0.74,1.61 -2.33,0.01 -4.67,0.03 -7,0.08 -0.6,0.03 -1.19,-0.06 -1.76,-0.25 -0.3,-0.15 -0.44,-0.4 -0.43,-0.72 z m -95.32,28.97 c 0.89,-1.99 1.81,-3.97 2.76,-5.93 0.53,-0.7 1.06,-0.69 1.6,0.03 0.86,1.61 1.66,3.24 2.39,4.91 0.24,0.63 0.14,1.17 -0.31,1.62 -0.59,-0.6 -1.25,-1.12 -1.96,-1.57 -0.63,-0.13 -1.26,-0.12 -1.88,0.05 -0.63,0.53 -1.29,1.01 -1.98,1.44 -0.34,-0.03 -0.55,-0.21 -0.62,-0.55 z m 2.73,-2.72 c 0.97,0.7 1.37,0.44 1.2,-0.8 -0.16,-0.12 -0.32,-0.24 -0.48,-0.36 -0.43,0.26 -0.67,0.65 -0.72,1.16 z"
       id="path26" />
  </g>
  <g
     id="g27"
     transform="translate(-6.78,-2.0703676)">
    <path
       fill="#f4d09d"
       d="m 167.98,30.93 c -0.14,-0.71 -0.03,-1.39 0.34,-2.02 2.7,-4.94 5.47,-9.83 8.31,-14.66 0.36,0.3 0.52,0.7 0.46,1.2 -0.05,0.57 -0.23,1.1 -0.53,1.59 -2.43,4.32 -4.8,8.68 -7.11,13.08 -0.32,0.56 -0.82,0.83 -1.47,0.81 z m 31.97,11.96 c -0.62,1.99 -1.97,3.03 -4.05,3.12 0.77,-1.81 2.12,-2.85 4.05,-3.12 z m -12.9,10.08 c 0.01,0.42 -0.14,0.79 -0.44,1.09 -0.97,1.14 -2.17,1.79 -3.6,1.94 0.71,-1.87 2.05,-2.88 4.04,-3.03 z M 63.95,73.91 C 62.84,74.1 61.73,74.06 60.64,73.79 57,72.64 53.33,71.62 49.62,70.72 48.88,70.6 48.39,70.19 48.16,69.51 c 0.62,-0.6 1.34,-0.7 2.17,-0.32 4.37,1.33 8.75,2.6 13.15,3.8 0.39,0.19 0.55,0.49 0.47,0.92 z"
       id="path27" />
  </g>
  <g
     id="g28"
     transform="translate(-6.78,-2.0703676)">
    <path
       fill="#f3d1a4"
       d="m 91.28,13.29 c 1.01,-0.27 1.73,0.09 2.16,1.08 4.85,9.99 10,19.81 15.45,29.46 0.29,0.98 0.67,1.93 1.16,2.84 0.17,0.52 0.02,0.88 -0.45,1.09 -0.45,-0.09 -0.77,-0.35 -0.95,-0.78 C 102.74,35.82 96.95,24.58 91.28,13.29 Z M 141.84,61 c 1.69,-6.01 3.28,-12.03 4.78,-18.06 0.83,-0.98 1.31,-0.81 1.46,0.5 -0.26,0.76 -0.56,1.51 -0.91,2.23 -0.63,3.31 -1.37,6.59 -2.21,9.85 -0.59,2.01 -1.17,4.04 -1.73,6.06 -0.1,0.52 -0.37,0.91 -0.81,1.18 -0.47,-0.48 -0.66,-1.06 -0.58,-1.76 z M 72.99,46.11 c 0.76,-0.13 1.44,0.04 2.05,0.51 0.85,0.77 1.72,1.53 2.59,2.28 0.23,0.3 0.35,0.64 0.36,1.02 -0.75,0.12 -1.41,-0.07 -1.99,-0.57 -0.92,-0.71 -1.81,-1.44 -2.68,-2.2 -0.22,-0.31 -0.33,-0.66 -0.33,-1.04 z m 23.01,1 c 1.41,0.29 2.37,1.13 2.89,2.53 -0.17,1.06 -0.64,1.17 -1.41,0.34 C 96.57,49.22 96.07,48.26 96,47.11 Z"
       id="path28" />
  </g>
  <g
     id="g29"
     transform="translate(-6.78,-2.0703676)">
    <path
       fill="#96a6be"
       d="m 439.75,13.95 c -0.07,-0.49 0.04,-0.93 0.34,-1.31 1.21,-0.4 2.36,-0.94 3.44,-1.63 0.26,0.03 0.52,0.06 0.78,0.09 0.7,1.08 1.66,1.82 2.88,2.23 0.36,0.29 0.53,0.68 0.49,1.15 -0.91,1.08 -1.63,2.29 -2.16,3.64 -0.27,0.34 -0.63,0.48 -1.06,0.43 -1.23,-0.4 -2.5,-0.64 -3.81,-0.7 -0.14,-0.17 -0.29,-0.34 -0.44,-0.52 0.12,-1.16 -0.03,-2.29 -0.46,-3.38 z m 3.08,1.06 c 0,0.4 0.19,0.66 0.58,0.75 0.6,-0.5 0.63,-1.01 0.08,-1.54 -0.4,0.11 -0.62,0.37 -0.66,0.79 z"
       id="path29" />
  </g>
  <g
     id="g30"
     transform="translate(-6.78,-2.0703676)">
    <path
       fill="#f1ca98"
       d="m 134.57,60.01 c 0.21,-9.83 0.29,-19.67 0.25,-29.51 0.61,-2.67 0.62,-5.34 0.02,-8 0.13,-6.32 0.27,-12.64 0.4,-18.96 -0.03,-0.54 0.14,-1 0.51,-1.39 0.5,-0.19 0.85,-0.04 1.06,0.45 0.02,4.3 0.05,8.6 0.11,12.9 -0.46,1.29 -0.82,2.6 -1.09,3.94 0.6,13.7 0.69,27.41 0.26,41.12 0,0.54 -0.22,0.96 -0.66,1.25 -0.61,-0.43 -0.9,-1.03 -0.86,-1.8 z M 68.2,42.25 c 0.39,-0.15 0.78,-0.15 1.17,0.02 0.91,0.71 1.84,1.41 2.77,2.1 0.6,0.42 0.89,1.01 0.85,1.74 -0.5,0.04 -0.96,-0.07 -1.39,-0.33 C 70.71,45.02 69.78,44.31 68.81,43.66 68.3,43.31 68.1,42.85 68.2,42.25 Z m 14.67,11.61 c 0.81,-0.01 1.52,0.26 2.13,0.8 0.87,0.75 1.77,1.48 2.68,2.18 0.23,0.3 0.33,0.63 0.31,1 -0.72,0.1 -1.37,-0.08 -1.95,-0.53 -0.91,-0.73 -1.81,-1.47 -2.69,-2.22 -0.27,-0.37 -0.43,-0.78 -0.48,-1.23 z M 69.29,61 c -0.03,-0.25 0.07,-0.41 0.3,-0.5 0.65,0.06 1.27,0.24 1.85,0.55 1.51,0.89 3.06,1.72 4.63,2.5 0.73,0.38 0.9,0.9 0.5,1.55 C 76.29,65.08 76.02,65.05 75.75,65.02 73.72,63.98 71.71,62.9 69.73,61.77 69.46,61.58 69.32,61.32 69.29,61 Z m 22.6,11.77 c -0.67,0.23 -1.33,0.22 -2,-0.04 -3.25,-1.9 -6.55,-3.72 -9.91,-5.44 -0.48,-0.19 -0.82,-0.52 -1,-1.01 0.66,-0.51 1.38,-0.56 2.17,-0.17 3.17,2.08 6.48,3.92 9.94,5.5 0.53,0.21 0.8,0.6 0.8,1.16 z"
       id="path30" />
  </g>
  <g
     id="g31"
     transform="translate(-6.78,-2.0703676)">
    <path
       fill="#f2c180"
       stroke="#f2c180"
       stroke-width="0.5"
       d="m 140.01,65.84 c 0.09,0.49 -0.07,0.89 -0.49,1.19 -1.04,0.28 -2.09,0.44 -3.16,0.47 0.09,0.37 0.29,0.65 0.61,0.86 2.56,0.89 5.02,1.98 7.38,3.29 1.39,0.67 2.83,0.96 4.32,0.87 -0.28,0.54 -0.66,1.02 -1.14,1.43 -0.11,0.47 -0.06,0.94 0.16,1.4 -0.13,0.11 -0.25,0.23 -0.38,0.35 -2.9,0.08 -5.81,0 -8.72,-0.26 -0.4,0.2 -0.53,0.52 -0.36,0.94 0.54,0.11 1.09,0.2 1.65,0.27 0.45,0.38 0.67,0.84 0.68,1.38 -0.85,0.77 -1.81,1 -2.91,0.69 -0.59,1.39 -1.59,1.76 -2.99,1.09 -0.67,-0.23 -1.11,-0.66 -1.33,-1.31 1.94,-1.16 1.83,-1.56 -0.34,-1.21 -0.01,1.58 0.02,3.17 0.1,4.75 -0.95,3.23 -2.76,5.89 -5.41,8 -1.2,1.67 -2.41,3.32 -3.63,4.96 -0.14,0.2 -0.14,0.38 -0.02,0.57 0.67,0.11 1.25,0.38 1.76,0.79 -0.56,0.74 -1.26,1.3 -2.13,1.68 -0.34,0.55 -0.57,1.15 -0.69,1.79 -5.15,0.28 -10.31,0.32 -15.47,0.12 -0.85,-0.12 -1.68,-0.32 -2.49,-0.59 -0.57,-0.67 -0.92,-1.45 -1.04,-2.34 0.84,-0.85 1.66,-1.73 2.43,-2.62 0.54,0.07 0.88,0.37 1.04,0.91 0.02,0.51 0.14,1 0.37,1.46 1.12,-0.09 2.24,-0.2 3.36,-0.34 1.87,-0.95 3.85,-1.62 5.93,-2.01 0.54,-0.47 0.88,-1.08 1,-1.82 0.7,-0.4 1.47,-0.63 2.3,-0.69 0.53,-0.79 1.07,-1.59 1.61,-2.4 0.83,-0.48 1.66,-0.98 2.47,-1.49 0.13,-0.54 0.03,-1.07 -0.3,-1.57 0.31,-0.61 0.52,-1.24 0.65,-1.9 -0.71,-1.02 -0.6,-1.96 0.33,-2.83 0.45,-0.1 0.91,-0.08 1.38,0.08 0.38,-0.32 0.52,-0.72 0.42,-1.22 -0.57,-0.67 -1.1,-1.36 -1.6,-2.06 0.75,-0.79 1.6,-1.45 2.56,-1.98 1.3,-0.23 2.55,-0.53 3.75,-0.92 -0.77,-1.07 -1.79,-1.79 -3.04,-2.18 -1.75,0.18 -3.49,0.08 -5.21,-0.32 -0.71,-0.03 -1.38,0.1 -2.02,0.41 0.96,0.2 1.93,0.4 2.91,0.59 0.46,0.48 0.39,0.91 -0.22,1.28 -0.46,0.23 -0.96,0.36 -1.47,0.38 -0.87,-0.2 -1.75,-0.32 -2.63,-0.36 -1.27,0.47 -2.57,0.85 -3.89,1.15 -0.6,0.04 -1.13,-0.13 -1.57,-0.54 -0.21,-0.35 -0.19,-0.69 0.05,-1.02 0.81,-0.82 1.54,-1.7 2.18,-2.62 -0.18,-0.39 -0.5,-0.58 -0.94,-0.57 7.2,-5.49 15.26,-7.48 24.19,-5.98 z"
       id="path31" />
  </g>
  <g
     id="g32"
     transform="translate(-6.78,-2.0703676)">
    <path
       fill="#e9cba0"
       d="m 25.98,91.04 c 0.09,0.39 0.32,0.66 0.7,0.8 0.74,0.12 1.48,0.26 2.21,0.4 -0.35,0.41 -0.81,0.63 -1.38,0.65 -5.85,0.5 -11.43,1.98 -16.76,4.43 -1.23,0.25 -2.45,0.54 -3.67,0.85 -0.1,-0.1 -0.2,-0.2 -0.3,-0.3 0.37,-0.56 0.86,-1 1.46,-1.31 2.46,-0.88 4.91,-1.78 7.37,-2.71 3.38,-1.22 6.84,-2.15 10.37,-2.81 z"
       id="path32" />
  </g>
  <g
     id="g33"
     transform="translate(-6.78,-2.0703676)">
    <path
       fill="#8f7f6c"
       d="m 460.31,71.78 c -0.27,-0.53 -0.7,-0.88 -1.28,-1.04 -0.75,-0.22 -1.27,-0.71 -1.58,-1.47 -0.13,1.09 -0.25,2.19 -0.36,3.3 -0.15,0.13 -0.31,0.27 -0.46,0.4 -0.45,-0.35 -0.66,-0.82 -0.66,-1.4 -0.1,-1.66 -0.04,-3.31 0.21,-4.94 0.55,-0.55 1.07,-0.5 1.56,0.14 0.39,1.12 1,2.09 1.82,2.9 0.44,0.03 0.76,-0.16 0.94,-0.57 0.46,-0.86 0.97,-1.68 1.53,-2.47 1.03,-0.43 1.56,-0.07 1.61,1.07 -0.05,1.25 -0.04,2.5 0.03,3.75 0.09,0.84 -0.26,1.33 -1.05,1.46 -0.3,-0.95 -0.64,-1.86 -1.04,-2.73 -0.36,0.61 -0.79,1.15 -1.27,1.6 z"
       id="path33" />
  </g>
  <g
     id="g34"
     transform="translate(-6.78,-2.0703676)">
    <path
       fill="#9b8c7c"
       d="m 346.94,20.67 c -0.62,0.17 -0.97,0.56 -1.07,1.18 -1.24,0.04 -2.48,0.04 -3.71,0 0.07,-0.29 0.15,-0.57 0.22,-0.86 0.47,-0.78 1.17,-1.13 2.1,-1.02 0.65,-0.03 1.29,0.02 1.93,0.16 0.29,0.08 0.47,0.26 0.53,0.54 z m 47.05,51.31 c 0.84,0 1.69,0.01 2.53,0.01 0.45,0 0.77,-0.19 0.97,-0.57 -1.08,-0.73 -2.14,-1.5 -3.17,-2.32 -0.55,-1.42 -0.14,-2.41 1.23,-2.99 0.87,-0.16 1.69,-0.04 2.47,0.37 0.41,0.35 0.53,0.75 0.36,1.21 -0.65,-0.01 -1.29,-0.1 -1.92,-0.27 -0.52,0.11 -0.7,0.43 -0.56,0.94 1.04,0.67 1.99,1.44 2.85,2.31 0.26,2.28 -0.78,3.3 -3.11,3.06 -0.98,-0.2 -1.53,-0.78 -1.65,-1.75 z"
       id="path34" />
  </g>
  <g
     id="g35"
     transform="translate(-6.78,-2.0703676)">
    <path
       fill="#847462"
       d="m 457.53,41.85 c 0.38,0.81 1.02,1.22 1.93,1.23 1.05,-0.08 2.07,-0.29 3.07,-0.62 0.9,0.15 1.64,0.56 2.23,1.22 0.14,0.49 -0.01,0.86 -0.44,1.11 -2.93,0.19 -5.87,0.26 -8.82,0.19 -0.8,-0.06 -1.2,-0.49 -1.18,-1.27 0.93,-0.82 2,-1.44 3.21,-1.86 z m 39.34,28.17 c -0.13,0.81 -0.11,1.63 0.06,2.45 -0.13,0.11 -0.25,0.23 -0.38,0.34 -0.69,-0.29 -1.22,-0.77 -1.58,-1.45 0.19,-1.02 0.82,-1.47 1.9,-1.34 z"
       id="path35" />
  </g>
  <g
     id="g36"
     transform="translate(-6.78,-2.0703676)">
    <path
       fill="#f6dfc0"
       d="m 116.08,44.15 c 0.68,0.02 1.11,0.38 1.29,1.07 1.74,5.16 3.65,10.26 5.71,15.3 0.25,0.67 0.26,1.34 0.05,2.02 -0.17,0.11 -0.34,0.21 -0.51,0.32 -0.46,-0.24 -0.76,-0.62 -0.9,-1.13 -1.28,-4.51 -2.88,-8.92 -4.77,-13.22 -0.67,-1.38 -0.96,-2.83 -0.87,-4.36 z"
       id="path36" />
  </g>
  <g
     id="g37"
     transform="translate(-6.78,-2.0703676)">
    <path
       fill="#edc590"
       d="m 93.02,62 c 0.76,-0.08 1.42,0.13 1.99,0.65 4.05,3.22 8.11,6.44 12.17,9.65 0.46,0.3 0.72,0.71 0.79,1.25 -0.12,0.13 -0.24,0.27 -0.36,0.41 -0.53,0.01 -1,-0.17 -1.39,-0.54 C 102.14,70.11 98.03,66.84 93.88,63.61 93.3,63.23 93.02,62.69 93.02,62 Z"
       id="path37" />
  </g>
  <g
     id="g38"
     transform="translate(-6.78,-2.0703676)">
    <path
       fill="#968877"
       d="m 501.18,71.95 c 0.04,-1.46 0.05,-2.91 0.05,-4.37 0.21,-1.28 0.97,-1.8 2.29,-1.58 3.05,0.41 3.07,0.79 0.05,1.13 -0.53,0.26 -0.7,0.68 -0.51,1.24 0.57,0.48 1.18,0.92 1.83,1.31 -0.44,0.49 -0.98,0.86 -1.62,1.13 -0.06,0.22 -0.13,0.43 -0.19,0.64 0.86,0.52 1.78,0.93 2.75,1.24 0.14,0.49 -0.03,0.84 -0.5,1.06 -1.16,0.23 -2.3,0.15 -3.42,-0.24 -0.46,-0.41 -0.71,-0.93 -0.73,-1.56 z"
       id="path38" />
  </g>
  <g
     id="g39"
     transform="translate(-6.78,-2.0703676)">
    <path
       fill="#aa9e91"
       d="m 363.21,68.76 c -1.38,-0.41 -2.14,0.08 -2.28,1.49 0.19,1.78 0.99,2.13 2.39,1.03 0.38,-0.86 1.02,-1.23 1.92,-1.11 0.16,0.79 0.15,1.61 -0.02,2.44 -0.17,0.18 -0.34,0.37 -0.51,0.55 -1.04,0.23 -2.09,0.44 -3.13,0.64 -1.27,-0.23 -1.99,-0.97 -2.18,-2.23 0.62,-1.7 1.13,-3.4 1.55,-5.12 1.41,-0.71 2.4,-0.36 2.96,1.06 0.22,0.73 -0.02,1.14 -0.7,1.25 z"
       id="path39" />
  </g>
  <g
     id="g40"
     transform="translate(-6.78,-2.0703676)">
    <path
       fill="#f1dbbd"
       d="m 257.2,100.74 c -0.5,-0.35 -1.06,-0.53 -1.67,-0.53 -1.69,-0.01 -3.37,-0.11 -5.05,-0.3 -0.58,-0.04 -1.06,-0.27 -1.44,-0.7 2.49,0.14 4.97,0.16 7.46,0.07 1.98,-0.3 3.97,-0.48 5.97,-0.52 1.01,-0.39 2.03,-0.7 3.08,-0.94 0.62,-0.07 1.1,0.15 1.44,0.66 -0.61,0.88 -1.47,1.37 -2.58,1.47 -2.02,0.07 -4,0.39 -5.94,0.97 -0.44,0.03 -0.86,-0.03 -1.27,-0.18 z"
       id="path40" />
  </g>
  <g
     id="g41"
     transform="translate(-6.78,-2.0703676)">
    <path
       fill="#a69a8c"
       d="m 336.02,67.98 c -0.07,-0.68 0.14,-1.24 0.62,-1.68 0.44,-0.04 0.75,0.14 0.94,0.54 0.22,1.54 0.35,3.1 0.39,4.67 0.89,0.46 1.8,0.86 2.74,1.2 0.14,0.46 0,0.8 -0.42,1.04 -0.91,0.22 -1.83,0.28 -2.76,0.18 -0.53,-0.02 -0.94,-0.26 -1.21,-0.71 -0.2,-1.74 -0.3,-3.49 -0.3,-5.24 z"
       id="path41" />
  </g>
  <g
     id="g42"
     transform="translate(-6.78,-2.0703676)">
    <path
       fill="#ecc794"
       d="m 160.06,62.83 c -0.1,-0.7 0.09,-1.3 0.58,-1.82 2.53,-3.09 5.09,-6.16 7.67,-9.21 0.46,-0.58 0.95,-0.64 1.45,-0.19 0.01,0.51 -0.14,0.96 -0.46,1.37 -2.67,2.96 -5.22,6.01 -7.67,9.16 -0.41,0.5 -0.93,0.73 -1.57,0.69 z"
       id="path42" />
  </g>
  <g
     id="g43"
     transform="translate(-6.78,-2.0703676)">
    <path
       fill="#eac088"
       d="m 91.89,72.77 c 0.76,0.07 1.49,0.24 2.2,0.51 3.26,1.86 6.57,3.62 9.93,5.28 1.01,0.8 0.89,1.28 -0.35,1.43 -3.57,-1.86 -7.12,-3.76 -10.65,-5.7 -0.6,-0.34 -0.98,-0.84 -1.13,-1.52 z"
       id="path43" />
  </g>
  <g
     id="g44"
     transform="translate(-6.78,-2.0703676)">
    <path
       fill="#887968"
       d="m 374.79,70.04 c 0.04,-0.85 0.08,-1.7 0.13,-2.56 0,-0.58 0.24,-1.01 0.73,-1.31 1.76,-0.47 3.16,0.01 4.21,1.44 0.24,0.86 0.09,1.64 -0.45,2.35 -0.87,0.46 -1.78,0.85 -2.72,1.18 -0.37,0.63 -0.77,1.25 -1.19,1.85 -0.65,-0.86 -0.89,-1.84 -0.71,-2.95 z m 1.44,-2.09 c -0.23,1.62 0.34,2.06 1.72,1.3 0.96,-0.95 0.77,-1.6 -0.58,-1.95 -0.64,-0.2 -1.02,0.01 -1.14,0.65 z"
       id="path44" />
  </g>
  <g
     id="g45"
     transform="translate(-6.78,-2.0703676)">
    <path
       fill="#f6d9ae"
       d="m 190.14,66.01 c 0.14,-0.3 0.35,-0.55 0.62,-0.75 1.79,-0.82 3.55,-1.72 5.26,-2.7 0.62,-0.38 1.21,-0.36 1.76,0.05 0.03,0.48 -0.15,0.86 -0.54,1.14 -1.75,0.89 -3.51,1.77 -5.28,2.63 -0.41,0.23 -0.85,0.33 -1.33,0.32 -0.37,-0.09 -0.53,-0.32 -0.49,-0.69 z"
       id="path45" />
  </g>
  <g
     id="g46"
     transform="translate(-6.78,-2.0703676)">
    <path
       fill="#f4d1a1"
       d="m 147.92,36.98 c 0.77,-1.88 1.31,-3.83 1.63,-5.84 0.82,-1.45 1.35,-1.35 1.61,0.3 -0.81,2.07 -1.37,4.21 -1.7,6.42 -0.12,0.51 -0.41,0.85 -0.89,1.02 -0.51,-0.53 -0.72,-1.16 -0.65,-1.9 z M 96,47.11 c -1.09,-0.29 -1.86,-0.96 -2.32,-2.01 -0.21,-0.34 -0.18,-0.66 0.09,-0.95 0.68,-0.02 1.23,0.26 1.63,0.84 0.48,0.63 0.68,1.34 0.6,2.12 z"
       id="path46" />
  </g>
  <g
     id="g47"
     transform="translate(-6.78,-2.0703676)">
    <path
       fill="#f5d5a6"
       d="m 195.9,46.01 c 0.04,0.39 -0.06,0.74 -0.31,1.05 -0.87,0.74 -1.72,1.5 -2.57,2.27 -1.46,0.85 -2.8,1.86 -4.03,3.02 -0.58,0.41 -1.23,0.62 -1.94,0.62 -0.02,-0.67 0.24,-1.22 0.77,-1.63 2.08,-1.54 4.12,-3.12 6.12,-4.74 0.58,-0.46 1.24,-0.65 1.96,-0.59 z"
       id="path47" />
  </g>
  <g
     id="g48"
     transform="translate(-6.78,-2.0703676)">
    <path
       fill="#efece5"
       d="m 376.23,67.95 c 0.12,-0.64 0.5,-0.85 1.14,-0.65 1.35,0.35 1.54,1 0.58,1.95 -1.38,0.76 -1.95,0.32 -1.72,-1.3 z m 36.01,-0.07 c 0.15,-0.58 0.53,-0.81 1.16,-0.66 1.4,0.47 1.59,1.21 0.56,2.22 -1.22,0.28 -1.8,-0.24 -1.72,-1.56 z"
       id="path48" />
  </g>
  <g
     id="g49"
     transform="translate(-6.78,-2.0703676)">
    <path
       fill="#867766"
       d="m 402.11,66.13 c 1.14,-0.03 2.28,-0.06 3.42,-0.07 0.5,-0.04 0.93,0.12 1.27,0.48 -0.43,0.48 -0.93,0.87 -1.51,1.2 -0.16,1.27 -0.2,2.55 -0.14,3.84 -0.43,1.72 -0.83,1.71 -1.21,-0.03 0.11,-1.29 0.05,-2.56 -0.19,-3.82 -0.76,-0.34 -1.3,-0.88 -1.64,-1.6 z"
       id="path49" />
  </g>
  <g
     id="g50"
     transform="translate(-6.78,-2.0703676)">
    <path
       fill="#efc086"
       d="m 68.2,42.25 c -0.57,0 -1.1,-0.14 -1.59,-0.42 -0.9,-0.77 -1.84,-1.48 -2.82,-2.14 -0.44,-0.3 -0.69,-0.72 -0.74,-1.25 0.14,-0.13 0.29,-0.26 0.43,-0.39 0.57,0.03 1.06,0.23 1.48,0.62 1.47,0.87 2.56,2.06 3.24,3.58 z"
       id="path50" />
  </g>
  <g
     id="g51"
     transform="translate(-6.78,-2.0703676)">
    <path
       fill="#e8e2db"
       d="m 430.02,67.83 c 0.3,-0.54 0.75,-0.73 1.35,-0.56 0.64,0.18 1.06,0.57 1.29,1.18 -0.53,0.72 -1.23,0.9 -2.09,0.55 -0.42,-0.29 -0.6,-0.68 -0.55,-1.17 z m 54.79,2.16 c 0.06,-0.41 0.28,-0.69 0.66,-0.85 0.44,0.51 0.42,1 -0.05,1.48 -0.3,-0.12 -0.5,-0.32 -0.61,-0.63 z"
       id="path51" />
  </g>
  <g
     id="g52"
     transform="translate(-6.78,-2.0703676)">
    <path
       fill="#f2cc96"
       d="m 173.95,62.77 c 0.77,-1.47 1.96,-2.45 3.56,-2.93 0.1,0.15 0.2,0.3 0.31,0.46 -0.83,1.58 -2.12,2.4 -3.87,2.47 z"
       id="path52" />
  </g>
  <g
     id="g53"
     transform="translate(-6.78,-2.0703676)">
    <path
       fill="#f0cc9f"
       d="m 102.85,55.86 c -0.59,-0.04 -1.06,-0.3 -1.41,-0.78 -0.78,-0.72 -1.28,-1.58 -1.51,-2.6 0.33,-0.41 0.71,-0.44 1.13,-0.09 0.58,0.72 1.15,1.45 1.7,2.19 0.22,0.41 0.25,0.84 0.09,1.28 z"
       id="path53" />
  </g>
  <g
     id="g54"
     transform="translate(-6.78,-2.0703676)">
    <path
       fill="#ddb782"
       d="m 374.05,95 c 0.44,-1.17 1.12,-1.32 2.03,-0.46 0.06,1 -0.4,1.43 -1.39,1.3 -0.34,-0.19 -0.55,-0.47 -0.64,-0.84 z"
       id="path54" />
  </g>
  <g
     id="g55"
     transform="translate(-6.78,-2.0703676)">
    <path
       fill="#e8e1d4"
       d="m 360.93,70.25 c 0.9,0.09 1.69,0.43 2.39,1.03 -1.4,1.1 -2.2,0.75 -2.39,-1.03 z"
       id="path55" />
  </g>
  <g
     id="g56"
     transform="translate(-6.78,-2.0703676)">
    <path
       fill="#d7d0c8"
       d="m 421.05,70.13 c -0.03,-0.9 0.35,-1.18 1.12,-0.83 0.71,0.84 0.54,1.32 -0.5,1.45 -0.32,-0.1 -0.53,-0.3 -0.62,-0.62 z"
       id="path56" />
  </g>
  <g
     id="g57"
     transform="translate(-6.78,-2.0703676)">
    <path
       fill="#f1c78d"
       d="m 173.89,46.09 c -0.2,-1.23 0.3,-1.9 1.53,-1.99 0.35,0.27 0.4,0.6 0.13,0.99 -0.43,0.54 -0.98,0.88 -1.66,1 z"
       id="path57" />
  </g>
  <g
     id="g58"
     transform="translate(-6.78,-2.0703676)">
    <path
       fill="#705f4b"
       d="m 363.21,68.76 c 0.05,0.84 0.08,1.68 0.11,2.52 -0.7,-0.6 -1.49,-0.94 -2.39,-1.03 0.14,-1.41 0.9,-1.9 2.28,-1.49 z"
       id="path58" />
  </g>
  <g
     id="g59"
     transform="translate(-6.78,-2.0703676)">
    <path
       fill="#f7f4f2"
       d="m 493.83,68.01 c 0.29,-0.56 0.74,-0.74 1.34,-0.55 1,0.93 0.8,1.46 -0.59,1.58 -0.45,-0.2 -0.7,-0.55 -0.75,-1.03 z"
       id="path59" />
  </g>
  <g
     id="g60"
     transform="translate(-6.78,-2.0703676)">
    <path
       fill="#eec489"
       d="m 164.78,79.25 c 0.2,-0.93 0.78,-1.39 1.74,-1.39 0.13,0.14 0.25,0.28 0.38,0.42 -0.56,0.63 -1.26,0.95 -2.12,0.97 z"
       id="path60" />
  </g>
  <g
     id="g61"
     transform="translate(-6.78,-2.0703676)">
    <path
       fill="#a6998d"
       d="m 547.71,40.1 c -0.21,-0.12 -0.43,-0.24 -0.64,-0.35 -0.04,-0.32 -0.07,-0.63 -0.11,-0.94 -0.01,-0.35 0.13,-0.59 0.43,-0.74 0.35,0.63 0.45,1.31 0.32,2.03 z"
       id="path61" />
  </g>
  <g
     id="g62"
     transform="translate(-6.78,-2.0703676)">
    <path
       fill="#e9e2d8"
       d="m 346.7,70.25 c 0.05,-0.51 0.29,-0.9 0.72,-1.16 0.63,0.48 0.69,1.03 0.17,1.64 -0.37,-0.02 -0.67,-0.18 -0.89,-0.48 z"
       id="path62" />
  </g>
  <g
     id="g63"
     transform="translate(-6.78,-2.0703676)">
    <path
       fill="#d1aa5c"
       d="m 442.83,15.01 c 0.19,-0.74 0.55,-0.87 1.08,-0.42 0.11,0.52 -0.05,0.91 -0.5,1.17 -0.39,-0.09 -0.58,-0.35 -0.58,-0.75 z"
       id="path63" />
  </g>
  <g
     id="g64"
     transform="translate(-6.78,-2.0703676)">
    <path
       fill="#614c35"
       d="m 462.53,42.46 c -1,0.33 -2.02,0.54 -3.07,0.62 -0.91,-0.01 -1.55,-0.42 -1.93,-1.23 0.34,-1.09 0.49,-2.21 0.45,-3.35 -0.01,-8.67 -0.01,-17.34 -0.02,-26.01 0.09,-1.75 -0.68,-2.93 -2.32,-3.55 -0.35,-0.35 -0.46,-0.76 -0.33,-1.23 1.04,-0.62 2.17,-1.1 3.37,-1.44 1.45,-0.79 2.36,-0.41 2.71,1.13 -0.09,10.69 -0.12,21.38 -0.07,32.07 -0.06,1.19 0.34,2.19 1.21,2.99 z m 79.44,-21.82 c 3.11,1.07 4.81,3.23 5.11,6.48 -0.06,0.76 -0.13,1.52 -0.2,2.29 -0.15,0.16 -0.31,0.33 -0.46,0.5 -0.96,0.15 -1.92,0.15 -2.87,0.02 -0.37,-0.08 -0.59,-0.29 -0.67,-0.64 0.4,-0.21 0.68,-0.52 0.84,-0.94 0.36,-2.67 -0.55,-4.79 -2.73,-6.36 -0.01,-0.69 0.31,-1.14 0.98,-1.35 z m -47.81,11.18 c 0.5,0.32 0.72,0.79 0.66,1.39 -0.37,-0.3 -0.79,-0.43 -1.27,-0.37 -1.61,0.41 -3.15,1 -4.63,1.76 -1.41,1 -2.24,2.35 -2.49,4.05 -0.18,1.68 0.53,2.79 2.1,3.35 2.27,0.54 4.09,-0.11 5.49,-1.96 0.05,0.25 0.1,0.49 0.16,0.73 -0.39,1.24 -1.2,2.06 -2.43,2.45 -0.87,1.75 -2.29,2.45 -4.27,2.09 -0.93,0 -1.75,-0.29 -2.45,-0.89 -0.59,-1.02 -1.21,-2.03 -1.85,-3.01 -0.81,-2.7 -0.07,-4.85 2.22,-6.46 1.82,-0.94 3.65,-1.85 5.5,-2.73 1.08,-0.2 2.16,-0.33 3.26,-0.4 z"
       id="path64" />
  </g>
  <g
     id="g65"
     transform="translate(-6.78,-2.0703676)">
    <path
       fill="#66523b"
       d="m 434.19,9.71 c -1.76,1.06 -2.92,2.59 -3.5,4.6 -3.04,7.91 -6.21,15.75 -9.51,23.52 -0.36,-0.28 -0.73,-0.56 -1.1,-0.83 2.81,-7.54 5.67,-15.07 8.6,-22.58 0.48,-1.25 0.55,-2.52 0.21,-3.81 -0.19,-0.34 -0.48,-0.56 -0.86,-0.65 0.57,-0.83 1.38,-1.18 2.45,-1.07 1.33,-0.06 2.57,0.21 3.71,0.82 z m 77.86,10.88 c 0.3,0.41 0.63,0.78 1.01,1.12 -2.29,1.66 -3.36,3.92 -3.19,6.79 -0.1,2.83 0.94,5.14 3.11,6.91 1.44,0.81 2.85,0.76 4.21,-0.14 0.07,0.38 0.14,0.77 0.2,1.15 -2.08,0.33 -4.15,0.7 -6.21,1.12 -0.23,-0.91 -0.81,-1.4 -1.74,-1.48 -2.25,-2.52 -3.27,-5.45 -3.05,-8.79 0.62,-3.29 2.51,-5.52 5.66,-6.68 z"
       id="path65" />
  </g>
  <g
     id="g66"
     transform="translate(-6.78,-2.0703676)">
    <path
       fill="#624e38"
       d="m 468.26,44 c -0.02,-0.35 0.12,-0.61 0.44,-0.78 2.09,-0.37 3.14,-1.61 3.13,-3.72 -0.01,-9.32 -0.03,-18.65 -0.08,-27.98 -0.06,-0.51 -0.22,-0.98 -0.48,-1.41 -0.82,-0.48 -1.54,-1.06 -2.17,-1.77 -0.13,-0.52 0.05,-0.91 0.54,-1.15 1.57,-0.41 3.16,-0.77 4.75,-1.05 0.51,0.28 0.77,0.71 0.76,1.31 -0.03,11.01 -0.01,22.02 0.06,33.03 0.36,1.62 1.38,2.53 3.07,2.75 0.71,0.98 0.45,1.52 -0.79,1.64 -2.93,0.02 -5.86,-0.02 -8.78,-0.15 -0.33,-0.13 -0.48,-0.37 -0.45,-0.72 z"
       id="path66" />
  </g>
  <g
     id="g67"
     transform="translate(-6.78,-2.0703676)">
    <path
       fill="#624e38"
       d="m 360.12,10 c 0.09,-1.23 0.54,-2.28 1.36,-3.15 1.34,-0.51 2.48,-0.25 3.42,0.78 1.91,4.33 0.96,7.92 -2.87,10.78 -0.57,0.34 -1.11,0.33 -1.64,-0.02 0.78,-1.01 1.66,-1.96 2.63,-2.84 0.63,-0.84 0.88,-1.79 0.73,-2.83 -0.88,-0.5 -1.81,-0.92 -2.79,-1.25 -0.37,-0.44 -0.65,-0.93 -0.84,-1.47 z"
       id="path67" />
  </g>
  <g
     id="g68"
     transform="translate(-6.78,-2.0703676)">
    <path
       fill="#5e4933"
       d="m 346.79,12.08 c 0.26,-2.2 1.38,-2.79 3.36,-1.78 1,1.41 0.73,2.51 -0.79,3.3 -1.25,0.18 -2.11,-0.32 -2.57,-1.52 z"
       id="path68" />
  </g>
  <g
     id="g69"
     transform="translate(-6.78,-2.0703676)">
    <path
       fill="#58452f"
       d="m 459.03,70.74 c 0.58,0.16 1.01,0.51 1.28,1.04 -0.83,0.15 -1.26,-0.2 -1.28,-1.04 z"
       id="path69" />
  </g>
</svg>
