<?xml version="1.0" encoding="UTF-8" standalone="no"?>
<svg
   version="1.1"
   width="272px"
   height="111px"
   style="shape-rendering:geometricPrecision; text-rendering:geometricPrecision; image-rendering:optimizeQuality; fill-rule:evenodd; clip-rule:evenodd"
   id="svg28"
   sodipodi:docname="test2.svg"
   inkscape:version="1.4.4 (dcaf3e7, 2026-05-05)"
   xmlns:inkscape="http://www.inkscape.org/namespaces/inkscape"
   xmlns:sodipodi="http://sodipodi.sourceforge.net/DTD/sodipodi-0.dtd"
   xmlns="http://www.w3.org/2000/svg"
   xmlns:svg="http://www.w3.org/2000/svg">
  <defs
     id="defs28" />
  <sodipodi:namedview
     id="namedview28"
     pagecolor="#ffffff"
     bordercolor="#000000"
     borderopacity="0.25"
     inkscape:showpageshadow="2"
     inkscape:pageopacity="0.0"
     inkscape:pagecheckerboard="0"
     inkscape:deskcolor="#d1d1d1"
     inkscape:zoom="6.6875"
     inkscape:cx="136"
     inkscape:cy="55.551402"
     inkscape:window-width="2400"
     inkscape:window-height="1261"
     inkscape:window-x="2391"
     inkscape:window-y="-9"
     inkscape:window-maximized="1"
     inkscape:current-layer="svg28" />
  <g
     id="g2">
    <path
       fill="#f2cf9f"
       d="M 168.08,33.95 C 168.14,34.7 168,35.41 167.66,36.08 C 166.48,37.96 165.41,39.9 164.45,41.91 C 164.14,42.47 163.69,42.85 163.09,43.07 C 163.02,42.58 163.04,42.1 163.16,41.62 C 164.39,39.52 165.52,37.37 166.57,35.17 C 166.87,34.49 167.37,34.08 168.08,33.95 Z M 168.65,80.39 C 168.89,79.61 169.37,79.02 170.09,78.62 C 174.95,76.14 179.82,73.68 184.68,71.22 C 185.26,70.94 185.86,70.85 186.5,70.95 C 186.62,71.08 186.75,71.22 186.88,71.36 C 181.98,74.13 177.01,76.8 171.98,79.38 C 170.93,79.92 169.82,80.26 168.65,80.39 Z M 47.95,71.9 C 50.12,72.2 52.25,72.67 54.35,73.31 C 60.13,75.06 65.87,76.91 71.59,78.84 C 74.8,79.76 78.05,80.59 81.33,81.31 C 87.95,83.44 94.59,85.46 101.26,87.39 C 102.37,88.45 102.15,88.99 100.6,89 C 88.18,85.13 75.77,81.21 63.38,77.26 C 58.75,76.22 54.15,75.04 49.59,73.73 C 48.56,73.55 48.01,72.94 47.95,71.9 Z M 166.03,87.96 C 171.86,86.45 177.67,84.82 183.47,83.09 C 188.07,81.83 192.72,80.75 197.4,79.85 C 203.41,77.84 209.48,76 215.61,74.33 C 216.68,74.09 217.71,74.16 218.71,74.52 C 217.74,75.26 216.67,75.78 215.48,76.08 C 208.85,77.86 202.2,79.57 195.53,81.22 C 186.49,83.74 177.48,86.34 168.5,89.02 C 167.84,89.2 167.18,89.2 166.52,89.03 C 166.13,88.77 165.97,88.42 166.03,87.96 Z"
       id="path2" />
  </g>
  <g
     id="g3">
    <path
       fill="#f8daaf"
       stroke="#f8daaf"
       stroke-width="0.5"
       d="M 162.13,87.17 C 162.36,87.21 162.52,87.35 162.61,87.57 C 162.99,89.27 163.49,90.93 164.12,92.56 C 164.25,93.2 164.17,93.82 163.88,94.41 C 158.47,95.72 153.04,96.98 147.58,98.19 C 145.57,98.85 143.56,99.49 141.53,100.11 C 139.82,100.18 138.16,100.5 136.54,101.07 C 135.71,101.21 134.89,101.21 134.06,101.06 C 134.84,99.45 135.34,97.76 135.55,95.99 C 136.29,95.08 137.01,94.16 137.7,93.22 C 138.5,92.54 139.42,92.19 140.47,92.17 C 141.66,92.5 142.86,92.6 144.07,92.45 C 145.05,93.2 146.14,93.62 147.35,93.74 C 148.58,93.4 148.92,92.65 148.37,91.47 C 149.75,91.18 151.13,90.79 152.49,90.31 C 153.49,92.09 154.88,92.47 156.66,91.44 C 156.62,91.12 156.54,90.81 156.42,90.51 C 157.5,90.26 158.57,89.93 159.61,89.52 C 159.11,89.18 158.66,88.79 158.24,88.35 C 158.02,87.84 158.16,87.46 158.66,87.21 C 159.66,87.07 160.59,87.28 161.46,87.81 C 161.82,87.74 162.04,87.53 162.13,87.17 Z"
       id="path3" />
  </g>
  <g
     id="g4">
    <path
       fill="#eec592"
       d="M 117.02,25 C 117.66,25.13 118.17,25.47 118.53,26.02 C 121.63,38.53 124.76,51.03 127.94,63.53 C 128.07,64.18 128.03,64.83 127.83,65.46 C 127.71,65.54 127.58,65.61 127.46,65.69 C 126.83,65.08 126.44,64.34 126.28,63.46 C 123.33,50.6 120.24,37.78 117.02,25 Z M 102.92,58.81 C 103.37,58.91 103.77,59.11 104.13,59.4 C 107.35,63.2 110.5,67.07 113.56,71.02 C 113.84,71.39 113.79,71.71 113.4,71.98 C 112.84,72.13 112.37,71.99 111.99,71.55 C 109.23,67.98 106.44,64.42 103.61,60.89 C 103.21,60.25 102.98,59.56 102.92,58.81 Z M 92.98,65 C 93.88,65.11 94.69,65.43 95.4,65.98 C 99.29,69.21 103.29,72.3 107.39,75.25 C 108,75.74 108.06,76.29 107.56,76.88 C 103.86,74.3 100.22,71.6 96.66,68.8 C 95.81,67.99 94.91,67.24 93.95,66.56 C 93.47,66.13 93.15,65.61 92.98,65 Z M 78.85,68.86 C 79.6,68.92 80.31,69.13 80.97,69.49 C 88.71,73.42 96.41,77.41 104.08,81.43 C 105.29,82.39 105.15,82.9 103.65,82.97 C 102.1,82.13 100.52,81.34 98.91,80.59 C 92.88,77.19 86.8,73.87 80.67,70.63 C 79.85,70.25 79.25,69.66 78.85,68.86 Z"
       id="path4" />
  </g>
  <g
     id="g5">
    <path
       fill="#f3d1a4"
       d="M 91.22,16.28 C 91.89,15.89 92.49,15.98 93.03,16.55 C 98.49,27.37 104.03,38.15 109.65,48.89 C 110,49.43 110.15,50.02 110.09,50.66 C 109.94,50.77 109.8,50.88 109.65,50.99 C 108.67,49.9 107.87,48.68 107.25,47.32 C 102.44,37.54 97.34,27.91 91.97,18.44 C 91.65,17.74 91.4,17.03 91.22,16.28 Z M 141.85,64.01 C 143.5,58.03 145.06,52.03 146.53,45.99 C 147.4,44.73 147.86,44.9 147.91,46.49 C 147.07,49.11 146.45,51.78 146.03,54.5 C 145.14,57.86 144.2,61.22 143.21,64.55 C 143.13,65.09 142.86,65.5 142.41,65.77 C 141.92,65.3 141.73,64.71 141.85,64.01 Z M 72.97,49.07 C 73.66,49.05 74.3,49.22 74.89,49.57 C 75.83,50.3 76.7,51.1 77.52,51.96 C 77.8,52.22 77.96,52.54 77.99,52.92 C 77.29,53.01 76.65,52.85 76.08,52.44 C 75.18,51.65 74.29,50.86 73.41,50.06 C 73.18,49.76 73.04,49.43 72.97,49.07 Z"
       id="path5" />
  </g>
  <g
     id="g6">
    <path
       fill="#f1cd9c"
       d="M 163.09,43.07 C 163.17,43.8 163.04,44.51 162.71,45.17 C 158.56,52.48 154.57,59.87 150.74,67.35 C 150.24,68.08 149.72,68.12 149.19,67.45 C 149.11,66.95 149.21,66.5 149.51,66.1 C 150.35,64.88 151.15,63.64 151.9,62.37 C 155.11,56.26 158.33,50.17 161.58,44.1 C 161.91,43.48 162.41,43.14 163.09,43.07 Z M 77.99,52.92 C 79.84,53.39 81.36,54.38 82.55,55.91 C 82.82,56.21 82.97,56.57 82.99,56.98 C 82.3,56.96 81.66,56.76 81.08,56.4 C 80.39,55.76 79.67,55.16 78.92,54.6 C 78.42,54.14 78.11,53.59 77.99,52.92 Z M 110.85,52.87 C 111.54,53.05 112.08,53.45 112.46,54.06 C 114.55,58.3 116.77,62.48 119.11,66.6 C 119.39,67.21 119.4,67.83 119.16,68.45 C 118.44,68.77 117.93,68.53 117.63,67.75 C 117.12,66.36 116.57,65 115.97,63.65 C 114.31,60.55 112.66,57.44 111.04,54.32 C 110.9,53.84 110.83,53.36 110.85,52.87 Z"
       id="path6" />
  </g>
  <g
     id="g7">
    <path
       fill="#f3d3a7"
       d="M 136.02,39.89 C 135.7,39.9 135.38,39.91 135.06,39.92 C 134.81,38.8 134.72,37.67 134.77,36.53 C 134.93,31.84 135.13,27.16 135.36,22.48 C 135.17,17.14 135.03,11.79 134.95,6.45 C 134.9,5.41 135.38,4.92 136.41,4.99 C 136.93,5.34 137.14,5.83 137.06,6.46 C 136.98,11.08 136.84,15.7 136.64,20.32 C 136.42,21.04 136.23,21.76 136.06,22.49 C 136.36,28.3 136.35,34.09 136.02,39.89 Z"
       id="path7" />
  </g>
  <g
     id="g8">
    <path
       fill="#f2d4aa"
       d="M 69.29,90.28 C 71.04,90.13 72.8,90.1 74.56,90.2 C 82.89,91.28 91.2,92.47 99.5,93.76 C 101.14,94.3 101.15,94.8 99.53,95.26 C 98.15,95.25 96.77,95.16 95.4,94.99 C 86.84,93.51 78.28,92.07 69.72,90.67 C 69.49,90.63 69.34,90.5 69.29,90.28 Z"
       id="path8" />
  </g>
  <g
     id="g9">
    <path
       fill="#f4d09c"
       d="M 168.08,33.95 C 167.92,33.22 168.02,32.54 168.39,31.9 C 171.02,26.99 173.74,22.14 176.54,17.34 C 176.92,17.53 177.12,17.84 177.14,18.27 C 177.13,18.9 176.95,19.48 176.61,20 C 174.12,24.27 171.74,28.6 169.49,33 C 169.2,33.6 168.73,33.92 168.08,33.95 Z M 199.98,45.88 C 199.36,47.89 197.98,48.93 195.86,49 C 196.12,48.1 196.67,47.43 197.52,46.98 C 198.26,46.43 199.08,46.07 199.98,45.88 Z M 187,55.77 C 186.32,57.62 185.02,58.69 183.08,58.97 C 183.26,58.11 183.74,57.44 184.52,56.96 C 185.25,56.36 186.07,55.96 187,55.77 Z"
       id="path9" />
  </g>
  <g
     id="g10">
    <path
       fill="#edc48d"
       d="M 159.96,65.78 C 159.96,66.52 159.76,67.21 159.38,67.83 C 158.35,69.42 157.08,70.76 155.56,71.86 C 155.11,71.32 155.11,70.77 155.55,70.19 C 156.91,68.6 158.38,67.13 159.96,65.78 Z M 174.05,65.89 C 173.75,66.73 173.23,67.41 172.49,67.93 C 170.09,69.9 167.61,71.75 165.04,73.47 C 164.04,74.51 163,75.5 161.91,76.44 C 161.33,76.86 160.76,76.88 160.19,76.53 C 161.25,75.28 162.39,74.09 163.6,72.96 C 165.59,71.7 167.44,70.26 169.13,68.63 C 170.18,67.99 171.19,67.28 172.14,66.49 C 172.73,66.15 173.37,65.95 174.05,65.89 Z"
       id="path10" />
  </g>
  <g
     id="g11">
    <path
       fill="#edc794"
       d="M 159.96,65.78 C 160.09,64.95 160.44,64.23 161.01,63.61 C 163.44,60.64 165.91,57.71 168.42,54.82 C 168.7,54.43 169.07,54.19 169.54,54.12 C 169.91,54.74 169.84,55.35 169.33,55.94 C 166.55,58.83 163.97,61.89 161.59,65.11 C 161.16,65.62 160.62,65.85 159.96,65.78 Z M 87.87,60.84 C 89.7,61.41 91.26,62.42 92.56,63.86 C 92.82,64.19 92.96,64.57 92.98,65 C 92.07,64.94 91.29,64.59 90.64,63.95 C 89.44,63.14 88.51,62.11 87.87,60.84 Z"
       id="path11" />
  </g>
  <g
     id="g12">
    <path
       fill="#f6dfc0"
       d="M 116.18,47.92 C 116.14,47.65 116.23,47.44 116.44,47.3 C 118.97,52.56 121.2,57.93 123.15,63.41 C 123.34,64.14 123.32,64.87 123.1,65.6 C 122.92,65.71 122.74,65.83 122.56,65.94 C 122.08,65.68 121.77,65.29 121.65,64.75 C 121.06,62.69 120.46,60.65 119.85,58.6 C 119.36,57.74 118.91,56.86 118.5,55.95 C 117.47,53.34 116.7,50.66 116.18,47.92 Z"
       id="path12" />
  </g>
  <g
     id="g13">
    <path
       fill="#ecb97a"
       d="M 135.06,39.92 C 135.38,39.91 135.7,39.9 136.02,39.89 C 136.07,45.44 136.12,51 136.16,56.56 C 135.91,58.88 135.79,61.2 135.82,63.53 C 135.85,64 135.71,64.39 135.39,64.7 C 134.83,64.11 134.58,63.39 134.66,62.55 C 134.71,55.01 134.85,47.47 135.06,39.92 Z"
       id="path13" />
  </g>
  <g
     id="g14">
    <path
       fill="#f2cd99"
       d="M 170.28,52.84 C 170.7,51.57 171.5,50.62 172.68,50.01 C 173.17,50.25 173.3,50.65 173.08,51.19 C 172.58,52.5 171.64,53.05 170.28,52.84 Z M 183.08,58.97 C 182.43,60.72 181.2,61.75 179.38,62.06 C 179.26,61.93 179.14,61.81 179.02,61.68 C 179.96,60.17 181.32,59.27 183.08,58.97 Z M 69.26,64.67 C 69.19,64.2 69.29,63.79 69.56,63.42 C 71.07,64.02 72.56,64.68 74.02,65.4 C 75.2,65.96 76.2,66.74 77.02,67.72 C 76.69,68.15 76.25,68.25 75.72,68.03 C 73.59,66.86 71.44,65.74 69.26,64.67 Z"
       id="path14" />
  </g>
  <g
     id="g15">
    <path
       fill="#f1ca97"
       d="M 68.08,45.15 C 68.75,45.04 69.35,45.18 69.89,45.59 C 70.79,46.36 71.66,47.17 72.5,48 C 72.79,48.3 72.94,48.66 72.97,49.07 C 72.55,49.02 72.14,48.92 71.75,48.76 C 70.82,48 69.86,47.28 68.87,46.59 C 68.32,46.26 68.05,45.78 68.08,45.15 Z M 82.99,56.98 C 83.68,56.96 84.31,57.15 84.86,57.55 C 85.72,58.42 86.65,59.2 87.66,59.89 C 87.88,60.18 87.95,60.49 87.87,60.84 C 87.22,60.93 86.64,60.77 86.13,60.35 C 85.25,59.54 84.33,58.77 83.39,58.04 C 83.1,57.74 82.97,57.39 82.99,56.98 Z M 174.05,65.89 C 174.47,64.89 175.14,64.08 176.06,63.45 C 176.49,63.03 176.99,62.83 177.58,62.83 C 177.7,62.98 177.81,63.12 177.92,63.27 C 177.07,64.8 175.78,65.67 174.05,65.89 Z"
       id="path15" />
  </g>
  <g
     id="g16">
    <path
       fill="#e7c493"
       d="M 231.06,98.29 C 234.89,99.48 238.74,100.61 242.6,101.67 C 244.26,101.72 245.9,101.89 247.52,102.2 C 247.92,102.37 248.09,102.67 248.02,103.09 C 246.88,103.33 245.73,103.4 244.57,103.31 C 242.57,102.94 240.57,102.55 238.58,102.15 C 236.25,101.45 233.93,100.7 231.63,99.92 C 231.19,99.77 230.89,99.48 230.73,99.06 C 230.84,98.8 230.95,98.55 231.06,98.29 Z"
       id="path16" />
  </g>
  <g
     id="g17">
    <path
       fill="#f6d9ae"
       d="M 190.01,69.89 C 190.01,69.25 190.23,68.71 190.67,68.27 C 192.71,67.33 194.72,66.34 196.7,65.29 C 197.9,65.31 198.12,65.78 197.36,66.72 C 195.59,67.71 193.79,68.63 191.94,69.46 C 191.32,69.72 190.68,69.86 190.01,69.89 Z"
       id="path17" />
  </g>
  <g
     id="g18">
    <path
       fill="#f5d5a6"
       d="M 195.86,49 C 195.86,49.64 195.61,50.16 195.09,50.56 C 193.21,52.09 191.33,53.61 189.44,55.12 C 188.72,55.67 187.91,55.89 187,55.77 C 187.56,54.57 188.43,53.63 189.61,52.93 C 191.21,51.95 192.72,50.82 194.11,49.55 C 194.64,49.19 195.22,49.01 195.86,49 Z"
       id="path18" />
  </g>
  <g
     id="g19">
    <path
       fill="#f4d1a1"
       d="M 148.01,41.04 C 148.4,39.22 148.8,37.39 149.22,35.57 C 149.47,34.62 149.9,33.77 150.53,33.04 C 150.99,33.38 151.17,33.85 151.08,34.44 C 150.41,36.5 149.84,38.59 149.35,40.7 C 149.25,41.23 148.97,41.63 148.51,41.91 C 148.11,41.77 147.95,41.48 148.01,41.04 Z"
       id="path19" />
  </g>
  <g
     id="g20">
    <path
       fill="#efc086"
       d="M 68.08,45.15 C 67.12,44.99 66.28,44.58 65.55,43.94 C 64.51,43.27 63.67,42.42 63.04,41.41 C 63.62,40.91 64.22,40.94 64.83,41.49 C 65.78,42.31 66.7,43.15 67.6,44 C 67.87,44.34 68.02,44.73 68.08,45.15 Z"
       id="path20" />
  </g>
  <g
     id="g21">
    <path
       fill="#eacb9e"
       d="M 248.02,103.09 C 249.8,102.67 251.61,102.54 253.45,102.7 C 254.4,102.64 255.27,102.86 256.06,103.35 C 255.63,103.71 255.13,103.89 254.56,103.89 C 252.54,104.05 250.53,104.03 248.52,103.8 C 248.18,103.68 248.01,103.44 248.02,103.09 Z"
       id="path21" />
  </g>
  <g
     id="g22">
    <path
       fill="#f0cc9f"
       d="M 102.92,58.81 C 102.57,58.9 102.28,58.8 102.04,58.53 C 101.51,58 100.98,57.47 100.44,56.95 C 100.03,56.51 99.86,56.01 99.9,55.42 C 100.06,55.3 100.21,55.18 100.37,55.05 C 101.82,55.9 102.67,57.15 102.92,58.81 Z"
       id="path22" />
  </g>
  <g
     id="g23">
    <path
       fill="#f6d39e"
       d="M 199.98,45.88 C 200.34,44.82 201.04,44.03 202.08,43.52 C 202.6,43.15 203.13,43.13 203.67,43.44 C 203.02,45.18 201.79,45.99 199.98,45.88 Z"
       id="path23" />
  </g>
  <g
     id="g24">
    <path
       fill="#eec489"
       d="M 164.73,82.27 C 164.97,81.34 165.59,80.86 166.57,80.82 C 166.69,80.97 166.81,81.11 166.94,81.25 C 166.35,81.9 165.61,82.24 164.73,82.27 Z"
       id="path24" />
  </g>
  <g
     id="g25">
    <path
       fill="#e3bd88"
       d="M 231.06,98.29 C 230.95,98.55 230.84,98.8 230.73,99.06 C 226.35,97.67 221.95,96.33 217.53,95.04 C 209.29,92.97 200.93,92.2 192.44,92.73 C 186.81,93.34 181.21,94.2 175.66,95.31 C 163.26,98.63 150.81,101.74 138.32,104.64 C 134.38,105.22 130.43,105.76 126.48,106.23 C 122.52,106.68 118.55,106.85 114.56,106.76 C 110.21,106.82 105.87,106.64 101.55,106.23 C 97.58,105.88 93.62,105.36 89.69,104.66 C 78.96,102.18 68.24,99.63 57.55,96.99 C 55.18,96.74 52.83,96.35 50.51,95.8 C 47.84,95.69 45.18,95.46 42.53,95.11 C 32.59,94.45 22.9,95.67 13.46,98.76 C 13.03,98.83 12.62,98.78 12.23,98.6 C 16.52,96.65 20.98,95.22 25.62,94.33 C 27.92,94.14 30.19,93.82 32.45,93.36 C 37.16,93.16 41.86,93.15 46.56,93.32 C 51.16,93.92 55.75,94.6 60.32,95.36 C 66.41,96.82 72.48,98.38 78.53,100.03 C 83.12,101.13 87.74,102.13 92.38,103.02 C 98.38,104 104.41,104.72 110.48,105.17 C 115.76,105.35 121.02,105.16 126.28,104.61 C 130.32,103.98 134.36,103.34 138.39,102.66 C 146.68,100.83 154.9,98.76 163.07,96.48 C 168.89,95.16 174.73,93.95 180.6,92.84 C 184.93,92.13 189.28,91.64 193.66,91.36 C 196.6,91.39 199.54,91.35 202.48,91.27 C 206.88,91.51 211.22,92.13 215.5,93.12 C 220.76,94.66 225.94,96.38 231.06,98.29 Z"
       id="path25" />
  </g>
  <g
     id="g26">
    <path
       fill="#eeb870"
       stroke="#eeb870"
       stroke-width="0.5"
       d="M 115.98,74.69 C 116.43,74.74 116.73,74.98 116.89,75.4 C 115.99,76.41 115.14,77.46 114.34,78.57 C 115.32,79.01 116.36,79.17 117.46,79.04 C 118.46,78.72 119.47,78.44 120.49,78.17 C 121.44,78.45 122.41,78.64 123.4,78.73 C 124.09,78.58 124.49,78.16 124.61,77.47 C 123.56,77.1 122.48,76.78 121.37,76.5 C 121.68,76.22 122.05,76.09 122.48,76.11 C 124.13,76.18 125.78,76.16 127.43,76.06 C 128.61,76.48 129.81,76.66 131.04,76.6 C 131.88,77.27 131.96,77.98 131.28,78.73 C 129.52,79.14 127.91,79.88 126.45,80.95 C 126.13,81.36 126.03,81.81 126.16,82.32 C 126.53,82.93 126.74,83.58 126.8,84.27 C 125.79,84.82 124.98,85.55 124.37,86.49 C 124.79,86.84 125.21,87.19 125.64,87.55 C 125.25,88.21 124.82,88.84 124.35,89.44 C 124.55,89.98 124.59,90.53 124.45,91.07 C 123.7,91.59 122.96,92.13 122.22,92.67 C 121.75,93.55 121.29,94.44 120.84,95.33 C 120.24,95.51 119.61,95.58 118.95,95.56 C 118.15,96.67 117.77,97.93 117.79,99.33 C 116.73,100.12 116.33,99.87 116.6,98.57 C 116.37,98.22 116.03,98.04 115.59,98.04 C 114.96,98.01 114.34,98.1 113.75,98.31 C 112.77,99.09 111.66,99.61 110.44,99.85 C 108.32,99.76 106.21,99.83 104.1,100.04 C 103.82,95.26 104.74,90.71 106.85,86.39 C 108.93,81.73 111.97,77.84 115.98,74.69 Z"
       id="path26" />
  </g>
  <g
     id="g27">
    <path
       fill="#f2c383"
       stroke="#f2c383"
       stroke-width="0.5"
       d="M 153.27,75.14 C 152.16,75.98 150.95,76.68 149.64,77.23 C 148.93,78.2 149.2,78.81 150.47,79.08 C 152.16,79.72 153.89,80.18 155.66,80.45 C 154.84,80.89 153.96,81.25 153.05,81.51 C 152.71,81.75 152.51,82.07 152.44,82.48 C 153.93,82.99 155.34,83.68 156.66,84.54 C 156.48,85.18 156.05,85.55 155.39,85.67 C 153.95,86.06 152.63,85.85 151.45,85.03 C 150.72,84.11 150.02,83.18 149.33,82.26 C 148.71,82.26 148.1,82.38 147.51,82.59 C 146.92,82.36 146.31,82.24 145.69,82.21 C 145.42,82.58 145.4,82.98 145.63,83.44 C 145.37,83.71 145.05,83.8 144.67,83.71 C 143.63,83.26 142.58,82.84 141.52,82.46 C 140.35,82.37 139.18,82.36 138.02,82.46 C 137.33,82.74 136.73,83.16 136.23,83.71 C 136.52,84.73 136.99,85.68 137.66,86.55 C 136.69,86.8 135.7,87 134.67,87.15 C 134.24,87.81 133.96,88.54 133.84,89.34 C 133.02,90.26 132.34,91.27 131.79,92.37 C 131.22,92.47 130.63,92.51 130.01,92.49 C 128.81,93.7 127.8,95.05 126.97,96.53 C 126.05,96.82 125.15,97.18 124.29,97.59 C 124.77,98.38 125.47,98.9 126.4,99.16 C 126.85,99.42 126.98,99.79 126.81,100.27 C 125.56,101.14 124.29,101.98 123.01,102.78 C 117.82,103.28 112.63,103.33 107.44,102.93 C 105.4,103.01 104.29,102.05 104.1,100.04 C 106.21,99.83 108.32,99.76 110.44,99.85 C 111.66,99.61 112.77,99.09 113.75,98.31 C 114.34,98.1 114.96,98.01 115.59,98.04 C 116.03,98.04 116.37,98.22 116.6,98.57 C 116.33,99.87 116.73,100.12 117.79,99.33 C 117.77,97.93 118.15,96.67 118.95,95.56 C 119.61,95.58 120.24,95.51 120.84,95.33 C 121.29,94.44 121.75,93.55 122.22,92.67 C 122.96,92.13 123.7,91.59 124.45,91.07 C 124.59,90.53 124.55,89.98 124.35,89.44 C 124.82,88.84 125.25,88.21 125.64,87.55 C 125.21,87.19 124.79,86.84 124.37,86.49 C 124.98,85.55 125.79,84.82 126.8,84.27 C 126.74,83.58 126.53,82.93 126.16,82.32 C 126.03,81.81 126.13,81.36 126.45,80.95 C 127.91,79.88 129.52,79.14 131.28,78.73 C 131.96,77.98 131.88,77.27 131.04,76.6 C 129.81,76.66 128.61,76.48 127.43,76.06 C 125.78,76.16 124.13,76.18 122.48,76.11 C 122.05,76.09 121.68,76.22 121.37,76.5 C 122.48,76.78 123.56,77.1 124.61,77.47 C 124.49,78.16 124.09,78.58 123.4,78.73 C 122.41,78.64 121.44,78.45 120.49,78.17 C 119.47,78.44 118.46,78.72 117.46,79.04 C 116.36,79.17 115.32,79.01 114.34,78.57 C 115.14,77.46 115.99,76.41 116.89,75.4 C 116.73,74.98 116.43,74.74 115.98,74.69 C 121.71,70.28 128.2,68.25 135.45,68.6 C 140.06,68.56 144.36,69.71 148.34,72.04 C 150.06,72.95 151.71,73.98 153.27,75.14 Z"
       id="path27" />
  </g>
  <g
     id="g28">
    <path
       fill="#f5ce98"
       stroke="#f5ce98"
       stroke-width="0.5"
       d="M 153.27,75.14 C 157.34,78.33 160.3,82.34 162.13,87.17 C 162.04,87.53 161.82,87.74 161.46,87.81 C 160.59,87.28 159.66,87.07 158.66,87.21 C 158.16,87.46 158.02,87.84 158.24,88.35 C 158.66,88.79 159.11,89.18 159.61,89.52 C 158.57,89.93 157.5,90.26 156.42,90.51 C 156.54,90.81 156.62,91.12 156.66,91.44 C 154.88,92.47 153.49,92.09 152.49,90.31 C 151.13,90.79 149.75,91.18 148.37,91.47 C 148.92,92.65 148.58,93.4 147.35,93.74 C 146.14,93.62 145.05,93.2 144.07,92.45 C 142.86,92.6 141.66,92.5 140.47,92.17 C 139.42,92.19 138.5,92.54 137.7,93.22 C 137.01,94.16 136.29,95.08 135.55,95.99 C 135.34,97.76 134.84,99.45 134.06,101.06 C 130.49,102.3 126.8,102.87 123.01,102.78 C 124.29,101.98 125.56,101.14 126.81,100.27 C 126.98,99.79 126.85,99.42 126.4,99.16 C 125.47,98.9 124.77,98.38 124.29,97.59 C 125.15,97.18 126.05,96.82 126.97,96.53 C 127.8,95.05 128.81,93.7 130.01,92.49 C 130.63,92.51 131.22,92.47 131.79,92.37 C 132.34,91.27 133.02,90.26 133.84,89.34 C 133.96,88.54 134.24,87.81 134.67,87.15 C 135.7,87 136.69,86.8 137.66,86.55 C 136.99,85.68 136.52,84.73 136.23,83.71 C 136.73,83.16 137.33,82.74 138.02,82.46 C 139.18,82.36 140.35,82.37 141.52,82.46 C 142.58,82.84 143.63,83.26 144.67,83.71 C 145.05,83.8 145.37,83.71 145.63,83.44 C 145.4,82.98 145.42,82.58 145.69,82.21 C 146.31,82.24 146.92,82.36 147.51,82.59 C 148.1,82.38 148.71,82.26 149.33,82.26 C 150.02,83.18 150.72,84.11 151.45,85.03 C 152.63,85.85 153.95,86.06 155.39,85.67 C 156.05,85.55 156.48,85.18 156.66,84.54 C 155.34,83.68 153.93,82.99 152.44,82.48 C 152.51,82.07 152.71,81.75 153.05,81.51 C 153.96,81.25 154.84,80.89 155.66,80.45 C 153.89,80.18 152.16,79.72 150.47,79.08 C 149.2,78.81 148.93,78.2 149.64,77.23 C 150.95,76.68 152.16,75.98 153.27,75.14 Z"
       id="path28" />
  </g>
</svg>
